<svg width="181" height="39" viewBox="0 0 181 39" fill="none" xmlns="http://www.w3.org/2000/svg">
<path d="M49.8931 37.4821C48.1538 37.4854 46.4415 37.0568 44.9133 36.2357C43.3851 35.4147 42.09 34.2273 41.1467 32.7827C40.2035 31.338 39.6423 29.6823 39.5147 27.9675C39.3871 26.2526 39.6971 24.5336 40.4164 22.968C41.1356 21.4024 42.2411 20.0405 43.6313 19.0072C45.0214 17.9738 46.6519 17.3022 48.3729 17.0538C50.094 16.8055 51.8506 16.9884 53.4815 17.5858C55.1125 18.1832 56.5656 19.1759 57.7075 20.4729L54.3915 23.3279C53.5906 22.4193 52.5283 21.774 51.3465 21.4784C50.1647 21.1827 48.9198 21.2508 47.7782 21.6735C46.6366 22.0962 45.6527 22.8534 44.9581 23.8438C44.2636 24.8342 43.8914 26.0106 43.8914 27.2158C43.8914 28.4209 44.2636 29.5974 44.9581 30.5878C45.6527 31.5782 46.6366 32.3354 47.7782 32.7581C48.9198 33.1808 50.1647 33.2488 51.3465 32.9532C52.5283 32.6576 53.5906 32.0123 54.3915 31.1036L57.7075 33.962C56.7341 35.0656 55.5333 35.9507 54.1855 36.5578C52.8377 37.1649 51.3742 37.4801 49.8931 37.4821Z" fill="white"/>
<path d="M18.4826 37.3981C15.6314 37.3971 12.819 36.7441 10.2653 35.4903C7.71163 34.2365 5.48587 32.4158 3.76201 30.1706C2.03815 27.9254 0.862903 25.3164 0.328125 22.5477C-0.206652 19.7789 -0.086464 16.9255 0.679295 14.2102C1.44505 11.495 2.83563 8.99171 4.74234 6.89593C6.64904 4.80015 9.0202 3.1687 11.6705 2.12912C14.3207 1.08954 17.1783 0.670001 20.0198 0.903288C22.8612 1.13657 25.6096 2.01637 28.0501 3.4739L25.7704 7.19885C23.1063 5.60509 19.9832 4.9287 16.8891 5.27537C13.7951 5.62204 10.9043 6.97223 8.66857 9.11498C6.43285 11.2577 4.97811 14.0723 4.53168 17.1189C4.08526 20.1655 4.67229 23.2725 6.20105 25.9543C7.72981 28.6362 10.1142 30.7418 12.9815 31.9423C15.8489 33.1427 19.0378 33.3702 22.0498 32.5894C25.0619 31.8085 27.7274 30.0632 29.6299 27.6262C31.5324 25.1892 32.5647 22.1977 32.5655 19.1194H36.9823C36.9769 23.9673 35.0258 28.615 31.5573 32.0421C28.0888 35.4691 23.3865 37.3955 18.4826 37.3981Z" fill="white"/>
<path d="M81.3205 37.4788C79.2677 37.4788 77.2611 36.877 75.5543 35.7497C73.8474 34.6223 72.517 33.0199 71.7313 31.1451C70.9456 29.2703 70.7399 27.2073 71.1401 25.2169C71.5403 23.2265 72.5286 21.3981 73.9798 19.9629C75.4311 18.5277 77.2802 17.5502 79.2934 17.1539C81.3066 16.7576 83.3935 16.9603 85.2902 17.7364C87.1869 18.5126 88.8082 19.8272 89.9491 21.5143C91.09 23.2013 91.6993 25.1848 91.7 27.2142C91.6973 29.9351 90.603 32.5439 88.6571 34.4682C86.7113 36.3925 84.0728 37.4752 81.3205 37.4788ZM81.3205 21.3026C80.1374 21.3046 78.9815 21.6533 77.9989 22.3046C77.0162 22.9559 76.2509 23.8806 75.7997 24.9618C75.3486 26.0429 75.2317 27.2321 75.464 28.3789C75.6963 29.5257 76.2673 30.5787 77.1048 31.4047C77.9423 32.2308 79.0087 32.7929 80.1692 33.0199C81.3298 33.247 82.5324 33.1288 83.625 32.6803C84.7176 32.2318 85.6512 31.4731 86.3078 30.5002C86.9644 29.5273 87.3144 28.3838 87.3138 27.2142C87.3111 25.6448 86.6783 24.1407 85.5546 23.0323C84.4308 21.9238 82.9079 21.3017 81.3205 21.3026Z" fill="white"/>
<path d="M117.464 19.1296C117.467 17.082 116.849 15.0806 115.691 13.3832C114.532 11.6859 112.886 10.3706 110.964 9.60686C109.043 8.84312 106.934 8.66599 104.909 9.09831C102.885 9.53062 101.038 10.5526 99.6061 12.0324C98.4408 10.2958 96.5653 9.11017 93.871 7.81702L91.9514 11.7267C95.7125 13.5338 96.6027 14.3096 96.708 17.7256V22.7638L96.7692 37.4251L101.169 37.4083L101.094 19.1396C101.094 17.5718 101.724 16.0682 102.846 14.9595C103.967 13.8509 105.488 13.2281 107.074 13.2281C108.66 13.2281 110.181 13.8509 111.302 14.9595C112.424 16.0682 113.054 17.5718 113.054 19.1396L113.132 37.5024H117.549L117.464 19.1296Z" fill="white"/>
<path d="M32.8407 13.7217C34.3568 13.7217 35.5859 12.5066 35.5859 11.0078C35.5859 9.50889 34.3568 8.29382 32.8407 8.29382C31.3245 8.29382 30.0955 9.50889 30.0955 11.0078C30.0955 12.5066 31.3245 13.7217 32.8407 13.7217Z" fill="white"/>
<path d="M68.651 38.211C63.1334 37.3075 61.5365 35.01 61.5365 27.9766V8.87158H65.9533V27.9766C65.9533 33.3508 66.4086 33.4314 69.3849 33.9184L68.651 38.211Z" fill="white"/>
<path d="M164.86 19.1295L161.748 16.0529L153.57 24.1409L145.388 16.0529L142.276 19.1295L150.457 27.2176L142.263 35.3191L145.371 38.3958L153.57 30.291L161.748 38.379L164.86 35.3023L156.678 27.2176L164.86 19.1295Z" fill="white"/>
<path d="M177.349 27.2142V11.0078H172.959V25.041H164.683V29.4075H173.027C173.367 34.7548 175.171 36.6626 180.074 37.4687L180.791 33.1795C177.815 32.6723 177.349 32.5883 177.349 27.2142Z" fill="white"/>
<path d="M131.36 37.499C129.621 37.5019 127.909 37.073 126.381 36.2518C124.853 35.4305 123.559 34.2432 122.616 32.7987C121.673 31.3542 121.112 29.6988 120.984 27.9843C120.857 26.2697 121.167 24.551 121.886 22.9857C122.605 21.4203 123.71 20.0585 125.1 19.0251C126.489 17.9918 128.119 17.3199 129.84 17.0712C131.561 16.8224 133.317 17.0048 134.948 17.6015C136.579 18.1983 138.032 19.1903 139.174 20.4865L140.625 22.1257L128.598 32.4809C129.788 33.0938 131.152 33.2929 132.471 33.0462C133.79 32.7994 134.987 32.1212 135.868 31.1206L139.184 33.979C138.21 35.0842 137.008 35.9703 135.658 36.5775C134.308 37.1847 132.843 37.4989 131.36 37.499ZM131.36 21.3162C130.403 21.3161 129.46 21.5426 128.61 21.9768C127.76 22.4111 127.027 23.0403 126.473 23.8119C125.92 24.5835 125.561 25.475 125.428 26.4118C125.294 27.3485 125.39 28.3032 125.706 29.196L134.098 21.9779C133.252 21.5443 132.313 21.3174 131.36 21.3162Z" fill="white"/>
</svg>
