<svg xmlns="http://www.w3.org/2000/svg" viewBox="0 0 671.11 118.18"><defs><style>.cls-1{fill:#ffffff;}</style></defs><g id="Layer_2" data-name="Layer 2"><g id="Final"><g id="logotipo-ciclonext"><path class="cls-1" d="M146.86,114.57a30.57,30.57,0,1,1,23-50.64l-9.76,8.5a17.62,17.62,0,1,0,0,23.15l9.76,8.51A30.57,30.57,0,0,1,146.86,114.57Z"/><path class="cls-1" d="M54.41,114.32a54.42,54.42,0,1,1,28.16-101L75.86,24.41a41.47,41.47,0,1,0,20,35.49h13A54.48,54.48,0,0,1,54.41,114.32Z"/><path class="cls-1" d="M239.36,114.56A30.55,30.55,0,1,1,269.91,84,30.59,30.59,0,0,1,239.36,114.56Zm0-48.16A17.61,17.61,0,1,0,257,84,17.63,17.63,0,0,0,239.36,66.4Z"/><path class="cls-1" d="M345.74,59.93A30.51,30.51,0,0,0,293.18,38.8c-3.43-5.17-8.95-8.7-16.88-12.55l-5.65,11.64c11.07,5.38,13.69,7.69,14,17.86v15h0l.18,43.65,12.95-.05-.22-54.39a17.6,17.6,0,1,1,35.2,0l.23,54.67,13,0Z"/><circle class="cls-1" cx="96.67" cy="35.75" r="8.08"/><path class="cls-1" d="M202.07,116.74c-16.24-2.69-20.94-9.53-20.94-30.47V29.39h13V86.27c0,16,1.34,16.24,10.1,17.69Z"/><polygon class="cls-1" points="485.24 59.93 476.08 50.77 452.01 74.85 427.93 50.77 418.77 59.93 442.85 84.01 418.73 108.13 427.88 117.29 452.01 93.16 476.08 117.24 485.24 108.08 461.16 84.01 485.24 59.93"/><path class="cls-1" d="M522,84V35.75H509.08V77.53H484.72v13h24.56c1,15.92,6.31,21.6,20.74,24l2.11-12.77C523.37,100.25,522,100,522,84Z"/><path class="cls-1" d="M386.64,114.62a30.57,30.57,0,1,1,23-50.65l4.27,4.88L378.51,99.68a17.6,17.6,0,0,0,21.4-4.05l9.76,8.51A30.55,30.55,0,0,1,386.64,114.62Zm0-48.18A17.63,17.63,0,0,0,370,89.9l24.7-21.49A17.57,17.57,0,0,0,386.64,66.44Z"/></g><g id="logo-circulo-preto"><path class="cls-1" d="M617.47,26.49a26.84,26.84,0,0,1,13.37,5c12.33,9.37,19,23.71,15.65,38-1.94-1.15-3.92-2.34-6-3.64L643,96l28.08-12.45c-2.77-1.59-5.33-3-7.8-4.42a54.24,54.24,0,0,0-22.45-63.57c-8.22-6.16-25.66-8.81-25.53-8.21L629,17.57Z"/><path class="cls-1" d="M653.56,96s-5.28,8.9-18.21,15.8a54.27,54.27,0,0,1-66.33-12c-2.42,1.45-4.95,3-7.71,4.57l3.12-30.55,27.41,12.7c-2.18,1.19-4.19,2.32-6.15,3.43a35.47,35.47,0,0,0,40.78,5.28c4.52-2.43,11.27-9.52,11.27-9.52l1.85,16.2Z"/><path class="cls-1" d="M597.75,0c.13,3.2.26,6.14.4,9a54.43,54.43,0,0,0-41.9,52.81c-.09,13,3.75,20.32,3.52,19.25l2.28-13.75,15.74,8.07s-2.7-8.76-2.7-13.57A35.45,35.45,0,0,1,599,28.31c.06,2.25.11,4.55.13,7l24.12-18.18Z"/></g></g></g></svg>