<svg xmlns="http://www.w3.org/2000/svg" viewBox="0 0 301.19 54.76"><defs><style>.cls-1{fill:white;}</style></defs><g id="Layer_2" data-name="Layer 2"><g id="Final"><path class="cls-1" d="M66.06,28.82A9.18,9.18,0,0,1,73,32l3-2.63a13.18,13.18,0,1,0,0,17.3L73,44a9.16,9.16,0,1,1-6.9-15.19Z"/><path class="cls-1" d="M24.21,47A20.22,20.22,0,1,1,34.67,9.51l2.07-3.42A24.22,24.22,0,1,0,48.43,26.81h-4A20.24,20.24,0,0,1,24.21,47Z"/><path class="cls-1" d="M106.92,24.83A13.16,13.16,0,1,0,120.07,38,13.17,13.17,0,0,0,106.92,24.83Zm0,22.31A9.16,9.16,0,1,1,116.07,38,9.17,9.17,0,0,1,106.92,47.14Z"/><path class="cls-1" d="M141.06,13.67a13.12,13.12,0,0,0-10.38,5.1c-1.37-2.91-4-4.65-8.08-6.65l-1.75,3.6c5.5,2.66,6.9,4,7.05,9.17v1.93h0v5h0L128,51.05h4l-.1-24.21a9.16,9.16,0,1,1,18.31,0l.1,24.34,4,0-.1-24.32A13.17,13.17,0,0,0,141.06,13.67Z"/><path class="cls-1" d="M43.79,18.37a2.75,2.75,0,1,0-2.74-2.75A2.75,2.75,0,0,0,43.79,18.37Z"/><path class="cls-1" d="M85.93,39V12.67h-4V39c0,9.9,2.33,12,8.87,13.13l.65-3.94C87.21,47.52,85.93,47.3,85.93,39Z"/><polygon class="cls-1" points="215.44 26.83 212.61 24 201.46 35.16 190.3 24 187.47 26.83 198.63 37.98 187.45 49.16 190.28 51.99 201.46 40.81 212.61 51.97 215.44 49.14 204.28 37.98 215.44 26.83"/><path class="cls-1" d="M230.9,38V15.62h-4V36H214.61v4h12.33c.32,8.2,2.75,10.13,8.83,11.13l.65-3.94C232.18,46.47,230.9,46.26,230.9,38Z"/><path class="cls-1" d="M183.09,29.36a13.17,13.17,0,1,0,0,17.3l-3-2.63a9.19,9.19,0,0,1-6.91,3.14,9.08,9.08,0,0,1-5.43-1.8l16.67-14.5Zm-18,13A9.08,9.08,0,0,1,164,38a9.16,9.16,0,0,1,14.59-7.39Z"/><g id="logo-circulo-preto"><path class="cls-1" d="M276.33,12.28a12.4,12.4,0,0,1,6.2,2.31c5.71,4.34,8.79,11,7.25,17.62-.9-.53-1.81-1.08-2.79-1.69l1.19,14,13-5.77c-1.28-.74-2.47-1.41-3.61-2.05A25.13,25.13,0,0,0,287.17,7.2c-3.8-2.86-11.89-4.09-11.83-3.81l6.36,4.75Z"/><path class="cls-1" d="M293.06,44.47a22.57,22.57,0,0,1-8.44,7.32,25.15,25.15,0,0,1-30.74-5.58c-1.12.68-2.29,1.38-3.57,2.12l1.45-14.15,12.7,5.88c-1,.55-1.95,1.07-2.85,1.59a16.42,16.42,0,0,0,18.89,2.44,29.32,29.32,0,0,0,5.22-4.4l.86,7.5Z"/><path class="cls-1" d="M267.2,0c.05,1.48.12,2.84.18,4.15A25.25,25.25,0,0,0,248,28.63c0,6,1.74,9.41,1.63,8.92l1.06-6.38,7.3,3.74a29.58,29.58,0,0,1-1.25-6.28,16.43,16.43,0,0,1,11.06-15.51c0,1,.05,2.11.06,3.26L279,8Z"/></g></g></g></svg>