<svg xmlns="http://www.w3.org/2000/svg" viewBox="0 0 301.19 55.17"><defs><style>.cls-1{fill:#58c2b4;}.cls-2{fill:#20b788;}.cls-3{fill:#97ca40;}</style></defs><g id="Layer_2" data-name="Layer 2"><g id="Final"><path class="cls-1" d="M276.33,12.37a12.31,12.31,0,0,1,6.2,2.33c5.71,4.37,8.79,11.07,7.25,17.75-.9-.54-1.81-1.09-2.79-1.7l1.19,14,13-5.81-3.61-2.07A25.42,25.42,0,0,0,287.17,7.25c-3.8-2.88-11.89-4.11-11.83-3.83L281.7,8.2Z"/><path class="cls-2" d="M293.06,44.8a22.68,22.68,0,0,1-8.44,7.38,25,25,0,0,1-30.74-5.62c-1.12.67-2.29,1.38-3.57,2.13l1.45-14.26,12.7,5.93c-1,.55-1.95,1.08-2.85,1.6a16.33,16.33,0,0,0,18.89,2.46A29.38,29.38,0,0,0,285.72,40l.86,7.56Z"/><path class="cls-3" d="M267.2,0c.05,1.49.12,2.87.18,4.18A25.4,25.4,0,0,0,248,28.84c0,6.06,1.74,9.48,1.63,9l1.06-6.42,7.3,3.77a30,30,0,0,1-1.25-6.33,16.55,16.55,0,0,1,11.06-15.63c0,1,.05,2.13.06,3.29L279,8Z"/><path class="cls-2" d="M66.06,51.15A13.17,13.17,0,1,1,76,29.33L73,32a9.17,9.17,0,1,0,0,12l3,2.62A13.14,13.14,0,0,1,66.06,51.15Z"/><path class="cls-2" d="M24.21,51A24.22,24.22,0,1,1,36.74,6.09L34.67,9.51a20.22,20.22,0,1,0,9.76,17.3h4A24.24,24.24,0,0,1,24.21,51Z"/><path class="cls-2" d="M106.92,51.14A13.16,13.16,0,1,1,120.07,38,13.17,13.17,0,0,1,106.92,51.14Zm0-22.31A9.16,9.16,0,1,0,116.07,38,9.16,9.16,0,0,0,106.92,28.83Z"/><path class="cls-2" d="M154.21,26.83a13.14,13.14,0,0,0-23.53-8.06c-1.37-2.91-4-4.65-8.08-6.65l-1.75,3.6c5.5,2.66,6.9,4,7.05,9.17v1.93h0v5h0L128,51.05h4l-.1-24.21a9.16,9.16,0,1,1,18.31,0l.1,24.34,4,0Z"/><path class="cls-2" d="M43.79,12.88a2.75,2.75,0,1,0,2.75,2.74A2.74,2.74,0,0,0,43.79,12.88Z"/><path class="cls-2" d="M90.8,52.16c-6.54-1.08-8.87-3.23-8.87-13.13V12.67h4V39c0,8.27,1.28,8.49,5.52,9.19Z"/><polygon class="cls-2" points="215.44 26.83 212.61 24 201.46 35.16 190.3 24 187.47 26.83 198.63 37.98 187.45 49.16 190.28 51.99 201.46 40.81 212.61 51.97 215.44 49.14 204.28 37.98 215.44 26.83"/><path class="cls-2" d="M230.9,38V15.62h-4V36H214.61v4h12.33c.32,8.2,2.75,10.13,8.83,11.13l.65-3.94C232.18,46.47,230.9,46.26,230.9,38Z"/><path class="cls-2" d="M173.16,51.17a13.17,13.17,0,1,1,9.93-21.81l1.31,1.51-16.67,14.5a9.08,9.08,0,0,0,5.43,1.8A9.19,9.19,0,0,0,180.07,44l3,2.63A13.17,13.17,0,0,1,173.16,51.17Zm0-22.33A9.17,9.17,0,0,0,164,38a9.08,9.08,0,0,0,1.1,4.34l13.49-11.73A9.21,9.21,0,0,0,173.16,28.84Z"/></g></g></svg>