<svg width="104" height="104" viewBox="0 0 104 104" fill="none" xmlns="http://www.w3.org/2000/svg">
<circle cx="52.3517" cy="52.3519" r="51.4815" fill="#20B788"/>
<path fill-rule="evenodd" clip-rule="evenodd" d="M26.6723 81.753C21.9361 77.8832 18.1488 72.983 15.6066 67.4353C13.0643 61.8877 11.836 55.8429 12.0176 49.7737C12.1991 43.7044 13.7857 37.775 16.6532 32.449C19.5208 27.123 23.5916 22.5447 28.5474 19.072C33.5033 15.5992 39.2099 13.3262 45.2213 12.4305C51.2326 11.5348 57.3857 12.0408 63.1997 13.9088C69.0137 15.7768 74.331 18.9563 78.7359 23.1988C83.1408 27.4412 86.514 32.6316 88.5918 38.3642L79.7504 41.4608C77.4859 35.1985 73.2142 29.8378 67.6028 26.2163C61.9914 22.5949 55.3564 20.9167 48.7347 21.4441C42.1129 21.9714 35.8775 24.6746 31.0026 29.1311C26.1278 33.5877 22.8882 39.5466 21.7901 46.0767C20.6921 52.6068 21.7973 59.3402 24.9333 65.2248C28.0692 71.1093 33.059 75.8135 39.1232 78.6022C45.1873 81.3909 51.9841 82.107 58.4513 80.6386C64.9186 79.1703 70.6921 75.6002 74.8696 70.4862L82.2086 76.4782C75.6228 84.5261 66.0757 89.6018 55.6632 90.5908C45.2508 91.5798 34.8241 88.4012 26.6723 81.753ZM83.146 62.23C85.6652 64.2869 89.3558 63.9353 91.3892 61.4448C93.4226 58.9543 93.0288 55.268 90.5095 53.2111C87.9903 51.1543 84.2997 51.5059 82.2663 53.9964C80.2329 56.4869 80.6268 60.1732 83.146 62.23ZM41.3845 71.128C44.6616 72.8896 48.3337 73.8095 52.0639 73.8035C55.2448 73.8032 58.3887 73.1292 61.2839 71.8267C64.1791 70.5242 66.7585 68.6236 68.8482 66.2527L61.7351 60.1213C59.8439 62.2676 57.2773 63.7225 54.4483 64.2518C51.6193 64.7811 48.6925 64.354 46.1388 63.0393L71.9383 40.8266L68.8263 37.3106C66.3761 34.53 63.2588 32.4021 59.7605 31.1221C56.2622 29.842 52.4948 29.4509 48.8038 29.9844C45.1128 30.518 41.6164 31.9592 38.6353 34.1758C35.6542 36.3925 33.2838 39.3136 31.7414 42.6714C30.1991 46.0291 29.5343 49.7159 29.8079 53.3937C30.0815 57.0715 31.2848 60.6225 33.3075 63.721C35.3302 66.8195 38.1074 69.3664 41.3845 71.128ZM46.1649 40.5074C47.9885 39.5759 50.0113 39.09 52.0639 39.0902C54.1085 39.0929 56.1227 39.5796 57.938 40.5096L39.9367 55.9929C39.2579 54.0779 39.0531 52.0299 39.3395 50.0205C39.6258 48.0112 40.3949 46.0989 41.5824 44.4437C42.77 42.7886 44.3413 41.4388 46.1649 40.5074Z" fill="white"/>
</svg>
