<svg width="703" height="1259" viewBox="0 0 703 1259" fill="none" xmlns="http://www.w3.org/2000/svg">
<path fill-rule="evenodd" clip-rule="evenodd" d="M257.381 8.41666C255.066 8.41651 253.19 6.53226 253.19 4.20806C253.19 1.88387 255.067 -0.000146369 257.382 8.52898e-09C259.697 0.000146386 261.573 1.8844 261.573 4.20859C261.573 6.53279 259.696 8.4168 257.381 8.41666ZM695.811 29.1694C693.205 30.9174 690.141 31.8503 687.007 31.8501C682.804 31.8443 678.775 30.1652 675.804 27.1811C672.833 24.197 671.163 20.1516 671.159 15.9324C671.16 12.7856 672.09 9.7099 673.833 7.09407C675.575 4.47824 678.051 2.4398 680.947 1.23648C683.843 0.0331634 687.03 -0.280992 690.104 0.333737C693.178 0.948466 696.001 2.46447 698.217 4.69008C700.433 6.91568 701.942 9.75093 702.552 12.8373C703.163 15.9238 702.849 19.1227 701.649 22.0298C700.449 24.9368 698.418 27.4214 695.811 29.1694ZM692.08 8.32076C690.58 7.31074 688.815 6.76995 687.008 6.76675C684.584 6.76521 682.259 7.72973 680.543 9.4484C678.827 11.1671 677.86 13.4993 677.856 15.9328C677.855 17.7464 678.389 19.5196 679.392 21.0283C680.394 22.537 681.82 23.7135 683.488 24.4091C685.156 25.1046 686.993 25.288 688.765 24.9361C690.537 24.5842 692.165 23.7127 693.444 22.4319C694.723 21.151 695.595 19.5183 695.95 17.74C696.305 15.9617 696.126 14.1178 695.438 12.4412C694.749 10.7647 693.58 9.33078 692.08 8.32076ZM522.054 78.3795C524.709 78.3848 527.324 77.7205 529.658 76.4474C531.991 75.1743 533.969 73.3333 535.409 71.0933C536.85 68.8533 537.707 66.2859 537.902 63.6268C538.097 60.9678 537.623 58.3021 536.525 55.8744C535.427 53.4467 533.74 51.3347 531.617 49.7323C529.494 48.1298 527.005 47.0882 524.377 46.7029C521.749 46.3176 519.067 46.6011 516.576 47.5273C514.086 48.4535 511.867 49.9927 510.123 52.0038L515.186 56.4312C516.409 55.0223 518.031 54.0218 519.836 53.5635C521.641 53.1051 523.541 53.2108 525.285 53.8664C527.028 54.522 528.53 55.6962 529.59 57.232C530.651 58.7678 531.219 60.5921 531.219 62.4608C531.219 64.3296 530.65 66.1538 529.59 67.6895C528.529 69.2252 527.027 70.3992 525.283 71.0545C523.54 71.7099 521.639 71.8153 519.835 71.3568C518.03 70.8982 516.408 69.8975 515.186 68.4885L510.122 72.9204C511.608 74.6319 513.442 76.0044 515.5 76.9459C517.557 77.8875 519.792 78.3763 522.054 78.3795ZM62.4339 279.933C65.0897 279.938 67.7043 279.274 70.0378 278.001C72.3713 276.728 74.3489 274.887 75.7894 272.647C77.2299 270.407 78.0869 267.84 78.2819 265.18C78.4769 262.521 78.0037 259.856 76.9056 257.428C75.8075 255 74.1197 252.888 71.9971 251.286C69.8745 249.683 67.3849 248.642 64.7571 248.257C62.1292 247.871 59.4469 248.155 56.9565 249.081C54.4661 250.007 52.2472 251.546 50.5035 253.557L55.5666 257.985C56.7894 256.576 58.4116 255.575 60.2162 255.117C62.0208 254.659 63.9216 254.764 65.6647 255.42C67.4079 256.076 68.9101 257.25 69.9706 258.786C71.031 260.321 71.5992 262.146 71.5991 264.014C71.5989 265.883 71.0306 267.707 69.9699 269.243C68.9092 270.779 67.4069 271.953 65.6637 272.608C63.9205 273.263 62.0196 273.369 60.215 272.91C58.4106 272.452 56.7885 271.451 55.5658 270.042L50.5022 274.474C51.9883 276.185 53.8218 277.558 55.8797 278.5C57.9376 279.441 60.1724 279.93 62.4339 279.933ZM609.039 381.928C606.705 383.201 604.091 383.865 601.435 383.86C599.173 383.857 596.939 383.368 594.881 382.426C592.823 381.485 590.989 380.112 589.503 378.401L594.567 373.969C595.79 375.378 597.412 376.379 599.216 376.837C601.021 377.296 602.922 377.19 604.665 376.535C606.408 375.879 607.91 374.705 608.971 373.17C610.032 371.634 610.6 369.81 610.6 367.941C610.6 366.072 610.032 364.248 608.972 362.712C607.911 361.176 606.409 360.002 604.666 359.347C602.923 358.691 601.022 358.585 599.217 359.044C597.413 359.502 595.791 360.503 594.568 361.911L589.505 357.484C591.248 355.473 593.467 353.934 595.958 353.008C598.448 352.081 601.13 351.798 603.758 352.183C606.386 352.568 608.876 353.61 610.998 355.213C613.121 356.815 614.809 358.927 615.907 361.355C617.005 363.782 617.478 366.448 617.283 369.107C617.088 371.766 616.231 374.334 614.791 376.574C613.35 378.814 611.372 380.655 609.039 381.928ZM447.257 357.468C450.392 357.469 453.456 356.536 456.062 354.788C458.668 353.04 460.7 350.555 461.9 347.648C463.1 344.741 463.414 341.542 462.803 338.456C462.192 335.369 460.684 332.534 458.468 330.308C456.252 328.083 453.428 326.567 450.354 325.952C447.28 325.337 444.094 325.652 441.198 326.855C438.302 328.058 435.826 330.097 434.084 332.712C432.341 335.328 431.411 338.404 431.409 341.551C431.413 345.77 433.084 349.815 436.055 352.799C439.026 355.784 443.055 357.463 447.257 357.468ZM447.259 332.385C449.065 332.388 450.83 332.929 452.331 333.939C453.831 334.949 454.999 336.383 455.688 338.06C456.377 339.736 456.555 341.58 456.201 343.358C455.846 345.137 454.974 346.769 453.695 348.05C452.416 349.331 450.788 350.203 449.016 350.555C447.243 350.906 445.407 350.723 443.739 350.027C442.071 349.332 440.645 348.155 439.643 346.647C438.64 345.138 438.106 343.365 438.107 341.551C438.111 339.118 439.078 336.785 440.794 335.067C442.51 333.348 444.835 332.384 447.259 332.385ZM236.552 166.727C239.687 166.727 242.751 165.794 245.357 164.046C247.964 162.298 249.995 159.814 251.195 156.907C252.395 154 252.709 150.801 252.098 147.714C251.487 144.628 249.979 141.793 247.763 139.567C245.547 137.341 242.724 135.825 239.65 135.211C236.576 134.596 233.389 134.91 230.493 136.113C227.597 137.317 225.121 139.355 223.379 141.971C221.636 144.587 220.706 147.662 220.705 150.809C220.708 155.028 222.379 159.074 225.35 162.058C228.321 165.042 232.35 166.721 236.552 166.727ZM236.554 141.644C238.361 141.647 240.125 142.188 241.626 143.198C243.126 144.208 244.295 145.642 244.983 147.318C245.672 148.995 245.851 150.839 245.496 152.617C245.141 154.395 244.269 156.028 242.99 157.309C241.711 158.59 240.083 159.461 238.311 159.813C236.539 160.165 234.702 159.981 233.034 159.286C231.366 158.59 229.94 157.414 228.938 155.905C227.935 154.396 227.401 152.623 227.402 150.81C227.406 148.376 228.373 146.044 230.089 144.325C231.805 142.607 234.13 141.642 236.554 141.644ZM367.718 61.3463C372.072 61.345 376.366 60.3328 380.266 58.3888C384.165 56.4449 387.564 53.6219 390.196 50.1405C392.829 46.6591 394.623 42.6137 395.44 38.3205C396.257 34.0272 396.074 29.6025 394.905 25.3921C393.736 21.1817 391.613 17.2998 388.702 14.0499C385.79 10.7999 382.17 8.26987 378.123 6.65761C374.077 5.04535 369.713 4.39451 365.375 4.75598C361.036 5.11745 356.839 6.48143 353.112 8.74129L356.593 14.5175C360.661 12.0465 365.43 10.9979 370.154 11.5358C374.879 12.0736 379.293 14.1676 382.706 17.4904C386.12 20.8132 388.341 25.1778 389.022 29.902C389.704 34.6262 388.807 39.4439 386.472 43.6023C384.138 47.7608 380.497 51.0257 376.118 52.8868C371.74 54.7479 366.871 55.1005 362.272 53.8893C357.673 52.6782 353.603 49.9716 350.698 46.1925C347.793 42.4134 346.217 37.7747 346.216 33.0013L339.472 33.0008C339.48 40.5182 342.459 47.7253 347.754 53.0398C353.05 58.3542 360.23 61.3417 367.718 61.3463ZM345.797 24.6313C343.482 24.6311 341.605 22.7469 341.605 20.4227C341.605 18.0985 343.482 16.2145 345.797 16.2146C348.112 16.2147 349.989 18.099 349.989 20.4232C349.989 22.7474 348.112 24.6314 345.797 24.6313ZM41.2825 119.242C37.3833 117.298 33.0891 116.285 28.7354 116.283C21.2475 116.287 14.0671 119.274 8.77063 124.587C3.47412 129.901 0.494446 137.108 0.485718 144.625L7.22992 144.626C7.23145 139.852 8.80798 135.214 11.7133 131.435C14.6185 127.656 18.6887 124.95 23.288 123.74C27.8873 122.529 32.7565 122.882 37.1346 124.744C41.5128 126.606 45.1533 129.871 47.4874 134.03C49.8215 138.188 50.7175 143.006 50.0356 147.73C49.3536 152.455 47.132 156.819 43.718 160.141C40.304 163.464 35.8898 165.557 31.1654 166.094C26.4409 166.631 21.6722 165.582 17.6045 163.111L14.123 168.887C17.8494 171.147 22.046 172.511 26.3847 172.873C30.7234 173.235 35.0867 172.585 39.1337 170.973C43.1805 169.362 46.8013 166.832 49.7129 163.582C52.6245 160.333 54.7481 156.451 55.9176 152.241C57.0872 148.031 57.2709 143.606 56.4547 139.313C55.6384 135.019 53.8441 130.974 51.2121 127.492C48.58 124.01 45.1816 121.187 41.2825 119.242ZM2.61719 157.204C2.61731 154.88 4.49414 152.995 6.8092 152.996C9.12421 152.996 11.0009 154.88 11.0007 157.204C11.0006 159.528 9.12372 161.412 6.80872 161.412C4.49365 161.412 2.61707 159.528 2.61719 157.204ZM179.858 399.373C175.504 399.371 171.21 398.358 167.31 396.414C163.411 394.47 160.013 391.646 157.381 388.164C154.749 384.683 152.955 380.637 152.138 376.344C151.322 372.05 151.506 367.626 152.675 363.415C153.845 359.205 155.969 355.324 158.88 352.074C161.792 348.824 165.412 346.295 169.459 344.683C173.506 343.071 177.87 342.421 182.208 342.783C186.547 343.145 190.744 344.51 194.47 346.77L190.989 352.546C186.921 350.074 182.152 349.025 177.428 349.562C172.703 350.1 168.289 352.193 164.875 355.515C161.461 358.838 159.239 363.202 158.557 367.926C157.875 372.65 158.772 377.468 161.106 381.627C163.44 385.785 167.08 389.051 171.458 390.912C175.837 392.774 180.706 393.127 185.305 391.917C189.904 390.706 193.975 388 196.88 384.221C199.785 380.443 201.362 375.804 201.363 371.031L208.107 371.031C208.099 378.549 205.119 385.755 199.822 391.069C194.526 396.383 187.345 399.369 179.858 399.373ZM201.784 362.661C204.099 362.661 205.976 360.777 205.976 358.453C205.976 356.129 204.099 354.244 201.784 354.244C199.469 354.244 197.592 356.128 197.592 358.452C197.592 360.776 199.469 362.661 201.784 362.661ZM524.627 178.197C528.526 176.253 532.821 175.241 537.174 175.24C544.662 175.244 551.842 178.232 557.138 183.546C562.434 188.861 565.413 196.068 565.42 203.585L558.676 203.585C558.675 198.811 557.099 194.173 554.195 190.393C551.29 186.614 547.22 183.908 542.621 182.697C538.022 181.486 533.152 181.838 528.774 183.699C524.396 185.56 520.755 188.825 518.42 192.984C516.085 197.142 515.189 201.96 515.87 206.684C516.552 211.408 518.773 215.773 522.186 219.096C525.6 222.418 530.014 224.512 534.738 225.05C539.462 225.588 544.231 224.54 548.299 222.068L551.78 227.845C548.053 230.105 543.857 231.469 539.518 231.83C535.179 232.191 530.816 231.541 526.769 229.928C522.722 228.316 519.102 225.786 516.191 222.536C513.28 219.286 511.157 215.404 509.988 211.194C508.819 206.984 508.635 202.559 509.452 198.266C510.269 193.972 512.064 189.927 514.696 186.445C517.329 182.964 520.727 180.141 524.627 178.197ZM563.287 216.163C563.287 213.839 561.411 211.955 559.096 211.955C556.781 211.955 554.904 213.839 554.904 216.163C554.904 218.487 556.78 220.371 559.095 220.371C561.41 220.372 563.287 218.488 563.287 216.163ZM395.179 246.116C395.179 248.44 397.056 250.325 399.371 250.325C401.686 250.325 403.563 248.441 403.563 246.117C403.563 243.793 401.686 241.908 399.371 241.908C397.056 241.908 395.179 243.792 395.179 246.116ZM519.995 313.909C517.679 313.908 515.803 312.024 515.803 309.7C515.803 307.376 517.68 305.492 519.995 305.492C522.31 305.492 524.187 307.376 524.187 309.7C524.186 312.025 522.31 313.909 519.995 313.909ZM462.371 143.779C462.371 146.103 464.247 147.987 466.562 147.987C468.877 147.987 470.754 146.103 470.754 143.779C470.755 141.455 468.878 139.571 466.563 139.57C464.248 139.57 462.371 141.454 462.371 143.779ZM605.52 39.4514C603.205 39.4512 601.329 37.567 601.329 35.2428C601.329 32.9186 603.206 31.0346 605.521 31.0347C607.836 31.0349 609.712 32.9191 609.712 35.2433C609.712 37.5675 607.835 39.4515 605.52 39.4514ZM422.653 415.137C422.653 417.462 424.53 419.346 426.845 419.346C429.16 419.346 431.037 417.462 431.037 415.138C431.037 412.814 429.16 410.929 426.845 410.929C424.53 410.929 422.653 412.813 422.653 415.137ZM55.8035 361.949C53.4885 361.949 51.6119 360.065 51.612 357.74C51.6122 355.416 53.489 353.532 55.8041 353.532C58.1191 353.532 59.9957 355.417 59.9955 357.741C59.9954 360.065 58.1186 361.949 55.8035 361.949ZM189.043 244.553C189.043 246.877 190.92 248.761 193.235 248.761C195.55 248.761 197.427 246.877 197.427 244.553C197.427 242.229 195.55 240.345 193.235 240.345C190.92 240.344 189.043 242.228 189.043 244.553ZM138.271 160.371C135.956 160.371 134.079 158.487 134.079 156.163C134.079 153.839 135.956 151.955 138.271 151.955C140.586 151.955 142.463 153.839 142.463 156.163C142.463 158.488 140.586 160.372 138.271 160.371ZM280.67 81.7416C280.669 84.0658 282.546 85.95 284.861 85.9502C287.176 85.9503 289.053 84.0663 289.053 81.7421C289.053 79.4179 287.177 77.5337 284.862 77.5335C282.547 77.5334 280.67 79.4174 280.67 81.7416ZM54.2969 42.5178C51.9818 42.5177 50.1052 40.6334 50.1053 38.3092C50.1055 35.985 51.9823 34.101 54.2974 34.1012C56.6125 34.1013 58.4891 35.9855 58.4889 38.3097C58.4888 40.6339 56.6119 42.518 54.2969 42.5178ZM289.814 346.901C289.814 349.225 291.691 351.109 294.006 351.11C296.321 351.11 298.198 349.226 298.198 346.901C298.198 344.577 296.321 342.693 294.006 342.693C291.691 342.693 289.815 344.577 289.814 346.901ZM319.58 269.977C319.579 280.884 317.141 284.446 308.716 285.847L307.595 279.19C312.14 278.435 312.835 278.31 312.836 269.977L312.838 240.352L319.582 240.353L319.58 269.977ZM632.435 141.658C640.86 140.257 643.298 136.695 643.299 125.789L643.301 96.1638L636.557 96.1634L636.555 125.788C636.554 134.122 635.859 134.247 631.315 135.002L632.435 141.658ZM144.784 21.7018L140.032 26.4723L152.524 39.0148L140.031 51.5504L144.782 56.3215L157.27 43.7807L169.788 56.3492L174.535 51.5786L162.023 39.0154L174.516 26.4745L169.764 21.7034L157.271 34.2442L144.784 21.7018ZM378.227 142.785L382.979 138.015L395.465 150.557L407.958 138.016L412.71 142.787L400.217 155.328L412.729 167.891L407.982 172.662L395.465 160.093L382.977 172.634L378.225 167.863L390.718 155.328L378.227 142.785ZM647.132 234.171L642.38 238.941L654.872 251.484L642.378 264.019L647.13 268.79L659.618 256.25L672.136 268.818L676.883 264.048L664.371 251.484L676.864 238.943L672.112 234.172L659.619 246.713L647.132 234.171ZM257.381 427.796C255.066 427.796 253.19 425.912 253.19 423.588C253.19 421.263 255.067 419.379 257.382 419.38C259.697 419.38 261.573 421.264 261.573 423.588C261.573 425.912 259.696 427.796 257.381 427.796ZM695.811 448.549C693.205 450.297 690.141 451.23 687.007 451.23C682.804 451.224 678.775 449.545 675.804 446.561C672.833 443.577 671.163 439.531 671.159 435.312C671.16 432.165 672.09 429.089 673.833 426.474C675.575 423.858 678.051 421.819 680.947 420.616C683.843 419.413 687.03 419.099 690.104 419.713C693.178 420.328 696.001 421.844 698.217 424.07C700.433 426.295 701.942 429.13 702.552 432.217C703.163 435.303 702.849 438.502 701.649 441.409C700.449 444.316 698.418 446.801 695.811 448.549ZM692.08 427.7C690.58 426.69 688.815 426.15 687.008 426.146C684.584 426.145 682.259 427.109 680.543 428.828C678.827 430.547 677.86 432.879 677.856 435.312C677.855 437.126 678.389 438.899 679.392 440.408C680.394 441.917 681.82 443.093 683.488 443.789C685.156 444.484 686.993 444.668 688.765 444.316C690.537 443.964 692.165 443.092 693.444 441.811C694.723 440.531 695.595 438.898 695.95 437.12C696.305 435.341 696.126 433.497 695.438 431.821C694.749 430.144 693.58 428.71 692.08 427.7ZM522.054 497.759C524.71 497.764 527.324 497.1 529.658 495.827C531.991 494.554 533.969 492.713 535.409 490.473C536.85 488.233 537.707 485.665 537.902 483.006C538.097 480.347 537.624 477.682 536.525 475.254C535.427 472.826 533.74 470.714 531.617 469.112C529.494 467.509 527.005 466.468 524.377 466.082C521.749 465.697 519.067 465.981 516.576 466.907C514.086 467.833 511.867 469.372 510.123 471.383L515.186 475.811C516.409 474.402 518.032 473.401 519.836 472.943C521.641 472.485 523.542 472.59 525.285 473.246C527.028 473.902 528.53 475.076 529.59 476.612C530.651 478.147 531.219 479.972 531.219 481.84C531.219 483.709 530.65 485.533 529.59 487.069C528.529 488.605 527.027 489.779 525.284 490.434C523.54 491.089 521.639 491.195 519.835 490.736C518.03 490.278 516.408 489.277 515.186 487.868L510.122 492.3C511.608 494.011 513.442 495.384 515.5 496.326C517.558 497.267 519.792 497.756 522.054 497.759ZM62.434 699.313C65.0897 699.318 67.7043 698.654 70.0378 697.381C72.3713 696.107 74.349 694.266 75.7895 692.026C77.2299 689.786 78.087 687.219 78.282 684.56C78.477 681.901 78.0038 679.235 76.9056 676.808C75.8076 674.38 74.1198 672.268 71.9971 670.665C69.8745 669.063 67.385 668.021 64.7571 667.636C62.1292 667.251 59.447 667.534 56.9565 668.46C54.4661 669.387 52.2473 670.926 50.5035 672.937L55.5667 677.364C56.7895 675.955 58.4117 674.955 60.2162 674.497C62.0208 674.038 63.9217 674.144 65.6648 674.8C67.408 675.455 68.9102 676.629 69.9706 678.165C71.0311 679.701 71.5992 681.525 71.5991 683.394C71.5991 685.263 71.0306 687.087 69.97 688.623C68.9093 690.158 67.4069 691.332 65.6638 691.988C63.9205 692.643 62.0197 692.748 60.2151 692.29C58.4106 691.831 56.7886 690.831 55.5659 689.422L50.5023 693.854C51.9883 695.565 53.8218 696.938 55.8798 697.879C57.9377 698.821 60.1724 699.309 62.434 699.313ZM609.039 801.307C606.705 802.58 604.091 803.245 601.435 803.239C599.173 803.236 596.939 802.747 594.881 801.806C592.823 800.864 590.989 799.492 589.503 797.78L594.567 793.348C595.79 794.757 597.412 795.758 599.216 796.217C601.021 796.675 602.922 796.57 604.665 795.914C606.408 795.259 607.91 794.085 608.971 792.549C610.032 791.014 610.6 789.189 610.6 787.321C610.6 785.452 610.032 783.628 608.972 782.092C607.911 780.556 606.409 779.382 604.666 778.726C602.923 778.071 601.022 777.965 599.217 778.423C597.413 778.882 595.791 779.882 594.568 781.291L589.505 776.864C591.248 774.853 593.467 773.313 595.958 772.387C598.448 771.461 601.13 771.177 603.758 771.563C606.386 771.948 608.876 772.99 610.998 774.592C613.121 776.195 614.809 778.307 615.907 780.734C617.005 783.162 617.478 785.828 617.283 788.487C617.088 791.146 616.231 793.713 614.791 795.953C613.35 798.193 611.372 800.034 609.039 801.307ZM447.257 776.848C450.392 776.848 453.456 775.915 456.062 774.167C458.668 772.419 460.7 769.935 461.9 767.028C463.1 764.121 463.414 760.922 462.803 757.835C462.192 754.749 460.684 751.914 458.468 749.688C456.252 747.462 453.428 745.946 450.354 745.332C447.28 744.717 444.094 745.031 441.198 746.234C438.302 747.438 435.826 749.476 434.084 752.092C432.341 754.708 431.411 757.784 431.409 760.93C431.413 765.15 433.084 769.195 436.055 772.179C439.026 775.163 443.055 776.842 447.257 776.848ZM447.259 751.765C449.065 751.768 450.83 752.309 452.331 753.319C453.831 754.329 455 755.763 455.688 757.439C456.377 759.116 456.555 760.96 456.201 762.738C455.846 764.516 454.974 766.149 453.695 767.43C452.416 768.711 450.788 769.582 449.016 769.934C447.244 770.286 445.407 770.103 443.739 769.407C442.071 768.711 440.645 767.535 439.643 766.026C438.64 764.518 438.106 762.744 438.107 760.931C438.111 758.497 439.078 756.165 440.794 754.446C442.51 752.728 444.835 751.763 447.259 751.765ZM236.553 586.106C239.687 586.107 242.751 585.174 245.357 583.426C247.964 581.678 249.995 579.193 251.195 576.286C252.395 573.379 252.709 570.18 252.098 567.094C251.488 564.007 249.979 561.172 247.763 558.946C245.547 556.721 242.724 555.205 239.65 554.59C236.576 553.975 233.389 554.29 230.493 555.493C227.597 556.696 225.121 558.735 223.379 561.35C221.636 563.966 220.706 567.042 220.705 570.189C220.709 574.408 222.379 578.453 225.35 581.437C228.321 584.422 232.35 586.101 236.553 586.106ZM236.554 561.023C238.361 561.026 240.126 561.567 241.626 562.577C243.126 563.587 244.295 565.021 244.984 566.698C245.672 568.374 245.851 570.218 245.496 571.996C245.141 573.775 244.269 575.407 242.99 576.688C241.711 577.969 240.083 578.841 238.311 579.193C236.539 579.544 234.702 579.361 233.034 578.665C231.366 577.97 229.94 576.793 228.938 575.285C227.935 573.776 227.401 572.003 227.402 570.189C227.406 567.756 228.373 565.423 230.089 563.705C231.805 561.986 234.13 561.022 236.554 561.023ZM367.718 480.726C372.072 480.725 376.366 479.712 380.266 477.768C384.165 475.824 387.564 473.001 390.196 469.52C392.829 466.039 394.623 461.993 395.44 457.7C396.257 453.407 396.074 448.982 394.905 444.772C393.736 440.561 391.613 436.679 388.702 433.429C385.79 430.179 382.17 427.649 378.123 426.037C374.077 424.425 369.713 423.774 365.375 424.136C361.036 424.497 356.839 425.861 353.112 428.121L356.593 433.897C360.661 431.426 365.43 430.378 370.154 430.915C374.879 431.453 379.293 433.547 382.706 436.87C386.12 440.193 388.341 444.557 389.022 449.282C389.704 454.006 388.807 458.823 386.472 462.982C384.138 467.14 380.497 470.405 376.118 472.266C371.74 474.128 366.871 474.48 362.272 473.269C357.673 472.058 353.603 469.351 350.698 465.572C347.793 461.793 346.217 457.154 346.216 452.381L339.472 452.38C339.48 459.898 342.459 467.105 347.754 472.419C353.05 477.734 360.23 480.721 367.718 480.726ZM345.797 444.011C343.482 444.011 341.605 442.126 341.605 439.802C341.605 437.478 343.482 435.594 345.797 435.594C348.112 435.594 349.989 437.479 349.989 439.803C349.989 442.127 348.112 444.011 345.797 444.011ZM41.2825 538.622C37.3833 536.678 33.0891 535.665 28.7354 535.663C21.2476 535.667 14.0671 538.653 8.77063 543.967C3.47412 549.281 0.494446 556.487 0.485718 564.005L7.22992 564.005C7.23145 559.232 8.80798 554.593 11.7133 550.815C14.6185 547.036 18.6888 544.33 23.288 543.119C27.8873 541.909 32.7565 542.262 37.1346 544.123C41.5128 545.985 45.1533 549.25 47.4874 553.409C49.8215 557.568 50.7175 562.386 50.0356 567.11C49.3536 571.834 47.1321 576.198 43.718 579.521C40.304 582.843 35.8898 584.936 31.1654 585.474C26.4409 586.011 21.6722 584.962 17.6045 582.49L14.123 588.266C17.8494 590.526 22.046 591.891 26.3847 592.253C30.7234 592.615 35.0867 591.965 39.1337 590.353C43.1805 588.741 46.8013 586.212 49.713 582.962C52.6245 579.712 54.7481 575.831 55.9176 571.621C57.0872 567.41 57.2709 562.986 56.4547 558.692C55.6384 554.399 53.8441 550.353 51.2121 546.872C48.5801 543.39 45.1816 540.566 41.2825 538.622ZM2.61719 576.583C2.61737 574.259 4.49414 572.375 6.8092 572.375C9.12421 572.375 11.0009 574.26 11.0007 576.584C11.0006 578.908 9.12372 580.792 6.80872 580.792C4.49365 580.792 2.61707 578.907 2.61719 576.583ZM179.858 818.753C175.504 818.751 171.21 817.738 167.311 815.794C163.411 813.849 160.013 811.026 157.381 807.544C154.749 804.062 152.955 800.017 152.138 795.723C151.322 791.43 151.506 787.005 152.675 782.795C153.845 778.585 155.969 774.703 158.88 771.453C161.792 768.204 165.413 765.674 169.459 764.063C173.506 762.451 177.87 761.801 182.208 762.163C186.547 762.525 190.744 763.889 194.47 766.149L190.989 771.925C186.921 769.454 182.152 768.405 177.428 768.942C172.703 769.479 168.289 771.572 164.875 774.895C161.461 778.217 159.24 782.581 158.557 787.306C157.876 792.03 158.772 796.848 161.106 801.006C163.44 805.165 167.08 808.43 171.458 810.292C175.837 812.154 180.706 812.507 185.305 811.296C189.904 810.086 193.975 807.38 196.88 803.601C199.785 799.822 201.362 795.184 201.363 790.41L208.107 790.411C208.099 797.928 205.119 805.135 199.822 810.449C194.526 815.762 187.345 818.749 179.858 818.753ZM201.784 782.04C204.099 782.04 205.976 780.156 205.976 777.832C205.976 775.508 204.099 773.624 201.784 773.624C199.469 773.624 197.592 775.508 197.592 777.832C197.592 780.156 199.469 782.04 201.784 782.04ZM524.627 597.577C528.526 595.633 532.821 594.621 537.174 594.619C544.662 594.624 551.842 597.611 557.138 602.926C562.434 608.24 565.413 615.447 565.42 622.965L558.676 622.964C558.675 618.191 557.099 613.552 554.195 609.773C551.29 605.994 547.22 603.287 542.621 602.076C538.022 600.865 533.152 601.218 528.774 603.079C524.396 604.94 520.755 608.205 518.42 612.363C516.086 616.522 515.189 621.339 515.87 626.064C516.552 630.788 518.773 635.152 522.186 638.475C525.6 641.798 530.014 643.892 534.738 644.43C539.462 644.968 544.231 643.919 548.299 641.448L551.78 647.224C548.053 649.484 543.857 650.848 539.518 651.21C535.179 651.571 530.816 650.92 526.769 649.308C522.723 647.696 519.102 645.166 516.191 641.916C513.28 638.666 511.157 634.784 509.988 630.573C508.819 626.363 508.635 621.938 509.452 617.645C510.269 613.352 512.064 609.306 514.696 605.825C517.329 602.344 520.727 599.521 524.627 597.577ZM563.287 635.543C563.288 633.219 561.411 631.334 559.096 631.334C556.781 631.334 554.904 633.218 554.904 635.542C554.904 637.867 556.78 639.751 559.095 639.751C561.41 639.751 563.287 637.867 563.287 635.543ZM395.179 665.496C395.179 667.82 397.056 669.704 399.371 669.704C401.686 669.705 403.563 667.82 403.563 665.496C403.563 663.172 401.686 661.288 399.371 661.288C397.056 661.288 395.179 663.172 395.179 665.496ZM519.995 733.288C517.679 733.288 515.803 731.404 515.803 729.079C515.803 726.755 517.68 724.871 519.995 724.871C522.31 724.872 524.187 726.756 524.187 729.08C524.186 731.404 522.31 733.288 519.995 733.288ZM462.371 563.158C462.371 565.482 464.247 567.367 466.562 567.367C468.877 567.367 470.754 565.483 470.754 563.159C470.755 560.834 468.878 558.95 466.563 558.95C464.248 558.95 462.371 560.834 462.371 563.158ZM605.52 458.831C603.205 458.831 601.329 456.947 601.329 454.622C601.329 452.298 603.206 450.414 605.521 450.414C607.836 450.414 609.712 452.299 609.712 454.623C609.712 456.947 607.835 458.831 605.52 458.831ZM422.653 834.517C422.653 836.841 424.53 838.725 426.845 838.725C429.16 838.726 431.037 836.842 431.037 834.517C431.037 832.193 429.161 830.309 426.845 830.309C424.53 830.309 422.654 832.193 422.653 834.517ZM55.8036 781.328C53.4886 781.328 51.612 779.444 51.6121 777.12C51.6123 774.796 53.4891 772.912 55.8042 772.912C58.1193 772.912 59.9958 774.796 59.9957 777.12C59.9955 779.445 58.1187 781.329 55.8036 781.328ZM189.043 663.932C189.043 666.256 190.92 668.141 193.235 668.141C195.55 668.141 197.427 666.257 197.427 663.933C197.427 661.608 195.55 659.724 193.235 659.724C190.92 659.724 189.043 661.608 189.043 663.932ZM138.271 579.751C135.956 579.751 134.079 577.867 134.079 575.542C134.079 573.218 135.956 571.334 138.271 571.334C140.586 571.334 142.463 573.219 142.463 575.543C142.463 577.867 140.586 579.751 138.271 579.751ZM280.67 501.121C280.67 503.445 282.546 505.33 284.861 505.33C287.176 505.33 289.053 503.446 289.053 501.122C289.053 498.798 287.177 496.913 284.862 496.913C282.547 496.913 280.67 498.797 280.67 501.121ZM54.2969 461.897C51.9818 461.897 50.1052 460.013 50.1053 457.689C50.1055 455.365 51.9824 453.481 54.2974 453.481C56.6125 453.481 58.4891 455.365 58.489 457.689C58.4888 460.014 56.612 461.898 54.2969 461.897ZM289.814 766.28C289.814 768.605 291.691 770.489 294.006 770.489C296.321 770.489 298.198 768.605 298.198 766.281C298.198 763.957 296.322 762.073 294.007 762.072C291.691 762.072 289.815 763.956 289.814 766.28ZM319.58 689.357C319.579 700.263 317.141 703.826 308.716 705.226L307.595 698.57C312.14 697.815 312.835 697.69 312.836 689.357L312.838 659.732L319.582 659.732L319.58 689.357ZM632.435 561.037C640.86 559.637 643.298 556.075 643.299 545.168L643.301 515.543L636.557 515.543L636.555 545.168C636.554 553.501 635.859 553.626 631.315 554.381L632.435 561.037ZM144.785 441.081L140.032 445.852L152.524 458.394L140.031 470.93L144.782 475.701L157.27 463.16L169.788 475.729L174.535 470.958L162.023 458.395L174.516 445.854L169.764 441.083L157.271 453.624L144.785 441.081ZM378.227 562.165L382.979 557.394L395.465 569.937L407.958 557.396L412.71 562.167L400.217 574.708L412.729 587.271L407.982 592.042L395.465 579.473L382.977 592.014L378.225 587.243L390.718 574.707L378.227 562.165ZM647.132 653.55L642.38 658.321L654.872 670.863L642.378 683.399L647.13 688.17L659.618 675.629L672.136 688.198L676.883 683.427L664.371 670.864L676.864 658.323L672.112 653.552L659.619 666.093L647.132 653.55ZM252.704 842.967C252.704 845.291 254.58 847.176 256.895 847.176C259.211 847.176 261.087 845.292 261.087 842.968C261.088 840.643 259.211 838.759 256.896 838.759C254.581 838.759 252.704 840.643 252.704 842.967ZM686.521 870.609C689.655 870.609 692.719 869.677 695.326 867.929C697.932 866.181 699.963 863.696 701.163 860.789C702.363 857.882 702.678 854.683 702.067 851.596C701.456 848.51 699.947 845.675 697.731 843.449C695.515 841.224 692.692 839.708 689.618 839.093C686.544 838.478 683.357 838.792 680.461 839.996C677.565 841.199 675.089 843.237 673.347 845.853C671.605 848.469 670.674 851.545 670.673 854.692C670.677 858.911 672.347 862.956 675.318 865.94C678.289 868.924 682.318 870.603 686.521 870.609ZM686.522 845.526C688.329 845.529 690.094 846.07 691.594 847.08C693.094 848.09 694.263 849.524 694.952 851.2C695.641 852.877 695.819 854.721 695.464 856.499C695.109 858.277 694.237 859.91 692.958 861.191C691.68 862.472 690.051 863.343 688.279 863.695C686.507 864.047 684.671 863.864 683.002 863.168C681.334 862.473 679.909 861.296 678.906 859.787C677.904 858.279 677.369 856.506 677.37 854.692C677.375 852.258 678.341 849.926 680.057 848.208C681.773 846.489 684.098 845.524 686.522 845.526ZM529.172 915.207C526.838 916.48 524.224 917.144 521.568 917.139C519.306 917.135 517.072 916.647 515.014 915.705C512.956 914.763 511.122 913.391 509.636 911.68L514.7 907.248C515.923 908.657 517.545 909.657 519.349 910.116C521.154 910.574 523.055 910.469 524.798 909.814C526.541 909.158 528.043 907.984 529.104 906.449C530.165 904.913 530.733 903.089 530.733 901.22C530.733 899.351 530.165 897.527 529.105 895.991C528.044 894.455 526.542 893.281 524.799 892.625C523.056 891.97 521.155 891.864 519.35 892.323C517.546 892.781 515.923 893.781 514.701 895.19L509.638 890.763C511.381 888.752 513.6 887.213 516.091 886.286C518.581 885.36 521.263 885.077 523.891 885.462C526.519 885.847 529.009 886.889 531.131 888.491C533.254 890.094 534.942 892.206 536.04 894.634C537.138 897.061 537.611 899.727 537.416 902.386C537.221 905.045 536.364 907.612 534.923 909.852C533.483 912.092 531.505 913.933 529.172 915.207ZM69.552 1116.76C67.2185 1118.03 64.6039 1118.7 61.9481 1118.69C59.6866 1118.69 57.4519 1118.2 55.3939 1117.26C53.336 1116.32 51.5025 1114.94 50.0164 1113.23L55.08 1108.8C56.3027 1110.21 57.9248 1111.21 59.7292 1111.67C61.5338 1112.13 63.4347 1112.02 65.1779 1111.37C66.9211 1110.71 68.4235 1109.54 69.4841 1108C70.5448 1106.47 71.1132 1104.64 71.1133 1102.77C71.1134 1100.9 70.5452 1099.08 69.4848 1097.54C68.4243 1096.01 66.9221 1094.83 65.179 1094.18C63.4359 1093.52 61.535 1093.42 59.7304 1093.88C57.9258 1094.33 56.3036 1095.34 55.0808 1096.74L50.0177 1092.32C51.7614 1090.31 53.9803 1088.77 56.4707 1087.84C58.9611 1086.91 61.6434 1086.63 64.2713 1087.02C66.8992 1087.4 69.3887 1088.44 71.5113 1090.05C73.6339 1091.65 75.3217 1093.76 76.4198 1096.19C77.5179 1098.61 77.9911 1101.28 77.7961 1103.94C77.6011 1106.6 76.7441 1109.17 75.3036 1111.41C73.8632 1113.65 71.8855 1115.49 69.552 1116.76ZM600.949 1222.62C603.605 1222.62 606.22 1221.96 608.553 1220.69C610.887 1219.41 612.864 1217.57 614.305 1215.33C615.745 1213.09 616.602 1210.53 616.797 1207.87C616.992 1205.21 616.519 1202.54 615.421 1200.11C614.323 1197.69 612.635 1195.57 610.512 1193.97C608.39 1192.37 605.9 1191.33 603.272 1190.94C600.644 1190.56 597.962 1190.84 595.472 1191.77C592.981 1192.69 590.763 1194.23 589.019 1196.24L594.082 1200.67C595.305 1199.26 596.927 1198.26 598.731 1197.8C600.536 1197.34 602.437 1197.45 604.18 1198.11C605.923 1198.76 607.425 1199.94 608.486 1201.47C609.546 1203.01 610.114 1204.83 610.114 1206.7C610.114 1208.57 609.546 1210.39 608.485 1211.93C607.425 1213.46 605.922 1214.64 604.179 1215.29C602.436 1215.95 600.535 1216.05 598.73 1215.6C596.926 1215.14 595.304 1214.14 594.081 1212.73L589.017 1217.16C590.504 1218.87 592.337 1220.24 594.395 1221.19C596.453 1222.13 598.688 1222.62 600.949 1222.62ZM455.576 1193.55C452.97 1195.3 449.906 1196.23 446.772 1196.23C442.569 1196.22 438.54 1194.54 435.569 1191.56C432.598 1188.57 430.928 1184.53 430.924 1180.31C430.925 1177.16 431.855 1174.09 433.598 1171.47C435.34 1168.86 437.816 1166.82 440.712 1165.61C443.608 1164.41 446.795 1164.1 449.869 1164.71C452.943 1165.33 455.766 1166.84 457.982 1169.07C460.198 1171.29 461.707 1174.13 462.317 1177.21C462.928 1180.3 462.614 1183.5 461.414 1186.41C460.214 1189.31 458.183 1191.8 455.576 1193.55ZM451.845 1172.7C450.344 1171.69 448.58 1171.15 446.773 1171.14C444.349 1171.14 442.024 1172.11 440.308 1173.83C438.592 1175.54 437.625 1177.88 437.621 1180.31C437.62 1182.12 438.154 1183.9 439.157 1185.41C440.159 1186.91 441.585 1188.09 443.253 1188.79C444.921 1189.48 446.758 1189.67 448.53 1189.31C450.302 1188.96 451.93 1188.09 453.209 1186.81C454.488 1185.53 455.36 1183.9 455.715 1182.12C456.07 1180.34 455.891 1178.5 455.203 1176.82C454.514 1175.14 453.345 1173.71 451.845 1172.7ZM244.871 1002.81C242.265 1004.55 239.201 1005.49 236.067 1005.49C231.864 1005.48 227.835 1003.8 224.864 1000.82C221.893 997.833 220.223 993.788 220.219 989.568C220.22 986.422 221.151 983.346 222.893 980.73C224.635 978.114 227.111 976.076 230.007 974.872C232.903 973.669 236.09 973.355 239.164 973.97C242.238 974.584 245.061 976.1 247.277 978.326C249.493 980.552 251.002 983.387 251.613 986.473C252.224 989.56 251.909 992.759 250.709 995.666C249.509 998.573 247.478 1001.06 244.871 1002.81ZM241.14 981.957C239.64 980.947 237.875 980.406 236.068 980.403C233.644 980.401 231.319 981.366 229.603 983.084C227.887 984.803 226.921 987.135 226.916 989.569C226.915 991.382 227.45 993.156 228.452 994.664C229.455 996.173 230.88 997.349 232.548 998.045C234.217 998.741 236.053 998.924 237.825 998.572C239.597 998.22 241.225 997.349 242.504 996.068C243.783 994.787 244.655 993.154 245.01 991.376C245.365 989.598 245.186 987.754 244.498 986.077C243.809 984.401 242.64 982.967 241.14 981.957ZM379.78 897.148C375.88 899.092 371.586 900.104 367.232 900.105C359.744 900.101 352.564 897.113 347.269 891.799C341.973 886.484 338.994 879.277 338.986 871.76L345.73 871.76C345.731 876.534 347.307 881.173 350.212 884.952C353.117 888.731 357.187 891.437 361.786 892.648C366.385 893.86 371.254 893.507 375.633 891.646C380.011 889.785 383.652 886.52 385.987 882.361C388.321 878.203 389.218 873.385 388.536 868.661C387.855 863.937 385.634 859.572 382.22 856.25C378.807 852.927 374.393 850.833 369.669 850.295C364.944 849.757 360.175 850.806 356.107 853.277L352.627 847.5C356.353 845.241 360.55 843.877 364.889 843.515C369.228 843.154 373.591 843.804 377.637 845.417C381.684 847.029 385.305 849.559 388.216 852.809C391.127 856.059 393.25 859.941 394.419 864.151C395.588 868.362 395.771 872.786 394.954 877.08C394.138 881.373 392.343 885.418 389.71 888.9C387.078 892.381 383.679 895.204 379.78 897.148ZM341.119 859.182C341.119 861.506 342.996 863.39 345.311 863.39C347.626 863.391 349.503 861.507 349.503 859.182C349.503 856.858 347.626 854.974 345.311 854.974C342.996 854.974 341.119 856.858 341.119 859.182ZM28.2496 955.042C32.6033 955.044 36.8975 956.057 40.7966 958.002C44.6958 959.946 48.0942 962.769 50.7263 966.251C53.3582 969.733 55.1525 973.779 55.9688 978.072C56.7851 982.365 56.6013 986.79 55.4318 991C54.2623 995.21 52.1387 999.092 49.2271 1002.34C46.3154 1005.59 42.6947 1008.12 38.6478 1009.73C34.6009 1011.34 30.2376 1011.99 25.8989 1011.63C21.5601 1011.27 17.3636 1009.91 13.6372 1007.65L17.1187 1001.87C21.1863 1004.34 25.955 1005.39 30.6796 1004.85C35.404 1004.32 39.8182 1002.22 43.2322 998.9C46.6462 995.578 48.8677 991.214 49.5497 986.49C50.2317 981.765 49.3356 976.948 47.0016 972.789C44.6675 968.63 41.027 965.365 36.6488 963.503C32.2706 961.641 27.4014 961.288 22.8022 962.499C18.2029 963.709 14.1326 966.415 11.2274 970.194C8.32214 973.973 6.74561 978.611 6.74408 983.385L-0.00012207 983.384C0.00860596 975.867 2.98828 968.66 8.28479 963.346C13.5813 958.033 20.7617 955.046 28.2496 955.042ZM6.32336 991.755C4.0083 991.755 2.13153 993.639 2.13135 995.963C2.13123 998.287 4.00781 1000.17 6.32288 1000.17C8.63788 1000.17 10.5148 998.288 10.5149 995.963C10.5151 993.639 8.63837 991.755 6.32336 991.755ZM166.825 1235.17C170.724 1237.12 175.018 1238.13 179.372 1238.13C186.86 1238.13 194.04 1235.14 199.337 1229.83C204.633 1224.51 207.613 1217.31 207.621 1209.79L200.877 1209.79C200.876 1214.56 199.299 1219.2 196.394 1222.98C193.489 1226.76 189.418 1229.47 184.819 1230.68C180.22 1231.89 175.351 1231.53 170.973 1229.67C166.594 1227.81 162.954 1224.54 160.62 1220.39C158.286 1216.23 157.39 1211.41 158.072 1206.69C158.754 1201.96 160.975 1197.6 164.389 1194.27C167.803 1190.95 172.217 1188.86 176.942 1188.32C181.666 1187.78 186.435 1188.83 190.503 1191.3L193.984 1185.53C190.258 1183.27 186.061 1181.9 181.723 1181.54C177.384 1181.18 173.021 1181.83 168.974 1183.44C164.927 1185.05 161.306 1187.58 158.394 1190.83C155.483 1194.08 153.359 1197.96 152.19 1202.17C151.02 1206.38 150.836 1210.81 151.653 1215.1C152.469 1219.4 154.263 1223.44 156.895 1226.92C159.527 1230.41 162.926 1233.23 166.825 1235.17ZM205.49 1197.21C205.49 1199.54 203.613 1201.42 201.298 1201.42C198.983 1201.42 197.106 1199.54 197.106 1197.21C197.107 1194.89 198.983 1193 201.298 1193C203.614 1193 205.49 1194.89 205.49 1197.21ZM536.689 1014C532.335 1014 528.04 1015.01 524.141 1016.96C520.242 1018.9 516.843 1021.72 514.21 1025.2C511.578 1028.69 509.783 1032.73 508.966 1037.02C508.15 1041.32 508.333 1045.74 509.502 1049.95C510.671 1054.16 512.794 1058.05 515.705 1061.3C518.616 1064.55 522.237 1067.08 526.283 1068.69C530.33 1070.3 534.693 1070.95 539.032 1070.59C543.371 1070.23 547.568 1068.86 551.294 1066.6L547.813 1060.83C543.745 1063.3 538.977 1064.35 534.252 1063.81C529.528 1063.27 525.114 1061.18 521.7 1057.85C518.287 1054.53 516.066 1050.17 515.384 1045.44C514.703 1040.72 515.6 1035.9 517.934 1031.74C520.269 1027.58 523.91 1024.32 528.288 1022.46C532.667 1020.6 537.536 1020.24 542.135 1021.46C546.734 1022.67 550.804 1025.37 553.709 1029.15C556.613 1032.93 558.189 1037.57 558.19 1042.34L564.935 1042.34C564.927 1034.83 561.948 1027.62 556.652 1022.31C551.356 1016.99 544.176 1014 536.689 1014ZM558.61 1050.71C560.925 1050.71 562.802 1052.6 562.802 1054.92C562.801 1057.25 560.925 1059.13 558.609 1059.13C556.294 1059.13 554.418 1057.25 554.418 1054.92C554.418 1052.6 556.295 1050.71 558.61 1050.71ZM398.885 1089.08C396.57 1089.08 394.693 1087.2 394.693 1084.88C394.694 1082.55 396.57 1080.67 398.885 1080.67C401.201 1080.67 403.077 1082.55 403.077 1084.88C403.077 1087.2 401.2 1089.08 398.885 1089.08ZM515.317 1148.46C515.317 1150.78 517.194 1152.67 519.509 1152.67C521.824 1152.67 523.701 1150.78 523.701 1148.46C523.701 1146.14 521.824 1144.25 519.509 1144.25C517.194 1144.25 515.317 1146.13 515.317 1148.46ZM466.077 986.746C463.761 986.746 461.885 984.862 461.885 982.538C461.885 980.213 463.762 978.329 466.077 978.33C468.392 978.33 470.269 980.214 470.269 982.538C470.268 984.862 468.392 986.746 466.077 986.746ZM600.843 874.002C600.843 876.326 602.719 878.21 605.034 878.211C607.349 878.211 609.226 876.327 609.226 874.002C609.227 871.678 607.35 869.794 605.035 869.794C602.72 869.794 600.843 871.678 600.843 874.002ZM426.359 1258.11C424.044 1258.1 422.167 1256.22 422.168 1253.9C422.168 1251.57 424.045 1249.69 426.36 1249.69C428.675 1249.69 430.551 1251.57 430.551 1253.9C430.551 1256.22 428.674 1258.11 426.359 1258.11ZM51.1263 1196.5C51.1262 1198.82 53.0027 1200.71 55.3178 1200.71C57.6329 1200.71 59.5097 1198.82 59.5098 1196.5C59.51 1194.18 57.6334 1192.29 55.3184 1192.29C53.0033 1192.29 51.1265 1194.18 51.1263 1196.5ZM192.749 1087.52C190.434 1087.52 188.557 1085.64 188.557 1083.31C188.558 1080.99 190.434 1079.1 192.75 1079.1C195.065 1079.1 196.941 1080.99 196.941 1083.31C196.941 1085.64 195.064 1087.52 192.749 1087.52ZM133.593 994.922C133.593 997.246 135.47 999.13 137.785 999.131C140.1 999.131 141.977 997.247 141.977 994.922C141.977 992.598 140.101 990.714 137.786 990.714C135.47 990.714 133.594 992.598 133.593 994.922ZM284.375 924.709C282.06 924.709 280.184 922.825 280.184 920.501C280.184 918.177 282.061 916.293 284.376 916.293C286.691 916.293 288.568 918.177 288.567 920.501C288.567 922.825 286.69 924.709 284.375 924.709ZM49.6195 877.068C49.6194 879.393 51.496 881.277 53.811 881.277C56.1262 881.277 58.003 879.393 58.0031 877.069C58.0033 874.745 56.1267 872.86 53.8116 872.86C51.4965 872.86 49.6197 874.744 49.6195 877.068ZM293.52 1189.87C291.205 1189.87 289.328 1187.98 289.329 1185.66C289.329 1183.34 291.206 1181.45 293.521 1181.45C295.836 1181.45 297.712 1183.34 297.712 1185.66C297.712 1187.98 295.835 1189.87 293.52 1189.87ZM308.23 1124.61C316.655 1123.21 319.093 1119.64 319.094 1108.74L319.096 1079.11L312.352 1079.11L312.35 1108.74C312.349 1117.07 311.654 1117.19 307.11 1117.95L308.23 1124.61ZM642.813 964.548C642.813 975.454 640.374 979.016 631.949 980.417L630.829 973.761C635.373 973.006 636.069 972.881 636.069 964.547L636.071 934.923L642.815 934.923L642.813 964.548ZM139.546 865.231L144.299 860.461L156.785 873.003L169.278 860.462L174.03 865.234L161.537 877.774L174.049 890.338L169.302 895.108L156.785 882.54L144.297 895.081L139.545 890.31L152.038 877.774L139.546 865.231ZM382.493 976.774L377.741 981.544L390.232 994.087L377.739 1006.62L382.491 1011.39L394.979 998.853L407.496 1011.42L412.244 1006.65L399.731 994.087L412.224 981.546L407.473 976.775L394.979 989.316L382.493 976.774ZM641.894 1077.7L646.647 1072.93L659.133 1085.47L671.626 1072.93L676.378 1077.7L663.885 1090.24L676.397 1102.81L671.65 1107.58L659.132 1095.01L646.644 1107.55L641.893 1102.78L654.386 1090.24L641.894 1077.7Z" fill="url(#paint0_linear)"/>
<defs>
<linearGradient id="paint0_linear" x1="864.856" y1="629" x2="280.856" y2="629" gradientUnits="userSpaceOnUse">
<stop stop-color="white" stop-opacity="0"/>
<stop offset="0.572917" stop-color="#C4E4E1" stop-opacity="0.48"/>
<stop offset="1" stop-color="#C4E4E1"/>
</linearGradient>
</defs>
</svg>
