<svg width="40" height="40" viewBox="0 0 40 40" fill="none" xmlns="http://www.w3.org/2000/svg">
<path d="M21.7857 8.89756C23.4255 9.04175 24.9952 9.62208 26.3283 10.577C30.5175 13.7242 32.7836 18.5408 31.6455 23.3405C30.9863 22.9543 30.3136 22.5546 29.6069 22.1179L30.4597 32.2448L40.0001 28.0631C39.0589 27.529 38.1892 27.0554 37.35 26.5785C38.702 22.6907 38.6842 18.4651 37.2994 14.5886C35.9146 10.7121 33.2443 7.41254 29.7224 5.22636C26.9297 3.15732 21.0043 2.26722 21.0485 2.46875L25.7031 5.90148L21.7857 8.89756Z" fill="white"/>
<path d="M34.0476 32.2449C34.0476 32.2449 32.2537 35.2343 27.8606 37.5519C24.1946 39.49 19.9737 40.1465 15.8829 39.4149C11.792 38.6832 8.07134 36.6063 5.3246 33.5213C4.5024 34.0083 3.6428 34.5289 2.70508 35.0563L3.76512 24.795L13.0778 29.0608C12.3372 29.4605 11.6543 29.84 10.9883 30.2128C12.8253 31.8947 15.1465 32.9692 17.6295 33.287C20.1125 33.6048 22.6339 33.1502 24.8436 31.9863C26.3793 31.1701 28.6726 28.7887 28.6726 28.7887L29.3012 34.23L34.0476 32.2449Z" fill="white"/>
<path d="M15.0857 0C15.1299 1.07483 15.1741 2.06232 15.2217 3.02295C11.178 3.96858 7.57436 6.23295 4.99172 9.45097C2.40907 12.669 0.997958 16.6531 0.985881 20.761C0.955303 25.1274 2.25997 27.5861 2.18183 27.2267L2.95646 22.6083L8.30421 25.3189C8.30421 25.3189 7.38689 22.3765 7.38689 20.761C7.38824 18.2829 8.1716 15.8671 9.62778 13.8501C11.084 11.8331 13.1404 10.3155 15.5104 9.50886C15.5308 10.2646 15.5478 11.0371 15.5546 11.86L23.7495 5.75368L15.0857 0Z" fill="white"/>
</svg>
