<svg width="104" height="104" viewBox="0 0 104 104" fill="none" xmlns="http://www.w3.org/2000/svg">
<circle cx="52.3517" cy="52.3519" r="51.4815" fill="#58C2B4"/>
<path fill-rule="evenodd" clip-rule="evenodd" d="M51.6464 91.4182C45.5303 91.416 39.4975 90.0154 34.0197 87.3259C28.5419 84.6364 23.7676 80.7309 20.0698 75.9148C16.372 71.0986 13.851 65.5022 12.7038 59.5631C11.5567 53.624 11.8145 47.503 13.4571 41.6788C15.0997 35.8545 18.0826 30.4847 22.1726 25.9891C26.2626 21.4935 31.3489 17.9939 37.0339 15.764C42.7189 13.534 48.8485 12.634 54.9437 13.1345C61.0388 13.6349 66.9343 15.5221 72.1694 18.6486L67.2791 26.6388C61.5645 23.2201 54.8653 21.7692 48.2283 22.5129C41.5913 23.2565 35.3904 26.1527 30.5946 30.7491C25.7989 35.3454 22.6784 41.3828 21.7208 47.918C20.7631 54.4531 22.0224 61.1178 25.3016 66.8705C28.5809 72.6233 33.6955 77.1401 39.8463 79.715C45.997 82.29 52.8373 82.7781 59.2983 81.1031C65.7593 79.4281 71.4771 75.6843 75.5581 70.4568C79.6391 65.2292 81.8534 58.8124 81.8551 52.2091H91.3295C91.3179 62.6082 87.1326 72.5779 79.6925 79.9291C72.2523 87.2804 62.1654 91.4125 51.6464 91.4182ZM51.4252 74.1825C47.0219 74.1825 42.7175 72.8917 39.0563 70.4734C35.395 68.0552 32.5413 64.6179 30.8559 60.5964C29.1705 56.5748 28.7292 52.1495 29.5877 47.88C30.4462 43.6105 32.566 39.6885 35.679 36.6099C38.7921 33.5313 42.7586 31.4344 47.0771 30.5843C51.3955 29.7342 55.872 30.169 59.9405 31.8339C64.009 33.4987 67.4868 36.3188 69.9341 39.9376C72.3815 43.5563 73.6885 47.8112 73.69 52.1643C73.6842 58.0009 71.3368 63.5969 67.1628 67.7246C62.9888 71.8524 57.3291 74.1748 51.4252 74.1825ZM51.4252 39.4836C48.8875 39.4879 46.408 40.2358 44.3001 41.6329C42.1923 43.03 40.5507 45.0135 39.5829 47.3327C38.6151 49.6519 38.3644 52.2026 38.8627 54.6626C39.361 57.1226 40.5858 59.3813 42.3822 61.1533C44.1787 62.9253 46.4663 64.131 48.9557 64.618C51.4452 65.105 54.0248 64.8514 56.3685 63.8894C58.7123 62.9273 60.7149 61.2999 62.1233 59.213C63.5317 57.126 64.2826 54.6731 64.2812 52.1643C64.2754 48.7979 62.9181 45.5715 60.5076 43.1938C58.097 40.8162 54.8304 39.4817 51.4252 39.4836ZM88.3345 34.8095C88.3345 38.0246 85.6981 40.631 82.4458 40.631C79.1936 40.631 76.5572 38.0246 76.5572 34.8095C76.5572 31.5943 79.1936 28.9879 82.4458 28.9879C85.6981 28.9879 88.3345 31.5943 88.3345 34.8095Z" fill="white"/>
</svg>
