<svg width="104" height="103" viewBox="0 0 104 103" fill="none" xmlns="http://www.w3.org/2000/svg">
<circle cx="52.3517" cy="51.497" r="51.4815" fill="#97CA40"/>
<path fill-rule="evenodd" clip-rule="evenodd" d="M80.74 27.1012C80.74 29.9185 78.4298 32.2024 75.58 32.2024C72.7301 32.2024 70.4199 29.9185 70.4199 27.1012C70.4199 24.2839 72.7301 22 75.58 22C78.4298 22 80.74 24.2839 80.74 27.1012ZM20.5602 78.5581C17.291 78.5644 14.0725 77.7589 11.2001 76.2155C8.32765 74.6722 5.89327 72.4404 4.12028 69.725C2.34729 67.0096 1.29248 63.8974 1.05262 60.6742C0.81276 57.4509 1.39554 54.2197 2.74748 51.277C4.09942 48.3343 6.17723 45.7743 8.79027 43.832C11.4033 41.8897 14.4679 40.6273 17.7029 40.1605C20.9379 39.6937 24.2396 40.0375 27.3052 41.1604C30.3708 42.2833 33.1021 44.1492 35.2485 46.5871L29.0155 51.9535C27.5103 50.2456 25.5135 49.0327 23.2921 48.477C21.0708 47.9213 18.7307 48.0493 16.5849 48.8438C14.4391 49.6383 12.5898 51.0615 11.2843 52.9231C9.97876 54.7847 9.27923 56.996 9.27923 59.2613C9.27923 61.5265 9.97876 63.7378 11.2843 65.5994C12.5898 67.461 14.4391 68.8842 16.5849 69.6788C18.7307 70.4733 21.0708 70.6012 23.2921 70.0455C25.5135 69.4898 27.5103 68.2769 29.0155 66.569L35.2485 71.9417C33.4189 74.0161 31.1618 75.6797 28.6284 76.8209C26.0951 77.9621 23.3442 78.5544 20.5602 78.5581ZM75.8731 78.552C72.0147 78.552 68.2429 77.421 65.0347 75.302C61.8265 73.1829 59.3258 70.171 57.849 66.6471C56.3722 63.1231 55.9854 59.2454 56.7377 55.5042C57.49 51.763 59.3475 48.3263 62.0753 45.6286C64.8032 42.931 68.2789 41.0935 72.063 40.3486C75.8471 39.6037 79.7697 39.9847 83.3347 41.4436C86.8998 42.9024 89.9472 45.3736 92.0918 48.5445C94.2363 51.7155 95.3816 55.4439 95.3829 59.2583C95.3778 64.3727 93.3209 69.2763 89.6634 72.8933C86.0059 76.5103 81.0464 78.5453 75.8731 78.552ZM75.8731 48.1468C73.6494 48.1505 71.4767 48.8059 69.6297 50.0301C67.7826 51.2543 66.3442 52.9924 65.4961 55.0246C64.6481 57.0568 64.4285 59.292 64.8651 61.4475C65.3017 63.6031 66.3749 65.5824 67.9491 67.1351C69.5233 68.6878 71.5278 69.7443 73.7092 70.171C75.8906 70.5978 78.151 70.3756 80.2048 69.5326C82.2585 68.6896 84.0133 67.2636 85.2474 65.4348C86.4816 63.6061 87.1396 61.4567 87.1383 59.2583C87.1332 56.3085 85.9439 53.4813 83.8316 51.3979C81.7194 49.3144 78.8569 48.1451 75.8731 48.1468ZM19.58 32.2024C22.4298 32.2024 24.74 29.9185 24.74 27.1012C24.74 24.2839 22.4298 22 19.58 22C16.7301 22 14.4199 24.2839 14.4199 27.1012C14.4199 29.9185 16.7301 32.2024 19.58 32.2024ZM40.5662 60.6914C40.5662 73.9116 43.5678 78.23 53.9389 79.9283L55.3183 71.8598C49.724 70.9443 48.8683 70.7928 48.8683 60.6914V24.7808H40.5662V60.6914Z" fill="white"/>
</svg>
