<svg xmlns="http://www.w3.org/2000/svg" viewBox="0 0 500 500"><g id="freepik--Floor--inject-46"><path d="M409,255.09c-88.41-51-231.28-51-319.12,0S2.55,388.9,91,439.94s231.28,51.05,319.12,0S497.45,306.14,409,255.09Z" style="fill:#f5f5f5"></path></g><g id="freepik--Shadows--inject-46"><path d="M150.45,387.07,80.81,427.28a4,4,0,0,1-4,0L26.56,398.41a1,1,0,0,1,0-1.74l69.68-39.42a4,4,0,0,1,3.92,0l50.28,28.09A1,1,0,0,1,150.45,387.07Z" style="fill:#e6e6e6"></path><path d="M175.45,404.25l44,25.43a2.52,2.52,0,0,0,2.52,0l31.79-18.26a.63.63,0,0,0,0-1.1l-44.06-24.93a2.52,2.52,0,0,0-2.48,0l-31.79,17.77A.63.63,0,0,0,175.45,404.25Z" style="fill:#e6e6e6"></path><path d="M209.81,432.35l55.88,32.27a3.21,3.21,0,0,0,3.2,0l40.33-23.18a.8.8,0,0,0,0-1.39l-55.91-31.64a3.24,3.24,0,0,0-3.15,0L209.82,431A.8.8,0,0,0,209.81,432.35Z" style="fill:#e6e6e6"></path><path d="M377.5,255c-24-13.58-62.89-13.58-86.78,0S267,290.53,291,304.1s62.9,13.57,86.79,0S401.55,268.52,377.5,255Z" style="fill:#e6e6e6"></path><path d="M449.85,339.48c-5.83-3.36-15.24-3.36-21,0s-5.76,8.82.07,12.18,15.24,3.37,21,0S455.68,342.85,449.85,339.48Z" style="fill:#e6e6e6"></path><path d="M414.66,364.12c-16.56-9.35-39.79-12.57-60.91-9.68a7.51,7.51,0,0,1-8.48-7.05c-.87-12.63-9.76-25.1-26.73-34.74-35.92-20.41-94.34-20.41-130.5,0s-36.34,53.5-.42,73.91c29.76,16.92,75,19.8,110.15,8.69a7.38,7.38,0,0,1,9,3.84c2.81,6.13,8.45,11.92,16.95,16.72,25.28,14.27,66.14,14.27,91.26,0S439.94,378.39,414.66,364.12Z" style="fill:#e6e6e6"></path></g><g id="freepik--Clouds--inject-46"><path d="M426.57,46.18c-4.2-2.42-7.75-1.24-8.87,2.53a12.57,12.57,0,0,0-4.54-5.05c-3.29-1.89-6-.37-6,3.41V48.8l-4.41-2.54c-2.31-1.34-4.18-.26-4.18,2.38a9.15,9.15,0,0,0,4.15,7.2l37.4,21.59c2.3,1.33,4.18.27,4.18-2.38a9.14,9.14,0,0,0-4.16-7.2l-4.41-2.55V62.1C435.78,56.25,431.66,49.12,426.57,46.18Z" style="fill:#e6e6e6"></path><path d="M389.92,60.33c-3-1.74-5.56-.89-6.37,1.81a9,9,0,0,0-3.25-3.62C377.94,57.16,376,58.25,376,61v1.25l-3.17-1.83c-1.66-1-3-.19-3,1.71a6.59,6.59,0,0,0,3,5.17l26.84,15.5c1.65.95,3,.19,3-1.71a6.56,6.56,0,0,0-3-5.17l-3.17-1.83V71.76A14.55,14.55,0,0,0,389.92,60.33Z" style="fill:#e6e6e6"></path></g><g id="freepik--Plant--inject-46"><path d="M453.48,320.13l-14.11.41-14.11-.41c-.6,9.52,1.26,19.23,3.82,24h0a6.4,6.4,0,0,0,2.79,2.84,16.53,16.53,0,0,0,15,0A6.26,6.26,0,0,0,449.7,344C452.24,339.26,454.08,329.61,453.48,320.13Z" style="fill:#fff"></path><path d="M449.31,314.35c5.53,3.19,5.56,8.36.07,11.55s-14.42,3.2-19.95,0-5.56-8.36-.07-11.55S443.79,311.16,449.31,314.35Z" style="fill:#ebebeb"></path><path d="M447.13,315.62c4.31,2.49,4.33,6.52.05,9a17.16,17.16,0,0,1-15.57,0c-4.31-2.49-4.33-6.52-.05-9A17.16,17.16,0,0,1,447.13,315.62Z" style="fill:#e0e0e0"></path><g style="opacity:0.15"><path d="M447.13,315.62c4.31,2.49,4.33,6.52.05,9a17.16,17.16,0,0,1-15.57,0c-4.31-2.49-4.33-6.52-.05-9A17.16,17.16,0,0,1,447.13,315.62Z"></path></g><path d="M462.56,259.93c-31.79,10.41-32.07,31.68-24.91,46.82,1.81,3.07,7.28,4.72,12-14.12l-8.35,1.07,9.73-4.93,2.53-7.56-8.11.61,10.29-4.33A154,154,0,0,1,462.56,259.93Z" style="fill:#69D8D8"></path><path d="M462.56,259.93c-31.79,10.41-32.07,31.68-24.91,46.82,1.81,3.07,7.28,4.72,12-14.12l-8.35,1.07,9.73-4.93,2.53-7.56-8.11.61,10.29-4.33A154,154,0,0,1,462.56,259.93Z" style="opacity:0.2"></path><path d="M462.56,259.93c-31.79,10.41-32.07,31.68-24.91,46.82,1.81,3.07,7.28,4.72,12-14.12l-8.35,1.07,9.73-4.93,2.53-7.56-8.11.61,10.29-4.33A154,154,0,0,1,462.56,259.93Z" style="fill:#fff;opacity:0.2"></path><path d="M453.57,265.25C436.81,278,435.29,292.56,440,307.79,438.36,294.38,436.54,280.82,453.57,265.25Z" style="fill:#fff"></path><path d="M408.72,281.54c31.34,4.41,35.14,24.17,31,39.46-1.17,3.16-6,5.6-13.56-11.15l8-.39-9.89-3-3.6-6.61,7.65-.79L418,296.76A143.8,143.8,0,0,0,408.72,281.54Z" style="fill:#69D8D8"></path><path d="M408.72,281.54c31.34,4.41,35.14,24.17,31,39.46-1.17,3.16-6,5.6-13.56-11.15l8-.39-9.89-3-3.6-6.61,7.65-.79L418,296.76A143.8,143.8,0,0,0,408.72,281.54Z" style="fill:#fff;opacity:0.2"></path><path d="M418,285c17.72,9.06,21.56,22.39,19.68,37.36C437,309.6,436.42,296.67,418,285Z" style="fill:#fff"></path><path d="M471.73,288.94c-28.73.47-34.37,17.85-32.33,32.1.7,3,4.77,5.72,13.46-8.53l-7.12-1.24,9.24-1.58,4-5.56-6.81-1.57,9.55-.93A131.4,131.4,0,0,1,471.73,288.94Z" style="fill:#69D8D8"></path><path d="M463,291c-17,6.19-21.94,17.78-21.92,31.48C443.11,311.07,445.07,299.48,463,291Z" style="fill:#fff"></path><path d="M471.73,288.94c-28.73.47-34.37,17.85-32.33,32.1.7,3,4.77,5.72,13.46-8.53l-7.12-1.24,9.24-1.58,4-5.56-6.81-1.57,9.55-.93A131.4,131.4,0,0,1,471.73,288.94Z" style="fill:#fff;opacity:0.2"></path></g><g id="freepik--speech-bubbles--inject-46"><path d="M128.32,76.8l22.5-12.91c2-1.13,6.63.4,6.63,3.57a1.46,1.46,0,0,0-2.19-1.27L132.76,79.1a4.28,4.28,0,0,0-1.71,1.84l-4.37-2.48A4.36,4.36,0,0,1,128.32,76.8Z" style="fill:#69D8D8"></path><path d="M131.05,80.94a4.3,4.3,0,0,0-.5,2v16.7a1.46,1.46,0,0,0,2.19,1.27,4.33,4.33,0,0,1-6.63-3.57V80.61a4.4,4.4,0,0,1,.57-2.15Z" style="fill:#69D8D8"></path><path d="M128.32,76.8l22.5-12.91c2-1.13,6.63.4,6.63,3.57a1.46,1.46,0,0,0-2.19-1.27L132.76,79.1a4.28,4.28,0,0,0-1.71,1.84l-4.37-2.48A4.36,4.36,0,0,1,128.32,76.8Z" style="fill:#fff;opacity:0.4"></path><path d="M131.05,80.94a4.3,4.3,0,0,0-.5,2v16.7a1.46,1.46,0,0,0,2.19,1.27,4.33,4.33,0,0,1-6.63-3.57V80.61a4.4,4.4,0,0,1,.57-2.15Z" style="fill:#fff;opacity:0.2"></path><path d="M155.26,66.19,132.76,79.1a4.39,4.39,0,0,0-2.21,3.81v16.7a1.46,1.46,0,0,0,2.19,1.27L155.24,88a4.39,4.39,0,0,0,2.21-3.81V67.46A1.46,1.46,0,0,0,155.26,66.19Z" style="fill:#69D8D8"></path><path d="M125.14,91.43l5.41,1V85.51L125,90.8A.37.37,0,0,0,125.14,91.43Z" style="fill:#69D8D8"></path><path d="M130.55,85.51,126.11,83l-5.59,5.35a.38.38,0,0,0,.07.6L125,91.38Z" style="fill:#69D8D8"></path><path d="M130.55,85.51,126.11,83l-5.59,5.35a.38.38,0,0,0,.07.6L125,91.38Z" style="fill:#fff;opacity:0.2"></path><path d="M147.45,75.69a2.62,2.62,0,0,1,2.61-.27c1.45.82,1.46,3.51,0,6l-.84,1.46-5.21,9-5.24-3-.84-.49c-1.45-.82-1.46-3.5,0-6a7.4,7.4,0,0,1,2.61-2.75,2.62,2.62,0,0,1,2.61-.27l.85.48.84-1.45A7.4,7.4,0,0,1,147.45,75.69Z" style="fill:#fff"></path><path d="M417.42,188.31l22.5-12.91c2-1.13,6.64.4,6.64,3.57a1.46,1.46,0,0,0-2.19-1.27l-22.5,12.91a4.3,4.3,0,0,0-1.72,1.84L415.79,190A4.33,4.33,0,0,1,417.42,188.31Z" style="fill:#69D8D8"></path><path d="M420.15,192.45a4.42,4.42,0,0,0-.49,2v16.7a1.46,1.46,0,0,0,2.19,1.27,4.33,4.33,0,0,1-6.63-3.57v-16.7a4.29,4.29,0,0,1,.57-2.15Z" style="fill:#69D8D8"></path><path d="M417.42,188.31l22.5-12.91c2-1.13,6.64.4,6.64,3.57a1.46,1.46,0,0,0-2.19-1.27l-22.5,12.91a4.3,4.3,0,0,0-1.72,1.84L415.79,190A4.33,4.33,0,0,1,417.42,188.31Z" style="fill:#fff;opacity:0.4"></path><path d="M420.15,192.45a4.42,4.42,0,0,0-.49,2v16.7a1.46,1.46,0,0,0,2.19,1.27,4.33,4.33,0,0,1-6.63-3.57v-16.7a4.29,4.29,0,0,1,.57-2.15Z" style="fill:#fff;opacity:0.2"></path><path d="M444.37,177.7l-22.5,12.91a4.37,4.37,0,0,0-2.21,3.81v16.7a1.46,1.46,0,0,0,2.19,1.27l22.49-12.85a4.39,4.39,0,0,0,2.22-3.81V179A1.46,1.46,0,0,0,444.37,177.7Z" style="fill:#69D8D8"></path><path d="M414.24,202.94l5.41,1V197l-5.59,5.29A.37.37,0,0,0,414.24,202.94Z" style="fill:#69D8D8"></path><path d="M419.65,197l-4.43-2.55-5.59,5.35a.38.38,0,0,0,.07.6l4.42,2.47Z" style="fill:#69D8D8"></path><path d="M419.65,197l-4.43-2.55-5.59,5.35a.38.38,0,0,0,.07.6l4.42,2.47Z" style="fill:#fff;opacity:0.2"></path><path d="M436.55,187.2a2.62,2.62,0,0,1,2.61-.27c1.45.82,1.46,3.51,0,6l-.84,1.46-5.2,9-5.24-3-.85-.49c-1.45-.82-1.46-3.51,0-6a7.42,7.42,0,0,1,2.6-2.74,2.64,2.64,0,0,1,2.62-.27l.85.48.83-1.45A7.48,7.48,0,0,1,436.55,187.2Z" style="fill:#fff"></path><path d="M282.7,73.13,260.2,60.22c-2-1.13-6.64.4-6.64,3.57a1.46,1.46,0,0,1,2.19-1.27l22.5,12.91A4.33,4.33,0,0,1,280,77.27l4.37-2.48A4.4,4.4,0,0,0,282.7,73.13Z" style="fill:#69D8D8"></path><path d="M280,77.27a4.3,4.3,0,0,1,.5,2V96a1.47,1.47,0,0,1-2.19,1.27,4.34,4.34,0,0,0,6.63-3.57V76.94a4.32,4.32,0,0,0-.57-2.15Z" style="fill:#69D8D8"></path><path d="M282.7,73.13,260.2,60.22c-2-1.13-6.64.4-6.64,3.57a1.46,1.46,0,0,1,2.19-1.27l22.5,12.91A4.33,4.33,0,0,1,280,77.27l4.37-2.48A4.4,4.4,0,0,0,282.7,73.13Z" style="fill:#fff;opacity:0.4"></path><path d="M280,77.27a4.3,4.3,0,0,1,.5,2V96a1.47,1.47,0,0,1-2.19,1.27,4.34,4.34,0,0,0,6.63-3.57V76.94a4.32,4.32,0,0,0-.57-2.15Z" style="fill:#fff;opacity:0.2"></path><path d="M255.75,62.52l22.5,12.91a4.39,4.39,0,0,1,2.21,3.81V96a1.47,1.47,0,0,1-2.19,1.27l-22.5-12.86a4.37,4.37,0,0,1-2.21-3.81V63.79A1.46,1.46,0,0,1,255.75,62.52Z" style="fill:#69D8D8"></path><path d="M285.87,87.76l-5.41,1V81.84l5.6,5.29A.37.37,0,0,1,285.87,87.76Z" style="fill:#69D8D8"></path><path d="M280.46,81.84l4.44-2.54,5.59,5.35a.37.37,0,0,1-.07.59L286,87.72Z" style="fill:#69D8D8"></path><path d="M280.46,81.84l4.44-2.54,5.59,5.35a.37.37,0,0,1-.07.59L286,87.72Z" style="fill:#fff;opacity:0.2"></path><path d="M263.57,72a2.63,2.63,0,0,0-2.62-.26c-1.45.82-1.45,3.5,0,6l.84,1.46,5.2,9,5.24-3,.84-.48c1.46-.83,1.46-3.51,0-6a7.53,7.53,0,0,0-2.6-2.75,2.64,2.64,0,0,0-2.62-.27l-.85.48-.84-1.45A7.53,7.53,0,0,0,263.57,72Z" style="fill:#fff"></path></g><g id="freepik--character-2--inject-46"><path d="M319.13,114.57h0a10.15,10.15,0,0,0-7.28,8l-4.12,23.48-19,22.06-8.08.16a2.76,2.76,0,0,0-2.43,1.57L277.14,172a3.17,3.17,0,0,0,1.45,4.22l1.56.78a3.19,3.19,0,0,0,3.7-.65l1.46-1.52h5.1l-.84,3.35a1.28,1.28,0,0,0,2.34.95l1.71-2.95,1.54-4.63,17.59-17.08a16.58,16.58,0,0,0,4.74-8.84l4.92-26.39Z" style="fill:#b55d5c"></path><path d="M326.37,117.81a8.67,8.67,0,0,1-13.21-4.88,7.35,7.35,0,0,1-7.38-10.41c-3.69-1.38-5.53-7.16-3.44-10.49a4.58,4.58,0,0,1,1.55-8.32,7.29,7.29,0,0,1,6.27-11.31,9.48,9.48,0,0,1,6.27-5.57A8.24,8.24,0,0,1,323.92,69a7.23,7.23,0,0,1,12.22,1.75,7,7,0,0,1,8.19,9.37,9.24,9.24,0,0,1,4.57,5.29,9.45,9.45,0,0,1-.57,7,8,8,0,0,1,4.13,12.16,7.73,7.73,0,0,1-2,8.4,7.42,7.42,0,0,1-8.42.53,15.45,15.45,0,0,1-6.83,4.89A12.66,12.66,0,0,1,326.37,117.81Z" style="fill:#263238"></path><path d="M371.7,284a2.84,2.84,0,0,0,5.38-.25,8.71,8.71,0,0,0,.49-3.25c.08-3.67,0-7.35-.26-11a37.31,37.31,0,0,1-7.69.8c.4,3.39.79,6.77,1.18,10.16A9.54,9.54,0,0,0,371.7,284Z" style="fill:#b55d5c"></path><path d="M379.72,278.73c-1-3.06-2-6.19-1.78-9.38l-.63.15c.25,3.66.34,7.34.26,11a8.71,8.71,0,0,1-.49,3.25,2.84,2.84,0,0,1-5.38.25,9.54,9.54,0,0,1-.9-3.55c-.39-3.39-.78-6.77-1.18-10.16h-.81c.69,3.81.2,7.71-.05,11.56s-.2,7.88,1.46,11.37a5.21,5.21,0,0,0,1.88,2.33,3.9,3.9,0,0,0,3,.27,6.82,6.82,0,0,0,2.66-1.64,11,11,0,0,0,3.21-6C381.55,285,380.67,281.79,379.72,278.73Z" style="fill:#455a64"></path><path d="M339.67,275.8l.63,3.79a9.43,9.43,0,0,0,4-3c.08-2.91,0-5.9,0-7.36-.8,1.77-2.55,3-3.64,4.59A9,9,0,0,0,339.67,275.8Z" style="fill:#455a64"></path><path d="M338.7,279.18l1.6.41-.63-3.79C339.27,276.89,339,278.05,338.7,279.18Z" style="fill:#455a64"></path><path d="M344.43,265a15.35,15.35,0,0,0-1.24-2.89,8.36,8.36,0,0,1-1.39,4.36c-1.08,1.74-2.53,3.25-3.57,5-1.26,2.15-1.92,4.68-3.58,6.55a7.84,7.84,0,0,1-6.54,2.55,3.47,3.47,0,0,1-2.4-1.08,1.85,1.85,0,0,1-.39-1.14,17.84,17.84,0,0,1-2.7,2.36c-1.1.77-2.41,1.57-2.59,2.89a2.84,2.84,0,0,0,1.57,2.68,7.45,7.45,0,0,0,3.2.72,20.5,20.5,0,0,0,7-.6,9.8,9.8,0,0,0,5.62-4.08,12.93,12.93,0,0,0,1.25-3.16c.31-1.13.57-2.29,1-3.38a9,9,0,0,1,1-2c1.09-1.63,2.84-2.82,3.64-4.59,0-.09.09-.18.13-.28A6.22,6.22,0,0,0,344.43,265Z" style="fill:#455a64"></path><path d="M328.11,280.59a7.84,7.84,0,0,0,6.54-2.55c1.66-1.87,2.32-4.4,3.58-6.55,1-1.77,2.49-3.28,3.57-5a8.36,8.36,0,0,0,1.39-4.36l-.39-.73c-3.27.58-6.85.78-10,1.85a64.28,64.28,0,0,1-3.69,9.62,24.2,24.2,0,0,1-3.8,5.52,1.85,1.85,0,0,0,.39,1.14A3.47,3.47,0,0,0,328.11,280.59Z" style="fill:#b55d5c"></path><path d="M339.67,275.8l.63,3.79a9.43,9.43,0,0,0,4-3c.08-2.91,0-5.9,0-7.36-.8,1.77-2.55,3-3.64,4.59A9,9,0,0,0,339.67,275.8Z" style="fill:#fff;opacity:0.24"></path><path d="M338.7,279.18l1.6.41-.63-3.79C339.27,276.89,339,278.05,338.7,279.18Z" style="fill:#fff;opacity:0.1"></path><path d="M344.43,265a15.35,15.35,0,0,0-1.24-2.89,8.36,8.36,0,0,1-1.39,4.36c-1.08,1.74-2.53,3.25-3.57,5-1.26,2.15-1.92,4.68-3.58,6.55a7.84,7.84,0,0,1-6.54,2.55,3.47,3.47,0,0,1-2.4-1.08,1.85,1.85,0,0,1-.39-1.14,17.84,17.84,0,0,1-2.7,2.36c-1.1.77-2.41,1.57-2.59,2.89a2.84,2.84,0,0,0,1.57,2.68,7.45,7.45,0,0,0,3.2.72,20.5,20.5,0,0,0,7-.6,9.8,9.8,0,0,0,5.62-4.08,12.93,12.93,0,0,0,1.25-3.16c.31-1.13.57-2.29,1-3.38a9,9,0,0,1,1-2c1.09-1.63,2.84-2.82,3.64-4.59,0-.09.09-.18.13-.28A6.22,6.22,0,0,0,344.43,265Z" style="fill:#455a64"></path><path d="M327.21,149.7q-.25,4.16-.53,8.31c-6.25,25.76-1.07,59-1.07,59l6.65,46.81a8,8,0,0,0,11.12-2.41c1.07-11.54,0-29.55-1.63-43.72,2.15-11.17,4.87-34.06,4.87-34.06l7.25,36.24L368.17,271c4.83,2,9.12.65,10.52-1.23-1.13-29.25-4-41.43-8.5-55,.66-17.3,1.6-30,1.45-39.93a47.86,47.86,0,0,0-13.39-32.33h0Z" style="fill:#37474f"></path><path d="M349.05,108.59l-9.77,1.48a18.68,18.68,0,0,1-12.77,10.68,5.16,5.16,0,0,1-3.45-.08,4,4,0,0,1-1.93-4,8.56,8.56,0,0,1,.78-2.76l-2.78.67a31.19,31.19,0,0,0-5,12.82,13.45,13.45,0,0,0,.16,6.12,7.39,7.39,0,0,0,1.51,2.69,25.62,25.62,0,0,1,4.37,6.54c2,4.48,4.9,10.41,5.49,11.87a9.78,9.78,0,0,0,4.51,5.24,12.6,12.6,0,0,0,6.42.84,44.93,44.93,0,0,0,16.09-4.19c2.91-1.38,5.84-3.25,7.14-6.19,1.22-2.74.82-5.92.06-8.82S349.05,108.59,349.05,108.59Z" style="fill:#455a64"></path><path d="M323.06,120.67a5.16,5.16,0,0,0,3.45.08,18.68,18.68,0,0,0,12.77-10.68l-3.29.49L333.5,100.2l-10.16,7,1.44,6-2.87.69a8.56,8.56,0,0,0-.78,2.76A4,4,0,0,0,323.06,120.67Z" style="fill:#b55d5c"></path><path d="M332.78,100.69c-1.78,7.32-3.84,8-8.67,9.74l-.77-3.21Z" style="fill:#964241"></path><path d="M308.86,90.53a41.57,41.57,0,0,0,3.41,14.93c.77,1.77,1.78,3.61,3.53,4.44,2.16,1,4.69.18,6.93-.67a27.4,27.4,0,0,0,7-3.43,9.25,9.25,0,0,0,3.91-6.47,3.35,3.35,0,0,0,3.78-1.58,5.92,5.92,0,0,0,.5-4.3,3.9,3.9,0,0,0-2.26-3.1,3,3,0,0,0-2.59.51,6.51,6.51,0,0,0-1.77,2.06,4.79,4.79,0,0,1-.81,1.12,1.29,1.29,0,0,1-1.28.32c-.54-.21-.75-.83-.91-1.38a14.46,14.46,0,0,0-3.08-6.19c-1.63-1.67-4.31-2.53-6.35-1.42-.94.52-1.68,1.4-2.71,1.67a4.72,4.72,0,0,1-2.52-.2h-.05A3.5,3.5,0,0,0,308.86,90.53Z" style="fill:#b55d5c"></path><polygon points="317.39 94.93 315.62 100.66 319.33 100.47 317.39 94.93" style="fill:#f28f8f"></polygon><polygon points="317.39 94.93 315.62 100.66 319.33 100.47 317.39 94.93" style="fill:#964241"></polygon><path d="M323.17,101.38l-2.39,2a1.82,1.82,0,0,0,2.19.09A1.65,1.65,0,0,0,323.17,101.38Z" style="fill:#f28f8f"></path><path d="M323.17,101.38l-2.39,2a1.82,1.82,0,0,0,2.19.09A1.65,1.65,0,0,0,323.17,101.38Z" style="fill:#964241"></path><path d="M322.06,103.74a1.68,1.68,0,0,0,.91-.31,1.48,1.48,0,0,0,.38-1.6,1.73,1.73,0,0,0-1,.63A1.67,1.67,0,0,0,322.06,103.74Z" style="fill:#f28f8f"></path><path d="M322.06,103.74a1.68,1.68,0,0,0,.91-.31,1.48,1.48,0,0,0,.38-1.6,1.73,1.73,0,0,0-1,.63A1.67,1.67,0,0,0,322.06,103.74Z" style="fill:#f28f8f"></path><path d="M322.58,93.89a1,1,0,1,1-1.34-.64A1.06,1.06,0,0,1,322.58,93.89Z" style="fill:#263238"></path><path d="M314.15,96.48a1,1,0,1,1-1.33-.64A1,1,0,0,1,314.15,96.48Z" style="fill:#263238"></path><path d="M311.81,92.88l-1.66,2.28a1.49,1.49,0,0,1-.12-1.7A1.76,1.76,0,0,1,311.81,92.88Z" style="fill:#263238"></path><path d="M320.25,89.79l2.72.75a1.48,1.48,0,0,0-1-1.4A1.75,1.75,0,0,0,320.25,89.79Z" style="fill:#263238"></path><path d="M325.65,154.61c15.37.91,32.21-6.84,34.22-13.12l1.46,3.66a17.31,17.31,0,0,1-2.39,7.76c2.08,46.27,14.67,89,14.67,89-30.53,10-46.32-3.42-51.65-9.4h0a188.6,188.6,0,0,1,.81-51.39l3.34-21.72A9,9,0,0,0,326,156Z" style="fill:#ebebeb"></path><path d="M355.09,205a32.85,32.85,0,0,1-9.19-3,36.06,36.06,0,0,1-9-6.39,35.57,35.57,0,0,1-6.61-8.89,32.68,32.68,0,0,1-3.2-9.11h0a52.12,52.12,0,0,0,4.3,8.48,45.05,45.05,0,0,0,15.16,14.79A52,52,0,0,0,355.09,205Z" style="fill:#e0e0e0"></path><path d="M348.69,198.84a33.25,33.25,0,0,1-6.08-5.15,37.18,37.18,0,0,1-8.77-15.8A33.35,33.35,0,0,1,332.7,170h0a54.94,54.94,0,0,0,16,28.83Z" style="fill:#e0e0e0"></path><path d="M328.86,229.75a61.19,61.19,0,0,0,8.53,4.66,56.12,56.12,0,0,0,10.37,3.47,57,57,0,0,0,10.85,1.34,61.27,61.27,0,0,0,9.71-.53h0a36.22,36.22,0,0,1-9.69,1.83,41.2,41.2,0,0,1-21.82-4.94A36.36,36.36,0,0,1,328.86,229.75Z" style="fill:#e0e0e0"></path><path d="M346.93,155a12.74,12.74,0,0,0,4.47-7.16c1.49-6.6,3.31-15.68,4.65-20.47,2.66-9.5,2.93-17.83-7-18.73-4.75,4-8.16,36.41-8.16,36.41l-21.36,22.78-8.84-1.64a2.24,2.24,0,0,0-2.21.85l-2.92,3.87a1.91,1.91,0,0,0,0,2.35l1.5,1.87a4.33,4.33,0,0,0,5.59,1l1.77-1,3.52.59a6.14,6.14,0,0,0,4.85-1.28Z" style="fill:#b55d5c"></path></g><g id="freepik--Earth--inject-46"><path d="M318.88,161.23l-2.6-3.28c.88-5,1.82-10.33,3.71-15.08s4.88-9.2,9.16-12a9.66,9.66,0,0,1,6-1.82,5,5,0,0,1,4.51,3.88c.31,2.22-1.3,4.21-2.9,5.78-3.41,3.34-7.23,6.24-10.6,9.62A28.46,28.46,0,0,0,318.88,161.23Z" style="fill:#69D8D8"></path><path d="M318.88,161.23l-2.6-3.28c.88-5,1.82-10.33,3.71-15.08s4.88-9.2,9.16-12a9.66,9.66,0,0,1,6-1.82,5,5,0,0,1,4.51,3.88c.31,2.22-1.3,4.21-2.9,5.78-3.41,3.34-7.23,6.24-10.6,9.62A28.46,28.46,0,0,0,318.88,161.23Z" style="fill:#fff;opacity:0.30000000000000004"></path><path d="M318.74,161.91l2.6,3.28a32.86,32.86,0,0,1,12.76-10.52,28.19,28.19,0,0,0,5.17-2.46,6.16,6.16,0,0,0,2.9-4.7c0-2.46-2.13-4.55-4.53-5.08a10.78,10.78,0,0,0-7.1,1.32C323.83,147.18,318.86,154.37,318.74,161.91Z" style="fill:#69D8D8"></path><path d="M318.74,161.91l2.6,3.28a32.86,32.86,0,0,1,12.76-10.52,28.19,28.19,0,0,0,5.17-2.46,6.16,6.16,0,0,0,2.9-4.7c0-2.46-2.13-4.55-4.53-5.08a10.78,10.78,0,0,0-7.1,1.32C323.83,147.18,318.86,154.37,318.74,161.91Z" style="fill:#fff;opacity:0.4"></path><path d="M317.35,159.65h0a.28.28,0,0,1-.21-.33c1.73-7.37,6.33-20.68,17.82-27a.29.29,0,0,1,.38.11.28.28,0,0,1-.11.38c-4.85,2.67-13.57,9.67-17.54,26.63A.28.28,0,0,1,317.35,159.65Z" style="fill:#fff"></path><path d="M319.94,163.77h0a.28.28,0,0,1-.18-.35c2.08-6.52,7-15,18.38-18.73a.28.28,0,0,1,.35.18.27.27,0,0,1-.18.35c-11.19,3.61-16,12-18,18.37A.27.27,0,0,1,319.94,163.77Z" style="fill:#fff"></path><path d="M312.67,156.23l3.79-1.78c1.44-4.91,3-10.07,3.36-15.16s-.3-10.41-2.91-14.8a9.63,9.63,0,0,0-4.59-4.31,5,5,0,0,0-5.77,1.48c-1.26,1.85-.69,4.35,0,6.46,1.58,4.51,3.72,8.8,5.23,13.33A28.25,28.25,0,0,1,312.67,156.23Z" style="fill:#69D8D8"></path><path d="M312.67,156.23l3.79-1.78c1.44-4.91,3-10.07,3.36-15.16s-.3-10.41-2.91-14.8a9.63,9.63,0,0,0-4.59-4.31,5,5,0,0,0-5.77,1.48c-1.26,1.85-.69,4.35,0,6.46,1.58,4.51,3.72,8.8,5.23,13.33A28.25,28.25,0,0,1,312.67,156.23Z" style="fill:#fff;opacity:0.30000000000000004"></path><path d="M312.5,156.91l-3.79,1.79a32.7,32.7,0,0,0-6.77-15.09,28.92,28.92,0,0,1-3.55-4.5,6.14,6.14,0,0,1-.51-5.5c1.06-2.21,3.93-3.13,6.31-2.54a10.74,10.74,0,0,1,5.78,4.32C314.47,141.44,315.74,150.1,312.5,156.91Z" style="fill:#69D8D8"></path><path d="M312.5,156.91l-3.79,1.79a32.7,32.7,0,0,0-6.77-15.09,28.92,28.92,0,0,1-3.55-4.5,6.14,6.14,0,0,1-.51-5.5c1.06-2.21,3.93-3.13,6.31-2.54a10.74,10.74,0,0,1,5.78,4.32C314.47,141.44,315.74,150.1,312.5,156.91Z" style="fill:#fff;opacity:0.4"></path><path d="M314.74,155.5h0a.28.28,0,0,0,.33-.21c1.72-7.37,3.49-21.35-4-32.1a.28.28,0,0,0-.46.32c3.17,4.54,7.89,14.69,3.93,31.65A.28.28,0,0,0,314.74,155.5Z" style="fill:#fff"></path><path d="M310.6,158.05h0a.27.27,0,0,0,.31-.23c1-6.77.43-16.58-8.17-24.93a.28.28,0,0,0-.4,0,.29.29,0,0,0,0,.4c8.43,8.19,9,17.81,8,24.44A.29.29,0,0,0,310.6,158.05Z" style="fill:#fff"></path><circle cx="249.4" cy="242.65" r="112.76" transform="translate(-98.53 247.42) rotate(-45)" style="fill:#69D8D8"></circle><circle cx="249.4" cy="242.65" r="112.76" transform="translate(-98.53 247.42) rotate(-45)" style="opacity:0.15"></circle><path d="M145.16,213c.48,3.73,1.88,7.28,3,10.89s2.62,8.4.93,11.77a16.31,16.31,0,0,0-1.6,4.1,5.44,5.44,0,0,0,.74,4.23c1,1.32,2.62,1.94,3.73,3.14,2.12,2.3,1.65,5.89,2.5,8.89a10.08,10.08,0,0,0,6.2,6.6c1.27.45,3.13.33,3.43-1,.24-1.1-.85-2-1.75-2.64a21.84,21.84,0,0,1-5.57-5.93,3.1,3.1,0,0,1-.6-1.54,1.18,1.18,0,0,1,.92-1.22c1.48.49,1.84,2.37,2.73,3.65a4.52,4.52,0,0,0,5.27,1.55,5.54,5.54,0,0,1,1-.4,3.35,3.35,0,0,1,1.33.12c2.92.65,6,1.37,8.27,3.29,1.88,1.57,3.07,3.79,4.49,5.78s3.28,3.92,5.69,4.34c2,.35,4.05-.41,6.08-.64a12.83,12.83,0,0,1,7.27,1.41,11.08,11.08,0,0,0-2.85,10.2c.28,1.13.73,2.23.91,3.38.27,1.81-.17,3.63-.24,5.46s.34,3.86,1.82,4.93c1.65,1.2,4.36,1,5.25,2.85.31.64.3,1.4.56,2.07.64,1.66,2.68,2.28,4.46,2.36s3.67-.15,5.25.68c2.45,1.3,3,4.46,4.24,7a12.32,12.32,0,0,0,2.85,3.79c1.44,1.29,3.27,2.37,3.89,4.19.35,1,.28,2.22.86,3.13.82,1.27,2.69,1.64,3.32,3a9.27,9.27,0,0,1,.4,2,5.5,5.5,0,0,0,3.65,3.77,16.51,16.51,0,0,0,5.43.69l5.71.07c1.09,0,2.4-.12,2.87-1.09a2.14,2.14,0,0,0-1.23-2.58,17.22,17.22,0,0,0-3-.81,6.75,6.75,0,0,1-4.65-4.93c-.17-.74-.2-1.5-.42-2.23a14.67,14.67,0,0,0-1.45-2.81,12.94,12.94,0,0,1-1.39-8.52c.28-1.53.84-3,1-4.55a17.06,17.06,0,0,0-1.15-6.55,2.72,2.72,0,0,1-.19-1.56,3.37,3.37,0,0,1,1.23-1.48c2.95-2.65,1.53-7.12.15-10.83-.54-1.45.42-3,1.22-4.31s1.44-3.14.44-4.31a3.63,3.63,0,0,0-2.94-.91,15.94,15.94,0,0,0-4.44.79c-1.83.6-3.77,1.54-5.58.9-1.49-.53-2.41-2-3.46-3.18s-2.65-2.26-4.12-1.68c-.63.25-1.16.79-1.84.85a2.44,2.44,0,0,1-2-1.17,5,5,0,0,0-1.67-1.69c-1.6-.72-3.56.86-5.15.13-.74-.33-1.19-1.07-1.78-1.63-1.5-1.41-3.77-1.5-5.83-1.69s-4.49-1.31-5.41-3.16a15.71,15.71,0,0,0,.44-2.94,3,3,0,0,0-3.72-2.41,1.49,1.49,0,0,0-.73.47c-.69.89.33,2.16.16,3.27-.21,1.32-1.88,1.76-3.21,1.82a4.8,4.8,0,0,1-2.23-.29,5.25,5.25,0,0,1-1.82-1.69,17.59,17.59,0,0,1-2.6-4.09,5.87,5.87,0,0,1,0-4.72,3.58,3.58,0,0,1,4-2c.63.19,1.33.61,1.91.28.79-.46.4-1.67.66-2.55.39-1.36,2.32-1.62,3.58-1s2.11,1.87,3.25,2.71a15,15,0,0,1,2.44,1.78c.55.62,1,1.5,1.77,1.65s1.72-.8,1.75-1.73a5.11,5.11,0,0,0-.92-2.59c-2.11-3.73-3.93-8-3-12.2a19.24,19.24,0,0,1,1.15-3.27c1.11-2.59,2.41-5.27,4.74-6.86a18,18,0,0,0,2.57-1.72,5,5,0,0,0,1.1-3.15,11,11,0,0,0,5.64.06,3.71,3.71,0,0,0,2.1-1.17,2.9,2.9,0,0,0,.53-1.57,4.29,4.29,0,0,0-3.13-4.29c-1-.25-2.23-.22-2.82-1.07a1.82,1.82,0,0,1,.05-1.93,3.55,3.55,0,0,1,1.56-1.28,6.35,6.35,0,0,1,4.28-.5,5,5,0,0,1,3.29,2.7c.56,1.27.57,2.9,1.66,3.77a2.86,2.86,0,0,0,2.71.32,6.38,6.38,0,0,0,2.31-1.62,3.94,3.94,0,0,0,1.47-3,3.05,3.05,0,0,0-1.41-2.08,14,14,0,0,0-2.34-1.13,17.12,17.12,0,0,1-6-4.47c-1.06-1.23-1.94-2.61-3-3.8a10.36,10.36,0,0,0-5.05-3.11,7.12,7.12,0,0,0-5.74,1,3.19,3.19,0,0,1-1.08.63c-1,.24-1.84-.7-2.65-1.35-1.85-1.47-6-2.11-6.94.06-.54,1.26.25,2.66.53,4a7,7,0,0,1-2.31,6.24,2.29,2.29,0,0,0-.62.77c-.41,1,.81,1.89,1.32,2.86a2.38,2.38,0,0,1-3.55,3c-1.63-1.25-1.17-4.06-2.71-5.4-1-.91-2.64-.81-3.86-1.47-1.63-.87-2.27-2.89-2.4-4.73a9.47,9.47,0,0,1,1.17-5.56,5.83,5.83,0,0,1,4.69-2.93c1,0,1.95.26,2.93.2a2.29,2.29,0,0,0,2.24-1.55,3.08,3.08,0,0,0-.1-1.24,7.4,7.4,0,0,1-.08-3.82,2.84,2.84,0,0,1,2.9-2.06,2.7,2.7,0,0,1,2.05,2.36,5.64,5.64,0,0,1-.72,3.22,3,3,0,0,0-.38,1,1.72,1.72,0,0,0,.88,1.5,4.69,4.69,0,0,0,1.73.56c2.31.39,4.9.5,6.79-.9a2.6,2.6,0,0,0,.92-1.11,6.53,6.53,0,0,0,.12-1.88c.09-1.76,1.44-3.19,2-4.87a5.35,5.35,0,0,0-5-6.92c-2.31,0-4.46,1.42-6.76,1.28a2.87,2.87,0,0,1-1.73-.62,6.53,6.53,0,0,1-1.1-1.86c-.35-.64-1-1.25-1.7-1.12s-1.05.82-1.34,1.44a10.87,10.87,0,0,0-.91,2.5c-.3,1.71.28,3.5-.08,5.19-.17.78-.78,1.65-1.56,1.47a1.52,1.52,0,0,1-.78-.59,3.49,3.49,0,0,1-.67-2.27c.07-1.26.77-2.68,0-3.65a2,2,0,0,0-2.91.18,6.64,6.64,0,0,0-1.38,3.16,2.48,2.48,0,0,0-1.42-1.22,1.47,1.47,0,0,1-.58-.27c-.22-.22-.2-.57-.25-.88a2.59,2.59,0,0,0-2.24-2.05,4.14,4.14,0,0,0-3,1,4.2,4.2,0,0,0-1.65,4.61c.5,1.28,1.88,2.35,1.6,3.7a2.17,2.17,0,0,0-3,1.92c-1.89.24-3.55-1.21-4.77-2.67s-2.45-3.14-4.29-3.62c-1.25-.33-2.6-.06-3.84-.35a112.81,112.81,0,0,0-8.26,15.22c-.21,1.29-.4,2.58-.59,3.87C145.22,204.66,144.62,208.83,145.16,213Z" style="fill:#69D8D8"></path><path d="M229,163.66a3.5,3.5,0,0,1-1.24-2.74,22.94,22.94,0,0,1,.31-3.09,12.58,12.58,0,0,0-1.43-7.17,5.79,5.79,0,0,0-2.08-2.33,7,7,0,0,0-3.46-.6c-6,.08-12,1.06-17.88.12a33.77,33.77,0,0,0-5.19-.73c-3.94,0-9.26,2.47-10.43,6.59a3.5,3.5,0,0,0,1.54,4.17c2.73,1.75,4.11-.3,6.36-1.5s5-.1,7.41-.88a4.71,4.71,0,0,1,1.58-.43c1.37,0,2.19,1.67,2,3A18.29,18.29,0,0,1,205,161.9c-.51,1.27-.61,2.93.43,3.83.25.21.57.4.66.72.18.63-.63,1-1.22,1.35a3.58,3.58,0,0,0-1.54,4.4c.57,1.36,2,2.23,2.63,3.55.59,1.17.57,2.61,1.27,3.72,1,1.65,3.24,2,5.18,2.24a5,5,0,0,0,2.17,3.55,3.8,3.8,0,0,0,4.28-.87,8,8,0,0,0,2-4.17,17.49,17.49,0,0,1,.81-3.45c1-2.33,3.32-3.79,5.67-4.72,1.63-.65,3.4-1.15,4.64-2.4s1.61-3.57.23-4.65C231.24,164.29,229.92,164.33,229,163.66Z" style="fill:#69D8D8"></path><path d="M336.52,217.22a3.85,3.85,0,0,0-.78-1.18c-.71-.83-1.69-1.75-2.74-1.43-1.27.39-1.33,2.12-1.42,3.45a9.59,9.59,0,0,1-1.73,4.87l-2.77-.47c-1.37-2.52-.4-5.68.6-8.37l4.14-11.23a9.86,9.86,0,0,0,.11-8.36,61.09,61.09,0,0,0,2.79-14.76,14.8,14.8,0,0,0-.22-3.7,16.66,16.66,0,0,0-1.77-4.2l-2.28-4.29a4.63,4.63,0,0,0-1.1-1.51,5.16,5.16,0,0,0-1.36-.65,13.16,13.16,0,0,1-5.49-4.08c-2.8-3.56-4.48-7.83-8.16-10.46-2.91-2.08-6.37-3.2-9.77-4.29a10.58,10.58,0,0,0-4.36-.74,13.73,13.73,0,0,0-3.9,1.45,23.44,23.44,0,0,1-9.51,2.09,2.15,2.15,0,0,0-1.73.52,1.54,1.54,0,0,0,.5,2c.61.48,1.39.71,2,1.16-.61,1.44-3.49,1-4.11,2.39-.19.42-.14,1-.47,1.28a1.1,1.1,0,0,1-.78.27c-1.4,0-2.39-1.36-3-2.63s-1.16-2.72-2.43-3.32a2.69,2.69,0,0,0-2.59.2c-.33.22-.61.53-1,.73a3.92,3.92,0,0,1-1.58.39,33.85,33.85,0,0,1-4.83.14.73.73,0,0,0-.44.09.63.63,0,0,0-.21.36,29,29,0,0,0-1.15,5c-.2,1.37-.34,2.86-1.28,3.87a1.79,1.79,0,0,0-.43.56,1.06,1.06,0,0,0,0,.61,3.32,3.32,0,0,0,2,2.43c1.7.71,3.71-.09,5.46.46.75.24,1.53.71,2.24.41a1.66,1.66,0,0,0,.81-1.76,10,10,0,0,0-.64-2,7.32,7.32,0,0,1,.72-5.4c.28,1,.66,2,1.58,2.4s2.15-.17,3.11.26c1.18.53,1.31,2.17,2.17,3.15a6.46,6.46,0,0,1,.74.83,1.86,1.86,0,0,1-.15,1.87,6.49,6.49,0,0,1-1.38,1.39,27.45,27.45,0,0,0-2.24,2.07,7.19,7.19,0,0,1-1.34,1.19,2.07,2.07,0,0,1-1.72.28c-.45-.16-.8-.52-1.24-.72a1.92,1.92,0,0,0-2.31.66,4.83,4.83,0,0,0-6.64,1.84c-.68,1.43-.69,3.3-2,4.22-1.59,1.13-4-.06-5.7.88a2.54,2.54,0,0,0,1.26,4.76c1.24,0,2.35-.94,3.59-.92a3,3,0,0,1,.12,1.56.94.94,0,0,1-.16.4,1.07,1.07,0,0,1-.55.31c-2.88.88-6,1-8.68,2.44a18.14,18.14,0,0,0-3.25,2.56,2.4,2.4,0,0,0-1,1.59,2.35,2.35,0,0,0,.59,1.37c1.17,1.67,2.35,3.33,3.52,5a5.2,5.2,0,0,0,1.12,1.26c1.43,1,3.42.39,5-.29a1.52,1.52,0,0,0,.69-.44,2,2,0,0,0,.17-1.34c-.18-2.68,1.77-5,3.58-6.95a38.36,38.36,0,0,1,4.76-4.61,2.58,2.58,0,0,1,2.95-.51,39.66,39.66,0,0,1,5.17,2,5.27,5.27,0,0,1,1.67,1.08,2,2,0,0,1,.56,1.84c-.18.65-.78,1.34-.38,1.88a1.27,1.27,0,0,0,.92.38,4.34,4.34,0,0,0,1.76-.05,2.18,2.18,0,0,0,1.3-2.81c-.83-1.95-3.95-1.74-5.14-3.49-.37-.53-.42-1.4.14-1.71a1.34,1.34,0,0,1,.63-.12,6.91,6.91,0,0,1,3.37,1.1,3.23,3.23,0,0,1,.74.53,3.41,3.41,0,0,1,.58,1,21.94,21.94,0,0,0,4.89,6.54,6.28,6.28,0,0,0,3.41,1.86c.76.08,1.24-1.19,1-1.91-.16-.44-.47-1-.07-1.27a.56.56,0,0,1,.38-.05c1,.13,1.51,1.24,2.39,1.7,1.07.57,2.38.06,3.59.16a.74.74,0,0,1,.41.13.76.76,0,0,1,.2.32l1.07,2.51a2.39,2.39,0,0,0,.41.71,1.89,1.89,0,0,0,.9.46c1.17.32,2.42.3,3.55.73,2,.77,3.27,2.83,4.05,4.86a4.85,4.85,0,0,0-2.25,4.12,6.29,6.29,0,0,0,1.72,4.13,1.82,1.82,0,0,0,.73.56,2.14,2.14,0,0,0,1.15,0l2.72-.6a1.11,1.11,0,0,1,.74,0,1.14,1.14,0,0,1,.48.7,8.88,8.88,0,0,1,.38,3.28,2.38,2.38,0,0,1-.35,1.23,2.76,2.76,0,0,1-2,.81q-10.41,1.23-20.87,2c-2-1.19-3.43-2.47-5.4-3.66a4.17,4.17,0,0,0-1.46-.65,5,5,0,0,0-2.09.29c-4.32,1.15-8.94.37-13.34,1.13a3.82,3.82,0,0,0-1.83.69c-1.49,1.22-.76,3.67-1.57,5.41-1.35,2.88-6.09,2.54-7.67,5.3-.87,1.53-.44,3.44,0,5.14l1,3.65c-.89,2.43-2.11,5.21-2.82,7.71a2.32,2.32,0,0,0-.11,1.22,2,2,0,0,0,.83,1,9.33,9.33,0,0,0,3.64,1.72,7,7,0,0,1,2,.57c1.39.78,1.77,2.56,2.75,3.82a6.3,6.3,0,0,0,4.32,2.18,18.33,18.33,0,0,0,4.95-.3l8.23-1.24a4.93,4.93,0,0,1,2.9.15A3.6,3.6,0,0,1,286.3,254c1.27,2.34,1,5.16,1.39,7.79.5,3.38,2.12,6.51,2.67,9.89s-2.8,7-4,10.19a8.25,8.25,0,0,0-.71,2.82,8.34,8.34,0,0,0,.81,3.15c1.11,2.78,2.23,5.56,3.34,8.33a2.92,2.92,0,0,0,.62,1.07,2.68,2.68,0,0,0,1.21.55,21.7,21.7,0,0,0,4,.62,1.86,1.86,0,0,0,1.05-.14,2.14,2.14,0,0,0,.72-.88,64.76,64.76,0,0,1,11-14.92,12,12,0,0,0,2.92-3.79,10.73,10.73,0,0,0,.57-2.91L313,265.57c.37-3.59,4.39-6.43,6.64-9.26,1.77-2.23,3.82-4.55,4-7.4.22-3.08-1.81-6-1.6-9.07L317.47,236c-2-1.65-4-3.54-4.36-6.07a10.22,10.22,0,0,1,.3-3.34c.42-2.09.84-4.17,1.27-6.26a4.22,4.22,0,0,1,2.13,1.26l4.77,4.33a1.85,1.85,0,0,1,.56.71,1.7,1.7,0,0,1,0,1c-.6,2.14-2.21,4.21-1.62,6.36.42,1.55,1.87,2.56,3.21,3.44a3.43,3.43,0,0,0,1.79.73,3.24,3.24,0,0,0,1.68-.67,23.84,23.84,0,0,0,6.46-6.36,7.24,7.24,0,0,0,1.07-2c.69-2.29-.5-4.86.29-7.11C335.55,220.37,337.12,218.84,336.52,217.22Z" style="fill:#69D8D8"></path><path d="M326,268.12a3,3,0,0,0-1.91,1.36,3.82,3.82,0,0,1-2.93,1.75l-2.92.44a2.5,2.5,0,0,0-.85.23,1.92,1.92,0,0,0-.88,1.52c-.08.6,0,1.22,0,1.83-.19,3.1-3.21,5.26-4.2,8.21a1.48,1.48,0,0,0-.1.66,1.54,1.54,0,0,0,.46.73,1.93,1.93,0,0,0,1.15.77,2,2,0,0,0,.79-.16l2.34-.82a11.09,11.09,0,0,0,3-1.41,5.68,5.68,0,0,0,2.25-3.83c.18-1.43-.19-2.93.33-4.27a8.28,8.28,0,0,1,2.1-2.66C325.12,271.92,328.62,267.84,326,268.12Z" style="fill:#69D8D8"></path><path d="M222.72,196.7a3,3,0,0,0-.76-.43,12,12,0,0,0-1.15-.39,2.28,2.28,0,0,1-1.28-.94,2.55,2.55,0,0,0-.78-.72,2,2,0,0,0-2.44.59,2.09,2.09,0,0,0-.21.56,6,6,0,0,0-.18,1.2,1,1,0,0,0,.05.46,1,1,0,0,0,.31.42,2.93,2.93,0,0,0,2,.53,16.07,16.07,0,0,1,2.08-.07,1,1,0,0,1,.41.11c.13.08.22.2.34.29a1.12,1.12,0,0,0,1,.15,3.35,3.35,0,0,0,.93-.5c.09-.07.2-.14.22-.26a.42.42,0,0,0,0-.22A1.69,1.69,0,0,0,222.72,196.7Z" style="fill:#69D8D8"></path><g style="opacity:0.2"><path d="M145.16,213c.48,3.73,1.88,7.28,3,10.89s2.62,8.4.93,11.77a16.31,16.31,0,0,0-1.6,4.1,5.44,5.44,0,0,0,.74,4.23c1,1.32,2.62,1.94,3.73,3.14,2.12,2.3,1.65,5.89,2.5,8.89a10.08,10.08,0,0,0,6.2,6.6c1.27.45,3.13.33,3.43-1,.24-1.1-.85-2-1.75-2.64a21.84,21.84,0,0,1-5.57-5.93,3.1,3.1,0,0,1-.6-1.54,1.18,1.18,0,0,1,.92-1.22c1.48.49,1.84,2.37,2.73,3.65a4.52,4.52,0,0,0,5.27,1.55,5.54,5.54,0,0,1,1-.4,3.35,3.35,0,0,1,1.33.12c2.92.65,6,1.37,8.27,3.29,1.88,1.57,3.07,3.79,4.49,5.78s3.28,3.92,5.69,4.34c2,.35,4.05-.41,6.08-.64a12.83,12.83,0,0,1,7.27,1.41,11.08,11.08,0,0,0-2.85,10.2c.28,1.13.73,2.23.91,3.38.27,1.81-.17,3.63-.24,5.46s.34,3.86,1.82,4.93c1.65,1.2,4.36,1,5.25,2.85.31.64.3,1.4.56,2.07.64,1.66,2.68,2.28,4.46,2.36s3.67-.15,5.25.68c2.45,1.3,3,4.46,4.24,7a12.32,12.32,0,0,0,2.85,3.79c1.44,1.29,3.27,2.37,3.89,4.19.35,1,.28,2.22.86,3.13.82,1.27,2.69,1.64,3.32,3a9.27,9.27,0,0,1,.4,2,5.5,5.5,0,0,0,3.65,3.77,16.51,16.51,0,0,0,5.43.69l5.71.07c1.09,0,2.4-.12,2.87-1.09a2.14,2.14,0,0,0-1.23-2.58,17.22,17.22,0,0,0-3-.81,6.75,6.75,0,0,1-4.65-4.93c-.17-.74-.2-1.5-.42-2.23a14.67,14.67,0,0,0-1.45-2.81,12.94,12.94,0,0,1-1.39-8.52c.28-1.53.84-3,1-4.55a17.06,17.06,0,0,0-1.15-6.55,2.72,2.72,0,0,1-.19-1.56,3.37,3.37,0,0,1,1.23-1.48c2.95-2.65,1.53-7.12.15-10.83-.54-1.45.42-3,1.22-4.31s1.44-3.14.44-4.31a3.63,3.63,0,0,0-2.94-.91,15.94,15.94,0,0,0-4.44.79c-1.83.6-3.77,1.54-5.58.9-1.49-.53-2.41-2-3.46-3.18s-2.65-2.26-4.12-1.68c-.63.25-1.16.79-1.84.85a2.44,2.44,0,0,1-2-1.17,5,5,0,0,0-1.67-1.69c-1.6-.72-3.56.86-5.15.13-.74-.33-1.19-1.07-1.78-1.63-1.5-1.41-3.77-1.5-5.83-1.69s-4.49-1.31-5.41-3.16a15.71,15.71,0,0,0,.44-2.94,3,3,0,0,0-3.72-2.41,1.49,1.49,0,0,0-.73.47c-.69.89.33,2.16.16,3.27-.21,1.32-1.88,1.76-3.21,1.82a4.8,4.8,0,0,1-2.23-.29,5.25,5.25,0,0,1-1.82-1.69,17.59,17.59,0,0,1-2.6-4.09,5.87,5.87,0,0,1,0-4.72,3.58,3.58,0,0,1,4-2c.63.19,1.33.61,1.91.28.79-.46.4-1.67.66-2.55.39-1.36,2.32-1.62,3.58-1s2.11,1.87,3.25,2.71a15,15,0,0,1,2.44,1.78c.55.62,1,1.5,1.77,1.65s1.72-.8,1.75-1.73a5.11,5.11,0,0,0-.92-2.59c-2.11-3.73-3.93-8-3-12.2a19.24,19.24,0,0,1,1.15-3.27c1.11-2.59,2.41-5.27,4.74-6.86a18,18,0,0,0,2.57-1.72,5,5,0,0,0,1.1-3.15,11,11,0,0,0,5.64.06,3.71,3.71,0,0,0,2.1-1.17,2.9,2.9,0,0,0,.53-1.57,4.29,4.29,0,0,0-3.13-4.29c-1-.25-2.23-.22-2.82-1.07a1.82,1.82,0,0,1,.05-1.93,3.55,3.55,0,0,1,1.56-1.28,6.35,6.35,0,0,1,4.28-.5,5,5,0,0,1,3.29,2.7c.56,1.27.57,2.9,1.66,3.77a2.86,2.86,0,0,0,2.71.32,6.38,6.38,0,0,0,2.31-1.62,3.94,3.94,0,0,0,1.47-3,3.05,3.05,0,0,0-1.41-2.08,14,14,0,0,0-2.34-1.13,17.12,17.12,0,0,1-6-4.47c-1.06-1.23-1.94-2.61-3-3.8a10.36,10.36,0,0,0-5.05-3.11,7.12,7.12,0,0,0-5.74,1,3.19,3.19,0,0,1-1.08.63c-1,.24-1.84-.7-2.65-1.35-1.85-1.47-6-2.11-6.94.06-.54,1.26.25,2.66.53,4a7,7,0,0,1-2.31,6.24,2.29,2.29,0,0,0-.62.77c-.41,1,.81,1.89,1.32,2.86a2.38,2.38,0,0,1-3.55,3c-1.63-1.25-1.17-4.06-2.71-5.4-1-.91-2.64-.81-3.86-1.47-1.63-.87-2.27-2.89-2.4-4.73a9.47,9.47,0,0,1,1.17-5.56,5.83,5.83,0,0,1,4.69-2.93c1,0,1.95.26,2.93.2a2.29,2.29,0,0,0,2.24-1.55,3.08,3.08,0,0,0-.1-1.24,7.4,7.4,0,0,1-.08-3.82,2.84,2.84,0,0,1,2.9-2.06,2.7,2.7,0,0,1,2.05,2.36,5.64,5.64,0,0,1-.72,3.22,3,3,0,0,0-.38,1,1.72,1.72,0,0,0,.88,1.5,4.69,4.69,0,0,0,1.73.56c2.31.39,4.9.5,6.79-.9a2.6,2.6,0,0,0,.92-1.11,6.53,6.53,0,0,0,.12-1.88c.09-1.76,1.44-3.19,2-4.87a5.35,5.35,0,0,0-5-6.92c-2.31,0-4.46,1.42-6.76,1.28a2.87,2.87,0,0,1-1.73-.62,6.53,6.53,0,0,1-1.1-1.86c-.35-.64-1-1.25-1.7-1.12s-1.05.82-1.34,1.44a10.87,10.87,0,0,0-.91,2.5c-.3,1.71.28,3.5-.08,5.19-.17.78-.78,1.65-1.56,1.47a1.52,1.52,0,0,1-.78-.59,3.49,3.49,0,0,1-.67-2.27c.07-1.26.77-2.68,0-3.65a2,2,0,0,0-2.91.18,6.64,6.64,0,0,0-1.38,3.16,2.48,2.48,0,0,0-1.42-1.22,1.47,1.47,0,0,1-.58-.27c-.22-.22-.2-.57-.25-.88a2.59,2.59,0,0,0-2.24-2.05,4.14,4.14,0,0,0-3,1,4.2,4.2,0,0,0-1.65,4.61c.5,1.28,1.88,2.35,1.6,3.7a2.17,2.17,0,0,0-3,1.92c-1.89.24-3.55-1.21-4.77-2.67s-2.45-3.14-4.29-3.62c-1.25-.33-2.6-.06-3.84-.35a112.81,112.81,0,0,0-8.26,15.22c-.21,1.29-.4,2.58-.59,3.87C145.22,204.66,144.62,208.83,145.16,213Z" style="fill:#fff"></path><path d="M229,163.66a3.5,3.5,0,0,1-1.24-2.74,22.94,22.94,0,0,1,.31-3.09,12.58,12.58,0,0,0-1.43-7.17,5.79,5.79,0,0,0-2.08-2.33,7,7,0,0,0-3.46-.6c-6,.08-12,1.06-17.88.12a33.77,33.77,0,0,0-5.19-.73c-3.94,0-9.26,2.47-10.43,6.59a3.5,3.5,0,0,0,1.54,4.17c2.73,1.75,4.11-.3,6.36-1.5s5-.1,7.41-.88a4.71,4.71,0,0,1,1.58-.43c1.37,0,2.19,1.67,2,3A18.29,18.29,0,0,1,205,161.9c-.51,1.27-.61,2.93.43,3.83.25.21.57.4.66.72.18.63-.63,1-1.22,1.35a3.58,3.58,0,0,0-1.54,4.4c.57,1.36,2,2.23,2.63,3.55.59,1.17.57,2.61,1.27,3.72,1,1.65,3.24,2,5.18,2.24a5,5,0,0,0,2.17,3.55,3.8,3.8,0,0,0,4.28-.87,8,8,0,0,0,2-4.17,17.49,17.49,0,0,1,.81-3.45c1-2.33,3.32-3.79,5.67-4.72,1.63-.65,3.4-1.15,4.64-2.4s1.61-3.57.23-4.65C231.24,164.29,229.92,164.33,229,163.66Z" style="fill:#fff"></path><path d="M336.52,217.22a3.85,3.85,0,0,0-.78-1.18c-.71-.83-1.69-1.75-2.74-1.43-1.27.39-1.33,2.12-1.42,3.45a9.59,9.59,0,0,1-1.73,4.87l-2.77-.47c-1.37-2.52-.4-5.68.6-8.37l4.14-11.23a9.86,9.86,0,0,0,.11-8.36,61.09,61.09,0,0,0,2.79-14.76,14.8,14.8,0,0,0-.22-3.7,16.66,16.66,0,0,0-1.77-4.2l-2.28-4.29a4.63,4.63,0,0,0-1.1-1.51,5.16,5.16,0,0,0-1.36-.65,13.16,13.16,0,0,1-5.49-4.08c-2.8-3.56-4.48-7.83-8.16-10.46-2.91-2.08-6.37-3.2-9.77-4.29a10.58,10.58,0,0,0-4.36-.74,13.73,13.73,0,0,0-3.9,1.45,23.44,23.44,0,0,1-9.51,2.09,2.15,2.15,0,0,0-1.73.52,1.54,1.54,0,0,0,.5,2c.61.48,1.39.71,2,1.16-.61,1.44-3.49,1-4.11,2.39-.19.42-.14,1-.47,1.28a1.1,1.1,0,0,1-.78.27c-1.4,0-2.39-1.36-3-2.63s-1.16-2.72-2.43-3.32a2.69,2.69,0,0,0-2.59.2c-.33.22-.61.53-1,.73a3.92,3.92,0,0,1-1.58.39,33.85,33.85,0,0,1-4.83.14.73.73,0,0,0-.44.09.63.63,0,0,0-.21.36,29,29,0,0,0-1.15,5c-.2,1.37-.34,2.86-1.28,3.87a1.79,1.79,0,0,0-.43.56,1.06,1.06,0,0,0,0,.61,3.32,3.32,0,0,0,2,2.43c1.7.71,3.71-.09,5.46.46.75.24,1.53.71,2.24.41a1.66,1.66,0,0,0,.81-1.76,10,10,0,0,0-.64-2,7.32,7.32,0,0,1,.72-5.4c.28,1,.66,2,1.58,2.4s2.15-.17,3.11.26c1.18.53,1.31,2.17,2.17,3.15a6.46,6.46,0,0,1,.74.83,1.86,1.86,0,0,1-.15,1.87,6.49,6.49,0,0,1-1.38,1.39,27.45,27.45,0,0,0-2.24,2.07,7.19,7.19,0,0,1-1.34,1.19,2.07,2.07,0,0,1-1.72.28c-.45-.16-.8-.52-1.24-.72a1.92,1.92,0,0,0-2.31.66,4.83,4.83,0,0,0-6.64,1.84c-.68,1.43-.69,3.3-2,4.22-1.59,1.13-4-.06-5.7.88a2.54,2.54,0,0,0,1.26,4.76c1.24,0,2.35-.94,3.59-.92a3,3,0,0,1,.12,1.56.94.94,0,0,1-.16.4,1.07,1.07,0,0,1-.55.31c-2.88.88-6,1-8.68,2.44a18.14,18.14,0,0,0-3.25,2.56,2.4,2.4,0,0,0-1,1.59,2.35,2.35,0,0,0,.59,1.37c1.17,1.67,2.35,3.33,3.52,5a5.2,5.2,0,0,0,1.12,1.26c1.43,1,3.42.39,5-.29a1.52,1.52,0,0,0,.69-.44,2,2,0,0,0,.17-1.34c-.18-2.68,1.77-5,3.58-6.95a38.36,38.36,0,0,1,4.76-4.61,2.58,2.58,0,0,1,2.95-.51,39.66,39.66,0,0,1,5.17,2,5.27,5.27,0,0,1,1.67,1.08,2,2,0,0,1,.56,1.84c-.18.65-.78,1.34-.38,1.88a1.27,1.27,0,0,0,.92.38,4.34,4.34,0,0,0,1.76-.05,2.18,2.18,0,0,0,1.3-2.81c-.83-1.95-3.95-1.74-5.14-3.49-.37-.53-.42-1.4.14-1.71a1.34,1.34,0,0,1,.63-.12,6.91,6.91,0,0,1,3.37,1.1,3.23,3.23,0,0,1,.74.53,3.41,3.41,0,0,1,.58,1,21.94,21.94,0,0,0,4.89,6.54,6.28,6.28,0,0,0,3.41,1.86c.76.08,1.24-1.19,1-1.91-.16-.44-.47-1-.07-1.27a.56.56,0,0,1,.38-.05c1,.13,1.51,1.24,2.39,1.7,1.07.57,2.38.06,3.59.16a.74.74,0,0,1,.41.13.76.76,0,0,1,.2.32l1.07,2.51a2.39,2.39,0,0,0,.41.71,1.89,1.89,0,0,0,.9.46c1.17.32,2.42.3,3.55.73,2,.77,3.27,2.83,4.05,4.86a4.85,4.85,0,0,0-2.25,4.12,6.29,6.29,0,0,0,1.72,4.13,1.82,1.82,0,0,0,.73.56,2.14,2.14,0,0,0,1.15,0l2.72-.6a1.11,1.11,0,0,1,.74,0,1.14,1.14,0,0,1,.48.7,8.88,8.88,0,0,1,.38,3.28,2.38,2.38,0,0,1-.35,1.23,2.76,2.76,0,0,1-2,.81q-10.41,1.23-20.87,2c-2-1.19-3.43-2.47-5.4-3.66a4.17,4.17,0,0,0-1.46-.65,5,5,0,0,0-2.09.29c-4.32,1.15-8.94.37-13.34,1.13a3.82,3.82,0,0,0-1.83.69c-1.49,1.22-.76,3.67-1.57,5.41-1.35,2.88-6.09,2.54-7.67,5.3-.87,1.53-.44,3.44,0,5.14l1,3.65c-.89,2.43-2.11,5.21-2.82,7.71a2.32,2.32,0,0,0-.11,1.22,2,2,0,0,0,.83,1,9.33,9.33,0,0,0,3.64,1.72,7,7,0,0,1,2,.57c1.39.78,1.77,2.56,2.75,3.82a6.3,6.3,0,0,0,4.32,2.18,18.33,18.33,0,0,0,4.95-.3l8.23-1.24a4.93,4.93,0,0,1,2.9.15A3.6,3.6,0,0,1,286.3,254c1.27,2.34,1,5.16,1.39,7.79.5,3.38,2.12,6.51,2.67,9.89s-2.8,7-4,10.19a8.25,8.25,0,0,0-.71,2.82,8.34,8.34,0,0,0,.81,3.15c1.11,2.78,2.23,5.56,3.34,8.33a2.92,2.92,0,0,0,.62,1.07,2.68,2.68,0,0,0,1.21.55,21.7,21.7,0,0,0,4,.62,1.86,1.86,0,0,0,1.05-.14,2.14,2.14,0,0,0,.72-.88,64.76,64.76,0,0,1,11-14.92,12,12,0,0,0,2.92-3.79,10.73,10.73,0,0,0,.57-2.91L313,265.57c.37-3.59,4.39-6.43,6.64-9.26,1.77-2.23,3.82-4.55,4-7.4.22-3.08-1.81-6-1.6-9.07L317.47,236c-2-1.65-4-3.54-4.36-6.07a10.22,10.22,0,0,1,.3-3.34c.42-2.09.84-4.17,1.27-6.26a4.22,4.22,0,0,1,2.13,1.26l4.77,4.33a1.85,1.85,0,0,1,.56.71,1.7,1.7,0,0,1,0,1c-.6,2.14-2.21,4.21-1.62,6.36.42,1.55,1.87,2.56,3.21,3.44a3.43,3.43,0,0,0,1.79.73,3.24,3.24,0,0,0,1.68-.67,23.84,23.84,0,0,0,6.46-6.36,7.24,7.24,0,0,0,1.07-2c.69-2.29-.5-4.86.29-7.11C335.55,220.37,337.12,218.84,336.52,217.22Z" style="fill:#fff"></path><path d="M326,268.12a3,3,0,0,0-1.91,1.36,3.82,3.82,0,0,1-2.93,1.75l-2.92.44a2.5,2.5,0,0,0-.85.23,1.92,1.92,0,0,0-.88,1.52c-.08.6,0,1.22,0,1.83-.19,3.1-3.21,5.26-4.2,8.21a1.48,1.48,0,0,0-.1.66,1.54,1.54,0,0,0,.46.73,1.93,1.93,0,0,0,1.15.77,2,2,0,0,0,.79-.16l2.34-.82a11.09,11.09,0,0,0,3-1.41,5.68,5.68,0,0,0,2.25-3.83c.18-1.43-.19-2.93.33-4.27a8.28,8.28,0,0,1,2.1-2.66C325.12,271.92,328.62,267.84,326,268.12Z" style="fill:#fff"></path><path d="M222.72,196.7a3,3,0,0,0-.76-.43,12,12,0,0,0-1.15-.39,2.28,2.28,0,0,1-1.28-.94,2.55,2.55,0,0,0-.78-.72,2,2,0,0,0-2.44.59,2.09,2.09,0,0,0-.21.56,6,6,0,0,0-.18,1.2,1,1,0,0,0,.05.46,1,1,0,0,0,.31.42,2.93,2.93,0,0,0,2,.53,16.07,16.07,0,0,1,2.08-.07,1,1,0,0,1,.41.11c.13.08.22.2.34.29a1.12,1.12,0,0,0,1,.15,3.35,3.35,0,0,0,.93-.5c.09-.07.2-.14.22-.26a.42.42,0,0,0,0-.22A1.69,1.69,0,0,0,222.72,196.7Z" style="fill:#fff"></path></g><path d="M156.81,207.15a123.28,123.28,0,0,1,5.37-35.93A112.73,112.73,0,0,0,332.27,319.06,123.38,123.38,0,0,1,156.81,207.15Z" style="opacity:0.22"></path><path d="M224.55,185.26c1.7-1.85,3.65-3.48,5.23-5.43,1.08-1.34,2-3,1.72-4.69a4.27,4.27,0,0,0-3.18-3.21,6.51,6.51,0,0,0-4.62.7,14.2,14.2,0,0,0-3.66,3,34.24,34.24,0,0,0-8.85,23.9,5,5,0,0,0,.71,2.86,2.81,2.81,0,0,0,2.83,1.08c2.69-.6,2.58-4.19,3.15-6.25a29.81,29.81,0,0,1,3.59-8A29,29,0,0,1,224.55,185.26Z" style="fill:#37474f"></path><path d="M213.89,200.79a.23.23,0,0,0,.2-.21c.48-4.22,2.84-18.57,13.35-26.08a.23.23,0,0,0,.05-.33.23.23,0,0,0-.32,0c-10.67,7.63-13.06,22.14-13.53,26.41a.23.23,0,0,0,.2.26Z" style="fill:#f0f0f0"></path><path d="M214.45,202.08a7.11,7.11,0,0,0,2.93,4.7,9.13,9.13,0,0,0,4.84,1.15,21.17,21.17,0,0,0,5-.84c.82-.21,1.73-.51,1.88-1.5a1.78,1.78,0,0,0-.47-1.43c-.14-.16-.31-.32-.48-.48a.51.51,0,0,1,.33-.89,11.32,11.32,0,0,0,1.43-.08,6.21,6.21,0,0,0,3.06-1.14,4.94,4.94,0,0,0,1.51-1.94,1.91,1.91,0,0,0-.06-2,2.08,2.08,0,0,0-1.07-.55q-.51-.15-1-.27a.47.47,0,0,1,0-.91l1.54-.53a2.8,2.8,0,0,0,1.19-.63,2.52,2.52,0,0,0,.43-2c-.12-1-.39-1.88-.54-2.82A6,6,0,0,1,235,187a23.75,23.75,0,0,0-8.45,0,5.91,5.91,0,0,0-2.36.84,3.37,3.37,0,0,0-1.29,3,.22.22,0,0,1-.42.09l-.84-1.84a1.14,1.14,0,0,0-1.46-.57,7,7,0,0,0-2.31,1.57,3.84,3.84,0,0,0-1.13,2.75,25.41,25.41,0,0,0,.42,4.17.38.38,0,0,1-.62.36l-.05,0a1.31,1.31,0,0,0-.88-.32c-.86.05-1.13.89-1.24,1.62A14.66,14.66,0,0,0,214.45,202.08Z" style="fill:#455a64"></path><path d="M218.62,206.63a34.6,34.6,0,0,1,2.71-6.4.32.32,0,0,1,.09-.17c.06-.11.12-.22.19-.33a21.5,21.5,0,0,0-1.73-7.66.22.22,0,0,1,.1-.3.23.23,0,0,1,.31.1A21.31,21.31,0,0,1,222,199a30.81,30.81,0,0,1,10.48-10.95.23.23,0,0,1,.32.08.23.23,0,0,1-.08.31,30.69,30.69,0,0,0-10.62,11.31,14.17,14.17,0,0,1,8.1-.54.23.23,0,0,1,.16.28.22.22,0,0,1-.19.17h-.09a13.74,13.74,0,0,0-8.34.76,34,34,0,0,0-2.69,6.34.22.22,0,0,1-.19.17.27.27,0,0,1-.09,0A.24.24,0,0,1,218.62,206.63Z" style="fill:#f0f0f0"></path></g><g id="freepik--character-3--inject-46"><path d="M317.46,219.35c-1.21-3.09-2.52-6.31-5-8.46s-6.68-2.79-9.06-.47c-2.9,2.82-1.52,7.6-.51,11.52a41.22,41.22,0,0,1-8.19,36.11c.49,1.13,2.19,1.48,3.41,1.36s2.51-.48,3.66-.05c2.17.8,3.08,4,5.38,4.06,2.51,0,3.43-3.82,5.89-4.33,1.25-.26,2.5.44,3.77.53a4.15,4.15,0,0,0,4.22-4.31C319.94,243.89,321.65,230,317.46,219.35Z" style="fill:#455a64"></path><g style="opacity:0.30000000000000004"><path d="M306,257.85a81.92,81.92,0,0,0,4.15-20.71,43,43,0,0,0-.9-11.3,29.7,29.7,0,0,0-3.64-9.22h0a44.54,44.54,0,0,1,2.36,9.45,61.24,61.24,0,0,1,.45,11C308.07,244.56,306.64,252.05,306,257.85Z"></path><path d="M311.19,256.41a52.67,52.67,0,0,0-1-33.85h0a114.8,114.8,0,0,1,1.87,16.89A113.64,113.64,0,0,1,311.19,256.41Z"></path></g><path d="M316.31,216.58a9.84,9.84,0,0,1-2.85,1.89,29,29,0,0,0-4.73,2.36,5,5,0,0,0-2.29,4.49c.32,2.25,2.72,3.73,3.22,6,.28,1.25,0,2.73.8,3.7.7.81,1.92.92,2.76,1.58,1,.83,1.28,2.3,1.55,3.62a20.89,20.89,0,0,0,5.64,10.47l.29.28c-.43-10.45.42-22.23-3.24-31.57C317.1,218.42,316.72,217.49,316.31,216.58Z" style="opacity:0.30000000000000004"></path><path d="M291.21,210.81l.66,3.1a1.14,1.14,0,0,0,.88.88l3.1.66-3.1.65a1.15,1.15,0,0,0-.88.88l-.66,3.1-.65-3.1a1.16,1.16,0,0,0-.89-.88l-3.09-.65,3.09-.66a1.15,1.15,0,0,0,.89-.88Z" style="fill:#fff"></path><path d="M302.05,199.56l.49,2.33a.86.86,0,0,0,.66.66l2.33.49-2.33.49a.86.86,0,0,0-.66.66l-.49,2.33-.49-2.33a.86.86,0,0,0-.66-.66l-2.32-.49,2.32-.49a.86.86,0,0,0,.66-.66Z" style="fill:#fff"></path><path d="M321.48,208.63l.33,1.55a.58.58,0,0,0,.44.44l1.55.33-1.55.32a.58.58,0,0,0-.44.45l-.33,1.55-.32-1.55a.58.58,0,0,0-.44-.45l-1.55-.32,1.55-.33a.58.58,0,0,0,.44-.44Z" style="fill:#fff"></path><path d="M294.76,235.63l.4,1.91a.71.71,0,0,0,.55.55l1.91.4-1.91.41a.69.69,0,0,0-.55.54l-.4,1.92-.41-1.92a.68.68,0,0,0-.54-.54l-1.92-.41,1.92-.4a.69.69,0,0,0,.54-.55Z" style="fill:#fff"></path><path d="M306.35,267.54l.5,2.37a.86.86,0,0,0,.67.67l2.37.5-2.37.5a.87.87,0,0,0-.67.68l-.5,2.37-.5-2.37a.88.88,0,0,0-.68-.68l-2.37-.5,2.37-.5a.87.87,0,0,0,.68-.67Z" style="fill:#fff"></path><path d="M279.08,226.36l.42,2a.73.73,0,0,0,.57.57l2,.43-2,.42a.73.73,0,0,0-.57.57l-.42,2-.43-2a.73.73,0,0,0-.57-.57l-2-.42,2-.43a.73.73,0,0,0,.57-.57Z" style="fill:#fff"></path><path d="M289.17,195.54l.38,1.82a.68.68,0,0,0,.52.52l1.82.39-1.82.38a.69.69,0,0,0-.52.52l-.38,1.82-.39-1.82a.68.68,0,0,0-.52-.52l-1.82-.38,1.82-.39a.66.66,0,0,0,.52-.52Z" style="fill:#fff"></path><path d="M331,222.4l.33,1.55a.55.55,0,0,0,.44.44l1.55.33-1.55.33a.55.55,0,0,0-.44.44L331,227l-.33-1.55a.57.57,0,0,0-.44-.44l-1.55-.33,1.55-.33a.57.57,0,0,0,.44-.44Z" style="fill:#fff"></path><path d="M408.38,370.09a43.43,43.43,0,0,0,5.29,3.07L408,380.08a30.94,30.94,0,0,0-4.81-2.25C403.68,372.61,408.38,370.09,408.38,370.09Z" style="fill:#ffa8a7"></path><path d="M415.61,387.83c0-6.93,4.77-10.37,7-9.25,0,0-.5-.46-1.22-1.16a6.49,6.49,0,0,0-4.22,1.84,10.54,10.54,0,0,0-2.75,5.94,47.62,47.62,0,0,0-.3,6.65c0,2.23.05,4.92-.75,7A13.24,13.24,0,0,1,402.5,396a5.53,5.53,0,0,0-.08,1.72,12.47,12.47,0,0,0,11.41,2.66C416.45,398,415.61,393.72,415.61,387.83Z" style="fill:#f5f5f5"></path><path d="M422.57,378.58c-2.19-1.12-7,2.32-7,9.25,0,5.89.84,10.18-1.78,12.5.08,0,.15,0,.22-.06,2.41-.75,4.49-2.23,6.7-3.44a3,3,0,0,0,1.54-2.81,22.91,22.91,0,0,1,.39-6.73c.33-1.5,1-2.94,1.17-4.47A4.59,4.59,0,0,0,422.57,378.58Z" style="fill:#455a64"></path><path d="M422.57,378.58c-2.19-1.12-7,2.32-7,9.25,0,5.89.84,10.18-1.78,12.5.08,0,.15,0,.22-.06,2.41-.75,4.49-2.23,6.7-3.44a3,3,0,0,0,1.54-2.81,22.91,22.91,0,0,1,.39-6.73c.33-1.5,1-2.94,1.17-4.47A4.59,4.59,0,0,0,422.57,378.58Z" style="opacity:0.30000000000000004"></path><path d="M422.57,378.58c-2.19-1.12-7,2.32-7,9.25,0,5.89.84,10.18-1.78,12.5.08,0,.15,0,.22-.06,2.41-.75,4.49-2.23,6.7-3.44a3,3,0,0,0,1.54-2.81,22.91,22.91,0,0,1,.39-6.73c.33-1.5,1-2.94,1.17-4.47A4.59,4.59,0,0,0,422.57,378.58Z" style="fill:#fff;opacity:0.2"></path><path d="M413.83,372.51c-3.84,1-5.5,4.12-6.88,7.62,1.42.78,2.74,1.25,3.25,2.78l-.09,1.23a3.5,3.5,0,0,0,.26.51c.13.19.27.36.38.56a1,1,0,0,1,.15.64.57.57,0,0,1-.42.47.55.55,0,0,1-.51-.22l-.08,1.08a3.27,3.27,0,0,0,.3.59c.13.19.27.36.38.56a1,1,0,0,1,.14.64.54.54,0,0,1-.42.47.58.58,0,0,1-.55-.25l-.14,2c-2.45,1.8-3,4.88-3.11,7.07a12.4,12.4,0,0,0,6.84.61c.8-2.07.72-4.76.75-7a47.62,47.62,0,0,1,.3-6.65,10.54,10.54,0,0,1,2.75-5.94,6.55,6.55,0,0,1,4.22-1.85A33.86,33.86,0,0,0,413.83,372.51Z" style="fill:#37474f"></path><path d="M410.9,385.85a1,1,0,0,0-.15-.64c-.11-.2-.25-.37-.38-.56a3.5,3.5,0,0,1-.26-.51l-.14,2a.55.55,0,0,0,.51.22A.57.57,0,0,0,410.9,385.85Z" style="fill:#fff"></path><path d="M410.71,389a1,1,0,0,0-.14-.64c-.11-.2-.25-.37-.38-.56a3.27,3.27,0,0,1-.3-.59l-.15,2a.58.58,0,0,0,.55.25A.54.54,0,0,0,410.71,389Z" style="fill:#fff"></path><path d="M409.6,391.16a6,6,0,0,0-5.24,1.46A6,6,0,0,0,402.5,396a13.45,13.45,0,0,0,4,2.28C406.56,396,407.15,393,409.6,391.16Z" style="fill:#fff"></path><path d="M341.5,386.66c-.6,1.27-2.51,2.43-4.6,2.78a21.33,21.33,0,0,1-6.31-.4,41.81,41.81,0,0,0-9.42-.25,48,48,0,0,1-5.86.42,9.33,9.33,0,0,1-5.51-1.74,5.66,5.66,0,0,1-2.07-3.52,5.32,5.32,0,0,0,2.07,4.74,9.27,9.27,0,0,0,5.51,1.75,50,50,0,0,0,5.86-.42,42.4,42.4,0,0,1,9.42.24c2.1.29,4.37.89,6.46.55s4-1.51,4.6-2.77Z" style="fill:#f5f5f5"></path><path d="M318.64,382.94c1.75,0,1.11-2.6,2.78-4.35-.68,0-1.36.05-2.05.05C317.87,380.81,317.45,382.94,318.64,382.94Z" style="fill:#fff"></path><path d="M322.29,382.8c1.77,0,1.3-3.1,3-4.91a10.86,10.86,0,0,1-1.2.35c-.35.08-.7.14-1.05.19C321.53,380.62,321.09,382.8,322.29,382.8Z" style="fill:#fff"></path><path d="M339.68,376.86a2.34,2.34,0,0,0-.91-1.43l-9.5-.24a8.12,8.12,0,0,1-3.94,2.7c-1.74,1.81-1.27,4.91-3,4.91-1.2,0-.76-2.18.79-4.37-.55.08-1.1.13-1.66.16-1.67,1.75-1,4.35-2.78,4.35-1.19,0-.77-2.13.73-4.3H318c-.4,0-.8,0-1.21-.07-3.49,2.76-3.79,5.76-3.34,10.46a12.34,12.34,0,0,0,1.82.19,48,48,0,0,0,5.86-.42,41.81,41.81,0,0,1,9.42.25,21.33,21.33,0,0,0,6.31.4c2.09-.35,4-1.51,4.6-2.78Z" style="fill:#455a64"></path><path d="M316.83,378.56a15.13,15.13,0,0,0-4.75,0,5.64,5.64,0,0,0-4.27,3.72,4.1,4.1,0,0,0-.08,1.67,5.66,5.66,0,0,0,2.07,3.52,8.19,8.19,0,0,0,3.69,1.55C313,384.32,313.34,381.32,316.83,378.56Z" style="fill:#fff"></path><path d="M329,372.48v4.58a1.88,1.88,0,0,0,1.88,1.88h4.79a3.08,3.08,0,0,0,3.08-3l.12-3.48Z" style="fill:#ffa8a7"></path><path d="M364.6,295.78a56.41,56.41,0,0,0-.61,6.4l-28.16,7.91a19.29,19.29,0,0,0-13.77,22c2.71,15.22,6.15,35.85,5.93,41.35,4.13,3.13,11.63,0,11.63,0,.68-17,4.12-26.88,2.13-40.78l30.46-6.11-6.08,22a14.4,14.4,0,0,0,8.11,17L404,378.58a8.29,8.29,0,0,1,5.72-7.91c-9.54-8.59-13.36-15.54-23.45-18,0,0,9.68-21.27,15.95-32s3.1-21.44-1.18-29Z" style="fill:#455a64"></path><path d="M364.6,295.78a56.41,56.41,0,0,0-.61,6.4l-28.16,7.91a19.29,19.29,0,0,0-13.77,22c2.71,15.22,6.15,35.85,5.93,41.35,4.13,3.13,11.63,0,11.63,0,.68-17,4.12-26.88,2.13-40.78l30.46-6.11-6.08,22a14.4,14.4,0,0,0,8.11,17L404,378.58a8.29,8.29,0,0,1,5.72-7.91c-9.54-8.59-13.36-15.54-23.45-18,0,0,9.68-21.27,15.95-32s3.1-21.44-1.18-29Z" style="opacity:0.30000000000000004"></path><path d="M401,291.64a5,5,0,0,1-.53-1.93l-.3-4.8L366,287.1c-.46,2.41-.91,5.35-1.36,8.68A50.9,50.9,0,0,0,401,291.64Z" style="fill:#ffa8a7"></path><path d="M378.85,247.26l-9.16,1.81c-2,3.7-4.09,7.18-6.12,10.89-1.52,2.79-3.09,5.76-3,8.94a8.86,8.86,0,0,0,1.46,4.48,16.42,16.42,0,0,1,2.28,12.14l-2.82,14.06c10.57,12.17,41.8,4.67,44.19-1.65.22-1-5.2-8.22-4.19-14.52.7-4.34,1.72-8.74,2.63-13,1.21-5.58,2.43-11.24.69-17.09a12.61,12.61,0,0,0-1.38-3h0A11.45,11.45,0,0,0,392,245.18Z" style="fill:#69D8D8"></path><polygon points="366.24 225.31 363.41 230.22 366.51 231.37 366.24 225.31" style="fill:#ff9192"></polygon><path d="M365.92,223.11c.46-4.31,1.72-8.38,4.53-10.44a23.28,23.28,0,0,0,3.23,15.44,6.79,6.79,0,0,1,2.09-3.7,3.88,3.88,0,0,1,4-.86,3.94,3.94,0,0,1,2,2.2,5.23,5.23,0,0,1-6.55,6.92,10.09,10.09,0,0,0,7.74,7.84,13,13,0,0,0,7.5-.72l1.17,5.82c-4.73,5-12.82,1.65-12.82,1.65l-1.07-5.71c-9.3.55-10.17.39-11.2-4.74A50.49,50.49,0,0,1,365.92,223.11Z" style="fill:#ffa8a7"></path><path d="M371,206.41a8.05,8.05,0,0,0-9.18,10.32,8.15,8.15,0,0,0,2.7,3.9c1.12.89,3.16,1.06,3.18,2.63,0,3.48.55,6.68,3.83,8.67,1.44.88,3.3,1.49,3.88,3.07s-.58,3.68.24,5.25,3.17,1.73,4.31,3.12.69,3.41.2,5.12a14,14,0,0,1-.93,3.21c-.34,1.18-.79,2.37-1,3.57a16.71,16.71,0,0,0,.05,5.6,17.89,17.89,0,0,0,5.33,10.29,16.48,16.48,0,0,0,17.78,2.94,14.9,14.9,0,0,0,8.17-15.77c-.49-2.49-1.67-4.89-1.56-7.42.14-3.16,2.27-6.37,1-9.27-1.16-2.67-4.62-3.54-6.25-6s-1.07-5.32-.46-8,1.27-5.63,0-8.08c-1-2-3.13-3.24-4.56-5-1.62-2-2.31-4.55-3.63-6.75a13.82,13.82,0,0,0-10.47-6.58A16.66,16.66,0,0,0,371,206.41Z" style="fill:#455a64"></path><path d="M368,248.26c-5.31.37-12,.92-18.58.8a75.9,75.9,0,0,1-14.2-1.57s-11.12-14.47-14.39-20.2l-1.16-9.64a2.37,2.37,0,0,0-1.41-1.89l-5-2.15a2.4,2.4,0,0,0-1.86,0l-2.89,1.22a1.27,1.27,0,0,0,.84,2.39l1.44-.43-3.37,2.51a2.64,2.64,0,0,0-1.08,2.13v1.73a2.65,2.65,0,0,0,1.19,2.21l.4.27a1.38,1.38,0,0,0,2-.48c.54,3.11,3.68,5.76,4.59,6.47l8.05,20.82a14.68,14.68,0,0,0,11.16,9.17l12.89,2.25,17.07,3a11.41,11.41,0,0,0,12.75-8.18l0-.18A8.16,8.16,0,0,0,368,248.26Z" style="fill:#ffa8a7"></path><path d="M319.91,233.54a7.42,7.42,0,0,1,4.54-.75c-1.48-2.13-2.77-4.09-3.58-5.5l-1.16-9.64a2.37,2.37,0,0,0-1.41-1.89l-5-2.15a2.4,2.4,0,0,0-1.86,0l-2.89,1.22a1.27,1.27,0,0,0,.84,2.39l1.44-.43-3.37,2.51a2.64,2.64,0,0,0-1.08,2.13v1.73a2.65,2.65,0,0,0,1.19,2.21l.4.27a1.38,1.38,0,0,0,2-.48c.54,3.11,3.68,5.76,4.59,6.47l2.08,5.38A7.49,7.49,0,0,1,319.91,233.54Z" style="fill:#455a64"></path><path d="M319.91,233.54a7.42,7.42,0,0,1,4.54-.75c-1.48-2.13-2.77-4.09-3.58-5.5l-1.16-9.64a2.37,2.37,0,0,0-1.41-1.89l-5-2.15a2.4,2.4,0,0,0-1.86,0l-2.89,1.22a1.27,1.27,0,0,0,.84,2.39l1.44-.43-3.37,2.51a2.64,2.64,0,0,0-1.08,2.13v1.73a2.65,2.65,0,0,0,1.19,2.21l.4.27a1.38,1.38,0,0,0,2-.48c.54,3.11,3.68,5.76,4.59,6.47l2.08,5.38A7.49,7.49,0,0,1,319.91,233.54Z" style="fill:#fff;opacity:0.6000000000000001"></path><path d="M310.87,216.77l.9-.59a1.43,1.43,0,0,1,1.08-.22l4.11.81-3.84-1.32a1.46,1.46,0,0,0-1.64.5Z" style="opacity:0.2"></path><path d="M310,225.14c-.38-1.35-.6-3.16,0-3.82l-1.68.92.19,1.72Z" style="opacity:0.2"></path><path d="M395.62,316.13c-4.83,6.29-13.73,8.72-23.41,10.38l-1.16,4.22C374.2,330,389.06,326.34,395.62,316.13Z" style="opacity:0.30000000000000004"></path></g><g id="freepik--character-1--inject-46"><polygon points="76.94 282.73 67.62 288.12 91.18 365.16 100.5 359.78 76.94 282.73" style="fill:#455a64"></polygon><polygon points="76.94 282.73 67.62 288.12 91.18 365.16 100.5 359.78 76.94 282.73" style="opacity:0.1"></polygon><polygon points="65.05 286.62 88.61 363.67 91.18 365.16 67.62 288.12 65.05 286.62" style="fill:#455a64"></polygon><polygon points="65.05 286.62 88.61 363.67 91.18 365.16 67.62 288.12 65.05 286.62" style="opacity:0.2"></polygon><polygon points="76.94 282.73 74.37 281.24 65.05 286.62 67.62 288.12 76.94 282.73" style="fill:#455a64"></polygon><polygon points="141.86 369.68 133.04 374.81 86.69 348 95.5 342.88 141.86 369.68" style="fill:#455a64"></polygon><polygon points="141.86 369.68 141.85 372.66 133.03 377.78 133.04 374.81 141.86 369.68" style="fill:#455a64"></polygon><polygon points="133.04 374.81 133.03 377.78 86.68 350.97 86.69 348 133.04 374.81" style="fill:#455a64"></polygon><polygon points="136.6 352.15 127.79 357.27 81.43 330.46 90.25 325.34 136.6 352.15" style="fill:#455a64"></polygon><polygon points="136.6 352.15 136.59 355.12 127.78 360.24 127.79 357.27 136.6 352.15" style="fill:#455a64"></polygon><polygon points="127.79 357.27 127.78 360.24 81.42 333.44 81.43 330.46 127.79 357.27" style="fill:#455a64"></polygon><polygon points="131.35 334.61 122.53 339.73 76.17 312.93 84.99 307.8 131.35 334.61" style="fill:#455a64"></polygon><polygon points="131.35 334.61 131.34 337.58 122.52 342.71 122.53 339.73 131.35 334.61" style="fill:#455a64"></polygon><polygon points="122.53 339.73 122.52 342.71 76.17 315.9 76.17 312.93 122.53 339.73" style="fill:#455a64"></polygon><polygon points="126.09 317.07 117.28 322.2 70.92 295.39 79.73 290.27 126.09 317.07" style="fill:#455a64"></polygon><g style="opacity:0.1"><polygon points="141.86 369.68 133.04 374.81 86.69 348 95.5 342.88 141.86 369.68" style="fill:#fff"></polygon></g><g style="opacity:0.1"><polygon points="136.6 352.15 127.79 357.27 81.43 330.46 90.25 325.34 136.6 352.15" style="fill:#fff"></polygon></g><g style="opacity:0.1"><polygon points="131.35 334.61 122.53 339.73 76.17 312.93 84.99 307.8 131.35 334.61" style="fill:#fff"></polygon></g><g style="opacity:0.1"><polygon points="126.09 317.07 117.28 322.2 70.92 295.39 79.73 290.27 126.09 317.07" style="fill:#fff"></polygon></g><polygon points="126.09 317.07 126.08 320.05 117.27 325.17 117.28 322.2 126.09 317.07" style="fill:#455a64"></polygon><polygon points="117.28 322.2 117.27 325.17 70.91 298.37 70.92 295.39 117.28 322.2" style="fill:#455a64"></polygon><polygon points="123.68 309.59 114.36 314.98 137.91 392.02 147.24 386.64 123.68 309.59" style="fill:#455a64"></polygon><polygon points="123.68 309.59 114.36 314.98 137.91 392.02 147.24 386.64 123.68 309.59" style="fill:#fff;opacity:0.2"></polygon><polygon points="111.78 313.48 135.34 390.53 137.91 392.02 114.36 314.98 111.78 313.48" style="fill:#455a64"></polygon><polygon points="111.78 313.48 135.34 390.53 137.91 392.02 114.36 314.98 111.78 313.48" style="opacity:0.1"></polygon><polygon points="123.68 309.59 121.11 308.1 111.78 313.48 114.36 314.98 123.68 309.59" style="fill:#455a64"></polygon><polygon points="32.35 398.64 41.67 393.26 64.71 289.3 55.39 294.68 32.35 398.64" style="fill:#455a64"></polygon><polygon points="52.82 293.19 29.77 397.14 32.35 398.64 55.39 294.68 52.82 293.19" style="fill:#455a64"></polygon><polygon points="52.82 293.19 29.77 397.14 32.35 398.64 55.39 294.68 52.82 293.19" style="fill:#fff;opacity:0.1"></polygon><polygon points="52.82 293.19 55.39 294.68 64.71 289.3 62.14 287.81 52.82 293.19" style="fill:#455a64"></polygon><polygon points="108.06 328.74 99.25 333.87 52.89 307.06 61.7 301.94 108.06 328.74" style="fill:#455a64"></polygon><polygon points="108.06 328.74 108.05 331.72 99.24 336.84 99.25 333.87 108.06 328.74" style="fill:#455a64"></polygon><polygon points="99.25 333.87 99.24 336.84 52.88 310.04 52.89 307.06 99.25 333.87" style="fill:#455a64"></polygon><polygon points="103.02 351.64 94.21 356.76 47.85 329.95 56.67 324.83 103.02 351.64" style="fill:#455a64"></polygon><polygon points="103.02 351.64 103.02 354.61 94.2 359.73 94.21 356.76 103.02 351.64" style="fill:#455a64"></polygon><polygon points="94.21 356.76 94.2 359.73 47.84 332.93 47.85 329.95 94.21 356.76" style="fill:#455a64"></polygon><polygon points="97.99 374.53 89.17 379.65 42.82 352.84 51.63 347.72 97.99 374.53" style="fill:#455a64"></polygon><polygon points="97.99 374.53 97.98 377.5 89.16 382.63 89.17 379.65 97.99 374.53" style="fill:#455a64"></polygon><polygon points="89.17 379.65 89.16 382.63 42.81 355.82 42.82 352.84 89.17 379.65" style="fill:#455a64"></polygon><polygon points="92.95 397.42 84.14 402.54 37.78 375.74 46.59 370.61 92.95 397.42" style="fill:#455a64"></polygon><polygon points="108.06 328.74 99.25 333.87 52.89 307.06 61.7 301.94 108.06 328.74" style="fill:#455a64"></polygon><polygon points="103.02 351.64 94.21 356.76 47.85 329.95 56.67 324.83 103.02 351.64" style="fill:#455a64"></polygon><polygon points="97.99 374.53 89.17 379.65 42.82 352.84 51.63 347.72 97.99 374.53" style="fill:#455a64"></polygon><polygon points="92.95 397.42 84.14 402.54 37.78 375.74 46.59 370.61 92.95 397.42" style="fill:#455a64"></polygon><g style="opacity:0.30000000000000004"><polygon points="108.06 328.74 99.25 333.87 52.89 307.06 61.7 301.94 108.06 328.74" style="fill:#fff"></polygon></g><g style="opacity:0.30000000000000004"><polygon points="103.02 351.64 94.21 356.76 47.85 329.95 56.67 324.83 103.02 351.64" style="fill:#fff"></polygon></g><g style="opacity:0.30000000000000004"><polygon points="97.99 374.53 89.17 379.65 42.82 352.84 51.63 347.72 97.99 374.53" style="fill:#fff"></polygon></g><g style="opacity:0.30000000000000004"><polygon points="92.95 397.42 84.14 402.54 37.78 375.74 46.59 370.61 92.95 397.42" style="fill:#fff"></polygon></g><polygon points="92.95 397.42 92.94 400.39 84.13 405.52 84.14 402.54 92.95 397.42" style="fill:#455a64"></polygon><polygon points="84.14 402.54 84.13 405.52 37.77 378.71 37.78 375.74 84.14 402.54" style="fill:#455a64"></polygon><g style="opacity:0.1"><polygon points="99.25 333.87 99.24 336.84 52.88 310.04 52.89 307.06 99.25 333.87" style="fill:#fff"></polygon></g><g style="opacity:0.1"><polygon points="94.21 356.76 94.2 359.73 47.84 332.93 47.85 329.95 94.21 356.76" style="fill:#fff"></polygon></g><g style="opacity:0.1"><polygon points="89.17 379.65 89.16 382.63 42.81 355.82 42.82 352.84 89.17 379.65" style="fill:#fff"></polygon></g><polygon points="84.14 402.54 84.13 405.52 37.77 378.71 37.78 375.74 84.14 402.54" style="fill:#fff;opacity:0.1"></polygon><polygon points="79.54 425.74 88.86 420.36 111.91 316.4 102.58 321.78 79.54 425.74" style="fill:#455a64"></polygon><polygon points="79.54 425.74 88.86 420.36 111.91 316.4 102.58 321.78 79.54 425.74" style="fill:#fff;opacity:0.2"></polygon><polygon points="100.01 320.29 76.97 424.24 79.54 425.74 102.58 321.78 100.01 320.29" style="fill:#455a64"></polygon><polygon points="100.01 320.29 76.97 424.24 79.54 425.74 102.58 321.78 100.01 320.29" style="fill:#fff;opacity:0.1"></polygon><polygon points="100.01 320.29 102.58 321.78 111.91 316.4 109.33 314.9 100.01 320.29" style="fill:#455a64"></polygon><polygon points="123.68 306.36 73.94 277.6 52.83 289.94 102.57 318.7 123.68 306.36" style="fill:#455a64"></polygon><polygon points="123.68 306.36 73.94 277.6 52.83 289.94 102.57 318.7 123.68 306.36" style="fill:#fff;opacity:0.2"></polygon><polygon points="102.57 318.7 102.56 321.94 123.67 309.59 123.68 306.36 102.57 318.7" style="fill:#455a64"></polygon><polygon points="52.83 289.94 52.82 293.18 102.56 321.94 102.57 318.7 52.83 289.94" style="fill:#455a64"></polygon><polygon points="52.83 289.94 52.82 293.18 102.56 321.94 102.57 318.7 52.83 289.94" style="opacity:0.1"></polygon><path d="M74.22,225.31l16,8c-2.06-12.48-4.26-24.81-6.32-37.3C77.84,203.79,74.29,215.5,74.22,225.31Z" style="fill:#455a64"></path><path d="M74.22,225.31l16,8c-2.06-12.48-4.26-24.81-6.32-37.3C77.84,203.79,74.29,215.5,74.22,225.31Z" style="fill:#fff;opacity:0.2"></path><path d="M99.51,298.81a35.73,35.73,0,0,0,16.25,9.25c1.76.45,3.83,1,4.48,2.69s-.46,3.39-1.83,4.42a10.91,10.91,0,0,1-7.81,1.77,34.12,34.12,0,0,1-7.88-2.21,29.2,29.2,0,0,0-7.92-2,33.05,33.05,0,0,1-3.86-.23,4.67,4.67,0,0,1-3.25-1.9c0-7.87,2-10.69,2-10.69Z" style="fill:#37474f"></path><path d="M99.7,295.33v5.33c-3.58,3.92-9.27,1.31-10-.77l-.18-4.56Z" style="fill:#ffb9a7"></path><path d="M72.89,276.2c6.38-5.76,9.92-5.53,11.46-4.38s4.31,4.84-2.77,11.07S75.05,293,70.12,293s-4-4.92-4-4.92a21.65,21.65,0,0,1,.77-5Z" style="fill:#37474f"></path><path d="M75.2,279.89v3.77c-3,2.58-8,1.12-8.31-.65l.23-3.73Z" style="fill:#ffb9a7"></path><path d="M104.42,175.15l2.77,65.52L99.7,295.33c-4,2.56-10.15,0-10.15,0C88.73,278.51,85,254.67,88,241.9l-5.53-35.22L80.58,235c-.31,16.61-4.61,34.3-5.38,44.91a9.29,9.29,0,0,1-8.08-.61c-2.48-22.1-7.4-34-2.69-49.78-3.28-29.74-6.09-48.19-2-55.73Z" style="fill:#263238"></path><path d="M104.42,175.15l2.77,65.52L99.7,295.33c-4,2.56-10.15,0-10.15,0C88.73,278.51,85,254.67,88,241.9l-5.53-35.22L80.58,235c-.31,16.61-4.61,34.3-5.38,44.91a9.29,9.29,0,0,1-8.08-.61c-2.48-22.1-7.4-34-2.69-49.78-3.28-29.74-6.09-48.19-2-55.73Z" style="fill:#fff;opacity:0.1"></path><path d="M81.37,200l1.06,6.71-.58,8.93-2.11-14a12.81,12.81,0,0,1-9.16-5.85A23.84,23.84,0,0,0,81.37,200Z" style="opacity:0.2"></path><path d="M95.46,114.34l-23.09-3.13c-8.08-.79-11.57,8.08-11.45,16.28a39.66,39.66,0,0,0,.41,4.56,139,139,0,0,1-1.4,42.78,36,36,0,0,0-.66,6.22c-1.91,9.42,32.1,14.7,44.34,8.4a4.51,4.51,0,0,0,2.42-4.16c-.55-17.16-2.66-49.09-2.66-49.09Z" style="fill:#69D8D8"></path><path d="M95.46,114.34l-23.09-3.13c-8.08-.79-11.57,8.08-11.45,16.28a39.66,39.66,0,0,0,.41,4.56,139,139,0,0,1-1.4,42.78,36,36,0,0,0-.66,6.22c-1.91,9.42,32.1,14.7,44.34,8.4a4.51,4.51,0,0,0,2.42-4.16c-.55-17.16-2.66-49.09-2.66-49.09Z" style="opacity:0.30000000000000004"></path><path d="M96.53,82.53a2.21,2.21,0,0,0,.32-2.44,2.8,2.8,0,0,0,2.32-.32,2.15,2.15,0,0,0,1-2,1.8,1.8,0,0,0-1.5-1.58A2.85,2.85,0,0,0,100.46,75a2.89,2.89,0,0,0,.56-2.07A3.81,3.81,0,0,0,98.41,70a9.06,9.06,0,0,0-4-.22A3.26,3.26,0,0,0,92.65,66a4,4,0,0,0-3.73.61,11.79,11.79,0,0,0-2.64,2.9,11.59,11.59,0,0,0-16.5,6.44,8,8,0,0,0-5.16,5.38,12.59,12.59,0,0,0,.44,7.55,34.57,34.57,0,0,0,3.53,6.8c.65,1,1.3,2.06,2,3.09.82,1.29,2.9,4.5,3.72,5.79a12.09,12.09,0,0,0,11.51-.71,19.57,19.57,0,0,0,7.4-9.18A63.94,63.94,0,0,0,96.53,82.53Z" style="fill:#263238"></path><path d="M98.31,90.52l2.46,4.28-2.43.9A49.73,49.73,0,0,0,98.31,90.52Z" style="fill:#e3927d"></path><path d="M96.53,82.53a34.48,34.48,0,0,1,1.78,8,49.73,49.73,0,0,1,0,5.18,48.71,48.71,0,0,1-.85,7.22,7.9,7.9,0,0,1-1.42,3.63,5.73,5.73,0,0,1-3.94,1.81,16.81,16.81,0,0,1-4.41-.43v7c-5.32,1.26-9.73,1.81-13.9-1.4l.44-9a13.08,13.08,0,0,0,7.49-1.19c3.68-2,4.7-5.15,4.19-6.92a2.76,2.76,0,0,1-2.88,1,3.84,3.84,0,0,1-2.38-1.89,7.79,7.79,0,0,1-.89-3,5.43,5.43,0,0,1,.54-3.69,3.86,3.86,0,0,1,4.16-1.41A6,6,0,0,1,88,90.38a10.34,10.34,0,0,1,.62,1.35.83.83,0,0,0,1.61-.21,11.12,11.12,0,0,0-1.06-5.87,4.38,4.38,0,0,0,2,.46A2.46,2.46,0,0,0,93,85.23a1.67,1.67,0,0,0,.07-2C94.85,84.13,96.53,82.53,96.53,82.53Z" style="fill:#ffb9a7"></path><path d="M107.55,161.51s4,38,2.82,74.48c0,0-3.18,4.68-7.06,3.94,1.34-14.57-1.48-47.12-6-76.18A98.36,98.36,0,0,1,107.55,161.51Z" style="fill:#455a64"></path><g style="opacity:0.2"><path d="M107.55,161.51s4,38,2.82,74.48c0,0-3.18,4.68-7.06,3.94,1.34-14.57-1.48-47.12-6-76.18A98.36,98.36,0,0,1,107.55,161.51Z" style="fill:#fff"></path></g><path d="M61.47,164.41c9.47,4.81,32,6.09,38,3.26l.34,2.79c-6,2.83-29.27,1.51-38.74-3.3A4.5,4.5,0,0,1,61.47,164.41Z" style="fill:#455a64"></path><path d="M200.36,159.67c-.59-5.31-3.12-9.38-5.66-9.1a3.24,3.24,0,0,0-2.32,1.8h0l0,.08a.21.21,0,0,1,0,.06c-3.18,5.51-6.67,13.13,3.18,17h0a2.58,2.58,0,0,0,1.35.25C199.36,169.51,200.94,165,200.36,159.67Z" style="fill:#455a64"></path><path d="M198.66,163.44a20,20,0,0,0-.65-6.3,12.19,12.19,0,0,0-1.92-4.69,5.84,5.84,0,0,0-2.06-1.7,3.76,3.76,0,0,0-1.65,1.62h0l0,.08a.21.21,0,0,1,0,.06c-3.18,5.51-6.67,13.13,3.18,17h0a2.12,2.12,0,0,0,.4.14c.16-.14.32-.29.46-.44A9.79,9.79,0,0,0,198.66,163.44Z" style="opacity:0.2"></path><path d="M165.6,180.3l24.82-18.89c1.72.47,2.23,1.82,2.09,2.44l-27.17,26.31Z" style="fill:#455a64"></path><path d="M192.51,163.85a1.87,1.87,0,0,0-.55-1.52L165.45,186l-.11,4.13Z" style="opacity:0.1"></path><path d="M166.35,189.88h0a97.63,97.63,0,0,0,1.83-23l-35.88-1.85s-6.58,13.7-8.65,22.64h0c-.6,2.39.19,4.89,2.58,7.13,5.83,5.47,18.94,7.34,29.26,4.18C162,197,165.82,193.56,166.35,189.88Z" style="fill:#455a64"></path><path d="M166.35,189.88h0a97.63,97.63,0,0,0,1.83-23l-35.88-1.85s-6.58,13.7-8.65,22.64h0c-.6,2.39.19,4.89,2.58,7.13,5.83,5.47,18.94,7.34,29.26,4.18C162,197,165.82,193.56,166.35,189.88Z" style="opacity:0.2"></path><path d="M141.06,158.81c-8.75,2.67-11.84,8.6-6.9,13.23s16,6.21,24.78,3.54,11.83-8.6,6.9-13.23S149.81,156.13,141.06,158.81Z" style="fill:#455a64"></path><g style="opacity:0.4"><path d="M141.06,158.81c-8.75,2.67-11.84,8.6-6.9,13.23s16,6.21,24.78,3.54,11.83-8.6,6.9-13.23S149.81,156.13,141.06,158.81Z"></path></g><path d="M153.63,165.1h0a6.66,6.66,0,0,0,.05-1.76h0c0,.63-.62,1.25-1.72,1.58a5.26,5.26,0,0,1-4.65-.66,1.19,1.19,0,0,1-.43-1h0a6.41,6.41,0,0,0-.05,1.77h0a1.19,1.19,0,0,0,.43.92,5.29,5.29,0,0,0,4.65.67C153,166.26,153.56,165.69,153.63,165.1Z" style="fill:#455a64"></path><path d="M153.63,165.1h0a6.66,6.66,0,0,0,.05-1.76h0c0,.63-.62,1.25-1.72,1.58a5.26,5.26,0,0,1-4.65-.66,1.19,1.19,0,0,1-.43-1h0a6.41,6.41,0,0,0-.05,1.77h0a1.19,1.19,0,0,0,.43.92,5.29,5.29,0,0,0,4.65.67C153,166.26,153.56,165.69,153.63,165.1Z" style="opacity:0.2"></path><path d="M147.3,164.24a5.26,5.26,0,0,0,4.65.66c1.1-.33,1.71-1,1.72-1.58a1.2,1.2,0,0,0-.42-.9,5.29,5.29,0,0,0-4.65-.66c-1,.31-1.65.87-1.73,1.46A1.19,1.19,0,0,0,147.3,164.24Z" style="fill:#455a64"></path><path d="M141,156.78a26.56,26.56,0,0,1,12.39-5.17L152,149.14a26.31,26.31,0,0,0-11.86,5.08c-5.11,3.93-8.58,10.06-10.62,18.73l1.24,2.93C132.66,168.59,135.2,161.23,141,156.78Z" style="fill:#455a64"></path><path d="M141,156.78c-5.77,4.45-8.31,11.81-10.19,19.1,0,0,1.29-2.06,1.88-3,1.77-6,4.25-11.69,8.94-15.3a25.43,25.43,0,0,1,12.27-5l-.51-1A26.56,26.56,0,0,0,141,156.78Z" style="fill:#455a64"></path><path d="M141,156.78c-5.77,4.45-8.31,11.81-10.19,19.1,0,0,1.29-2.06,1.88-3,1.77-6,4.25-11.69,8.94-15.3a25.43,25.43,0,0,1,12.27-5l-.51-1A26.56,26.56,0,0,0,141,156.78Z" style="opacity:0.1"></path><path d="M140.32,158a195.19,195.19,0,0,1-32.9,11.81,5.22,5.22,0,0,1-6-2.9C96.06,155,95,139.8,95,139.8l14.33-.53,1.52,16.7,26.53-5.72,5.85-3.1a8.83,8.83,0,0,1,6.72-.64l3.39,1a3,3,0,0,1,2.09,2.15,1.78,1.78,0,0,1,0,.55,1.14,1.14,0,0,1-.87.93l.54.34a3.21,3.21,0,0,1,1.31,3.73h0a3.23,3.23,0,0,1-1.21,1.59l-5.51,3.82a4.65,4.65,0,0,1-5.2.07Z" style="fill:#ffb9a7"></path><path d="M155.11,151.51l-.54-.34a1.14,1.14,0,0,0,.87-.93,1.78,1.78,0,0,0,0-.55,3,3,0,0,0-2.09-2.15l-3.39-1a8.83,8.83,0,0,0-6.72.64l-5.85,3.1-2.77.6a10,10,0,0,1,1.37,9.08q2.18-.93,4.37-1.94l4.18,2.73a4.65,4.65,0,0,0,5.2-.07l5.51-3.82a3.19,3.19,0,0,0-.1-5.32Z" style="fill:#455a64"></path><path d="M155.11,151.51l-.54-.34a1.14,1.14,0,0,0,.87-.93,1.78,1.78,0,0,0,0-.55,3,3,0,0,0-2.09-2.15l-3.39-1a8.83,8.83,0,0,0-6.72.64l-5.85,3.1-2.77.6a10,10,0,0,1,1.37,9.08q2.18-.93,4.37-1.94l4.18,2.73a4.65,4.65,0,0,0,5.2-.07l5.51-3.82a3.19,3.19,0,0,0-.1-5.32Z" style="fill:#fff;opacity:0.6000000000000001"></path><path d="M123.89,151.58a2.42,2.42,0,0,0-2.21-.69l-3.67.73A2.4,2.4,0,0,0,116.3,153l-.1.23,1.06-.21c6.51,7.76.46,15.35.46,15.35l-2.08.73a2.37,2.37,0,0,0,2.39.48l5.12-1.79a2.35,2.35,0,0,0,1.28-1.06C125.77,164.35,129.14,157.09,123.89,151.58Z" style="fill:#69D8D8"></path><path d="M123.89,151.58a2.42,2.42,0,0,0-2.21-.69l-3.67.73A2.4,2.4,0,0,0,116.3,153l-.1.23,1.06-.21c6.51,7.76.46,15.35.46,15.35l-2.08.73a2.37,2.37,0,0,0,2.39.48l5.12-1.79a2.35,2.35,0,0,0,1.28-1.06C125.77,164.35,129.14,157.09,123.89,151.58Z" style="opacity:0.30000000000000004"></path><path d="M117.26,153l-1.06.21-4.4.85-5.28-28a15,15,0,0,0-11.06-11.73h0A29.7,29.7,0,0,0,91.6,136l4,20.7a56.57,56.57,0,0,0,4.17,11.48,6.78,6.78,0,0,0,8.4,3.55l9.52-3.36S123.77,160.77,117.26,153Z" style="fill:#69D8D8"></path><path d="M117.26,153l-1.06.21-4.4.85-5.28-28a15,15,0,0,0-11.06-11.73h0A29.7,29.7,0,0,0,91.6,136l4,20.7a56.57,56.57,0,0,0,4.17,11.48,6.78,6.78,0,0,0,8.4,3.55l9.52-3.36S123.77,160.77,117.26,153Z" style="opacity:0.2"></path><path d="M170.38,162.68a13.08,13.08,0,0,0-.06-1.41,11.68,11.68,0,0,0-.23-1.38c-.07-.32-.15-.64-.24-.94a.19.19,0,0,1,0-.07c-.1-.31-.22-.61-.34-.9a13.24,13.24,0,0,1,.14,2,29.9,29.9,0,0,1-1.43,7.21c-.07.23-.1.32-.16.55l-.17.57.38,3.74c0-.22,0-.44,0-.73C169.11,168.69,170.35,164.73,170.38,162.68Z" style="fill:#455a64"></path><path d="M170.38,162.68a13.08,13.08,0,0,0-.06-1.41,11.68,11.68,0,0,0-.23-1.38c-.07-.32-.15-.64-.24-.94a.19.19,0,0,1,0-.07c-.1-.31-.22-.61-.34-.9a13.24,13.24,0,0,1,.14,2,29.9,29.9,0,0,1-1.43,7.21c-.07.23-.1.32-.16.55l-.17.57.38,3.74c0-.22,0-.44,0-.73C169.11,168.69,170.35,164.73,170.38,162.68Z" style="opacity:0.30000000000000004"></path><path d="M162.13,151.81a12.21,12.21,0,0,1,6.5,3.05,10.18,10.18,0,0,1,2.73,6.48c-.38-5.21-1.92-7.4-3.7-9.06a12.09,12.09,0,0,0-6.44-3,26.09,26.09,0,0,0-9.2-.13l1.34,2.47A26.09,26.09,0,0,1,162.13,151.81Z" style="fill:#455a64"></path><path d="M169.34,171.38c.86-2.73,2-6.48,2.07-8.68,0-.29,0-.57,0-.85a1.09,1.09,0,0,0,0-.18c0-.11,0-.22,0-.33a10.18,10.18,0,0,0-2.73-6.48,12.21,12.21,0,0,0-6.5-3.05,26.09,26.09,0,0,0-8.77-.2l.51,1a24.78,24.78,0,0,1,8.06.25,11.18,11.18,0,0,1,6,2.77,7.92,7.92,0,0,1,1.59,2.39c.12.29.24.59.34.9a.19.19,0,0,0,0,.07c.09.3.17.62.24.94a11.68,11.68,0,0,1,.23,1.38,13.08,13.08,0,0,1,.06,1.41c0,2-1.27,6-2.12,8.68,0,.29,0,.51,0,.73s0,.67,0,1.14A8,8,0,0,0,169.34,171.38Z" style="fill:#455a64"></path><path d="M169.34,171.38c.86-2.73,2-6.48,2.07-8.68,0-.29,0-.57,0-.85a1.09,1.09,0,0,0,0-.18c0-.11,0-.22,0-.33a10.18,10.18,0,0,0-2.73-6.48,12.21,12.21,0,0,0-6.5-3.05,26.09,26.09,0,0,0-8.77-.2l.51,1a24.78,24.78,0,0,1,8.06.25,11.18,11.18,0,0,1,6,2.77,7.92,7.92,0,0,1,1.59,2.39c.12.29.24.59.34.9a.19.19,0,0,0,0,.07c.09.3.17.62.24.94a11.68,11.68,0,0,1,.23,1.38,13.08,13.08,0,0,1,.06,1.41c0,2-1.27,6-2.12,8.68,0,.29,0,.51,0,.73s0,.67,0,1.14A8,8,0,0,0,169.34,171.38Z" style="opacity:0.1"></path><path d="M211.74,166a2.12,2.12,0,0,0-.2-3c-1.85-1.61-6-2.46-6-2.46s1.4,4,3.25,5.65A2.12,2.12,0,0,0,211.74,166Z" style="fill:#455a64"></path><path d="M211.74,166a2.12,2.12,0,0,0-.2-3c-1.85-1.61-6-2.46-6-2.46s1.4,4,3.25,5.65A2.12,2.12,0,0,0,211.74,166Z" style="fill:#fff;opacity:0.8"></path><path d="M211.38,165.67c-.49.16-1.07-.28-1.32-1s-.05-1.42.43-1.58,1.07.28,1.32,1S211.86,165.5,211.38,165.67Z" style="fill:#fff;opacity:0.8"></path><path d="M209.76,163.05a.53.53,0,0,1-.76,0,.54.54,0,1,1,.76,0Z" style="fill:#fff;opacity:0.8"></path><path d="M215.29,176.89a1.76,1.76,0,0,0,.67-2.4c-1-1.78-4.05-3.62-4.05-3.62s0,3.56,1,5.35A1.76,1.76,0,0,0,215.29,176.89Z" style="fill:#455a64"></path><path d="M215.29,176.89a1.76,1.76,0,0,0,.67-2.4c-1-1.78-4.05-3.62-4.05-3.62s0,3.56,1,5.35A1.76,1.76,0,0,0,215.29,176.89Z" style="fill:#fff;opacity:0.8"></path><path d="M215.1,176.51c-.42,0-.76-.52-.75-1.15s.36-1.13.78-1.12.76.51.75,1.14S215.53,176.51,215.1,176.51Z" style="fill:#fff;opacity:0.8"></path><path d="M214.56,174a.44.44,0,0,1-.61-.17.45.45,0,1,1,.61.17Z" style="fill:#fff;opacity:0.8"></path><path d="M204.52,169.66a1.13,1.13,0,0,0,.43-1.53,9,9,0,0,0-2.58-2.3,8.78,8.78,0,0,0,.62,3.4A1.13,1.13,0,0,0,204.52,169.66Z" style="fill:#455a64"></path><path d="M204.52,169.66a1.13,1.13,0,0,0,.43-1.53,9,9,0,0,0-2.58-2.3,8.78,8.78,0,0,0,.62,3.4A1.13,1.13,0,0,0,204.52,169.66Z" style="fill:#fff;opacity:0.8"></path><path d="M204.4,169.41c-.27,0-.49-.33-.48-.72s.23-.72.5-.72.48.33.48.73S204.67,169.42,204.4,169.41Z" style="fill:#fff;opacity:0.8"></path><path d="M204.06,167.82a.29.29,0,1,1-.28-.5.29.29,0,0,1,.39.11A.29.29,0,0,1,204.06,167.82Z" style="fill:#fff;opacity:0.8"></path><path d="M207.59,156a1.34,1.34,0,0,0-.92-1.66,10.51,10.51,0,0,0-4.13.22,10.71,10.71,0,0,0,3.39,2.36A1.35,1.35,0,0,0,207.59,156Z" style="fill:#455a64"></path><path d="M207.59,156a1.34,1.34,0,0,0-.92-1.66,10.51,10.51,0,0,0-4.13.22,10.71,10.71,0,0,0,3.39,2.36A1.35,1.35,0,0,0,207.59,156Z" style="fill:#fff;opacity:0.8"></path><path d="M207.28,155.84c-.23.22-.69.13-1-.22s-.41-.8-.18-1,.69-.13,1,.21S207.51,155.61,207.28,155.84Z" style="fill:#fff;opacity:0.8"></path><path d="M205.65,154.77a.34.34,0,1,1-.24-.42A.34.34,0,0,1,205.65,154.77Z" style="fill:#fff;opacity:0.8"></path><path d="M221.46,172.68a1.76,1.76,0,0,0,0-2.49c-1.45-1.45-4.88-2.37-4.88-2.37s1,3.43,2.4,4.87A1.77,1.77,0,0,0,221.46,172.68Z" style="fill:#455a64"></path><path d="M221.46,172.68a1.76,1.76,0,0,0,0-2.49c-1.45-1.45-4.88-2.37-4.88-2.37s1,3.43,2.4,4.87A1.77,1.77,0,0,0,221.46,172.68Z" style="fill:#fff;opacity:0.8"></path><path d="M221.18,172.36c-.41.11-.88-.29-1-.9s0-1.18.44-1.29.88.29,1,.89S221.59,172.25,221.18,172.36Z" style="fill:#fff;opacity:0.8"></path><path d="M220,170.1a.45.45,0,0,1-.64,0,.45.45,0,0,1,.64-.64A.45.45,0,0,1,220,170.1Z" style="fill:#fff;opacity:0.8"></path><path d="M219.68,162.07a1.46,1.46,0,0,0-.53-2,11.47,11.47,0,0,0-4.41-.87,11.53,11.53,0,0,0,2.94,3.4A1.46,1.46,0,0,0,219.68,162.07Z" style="fill:#455a64"></path><path d="M219.68,162.07a1.46,1.46,0,0,0-.53-2,11.47,11.47,0,0,0-4.41-.87,11.53,11.53,0,0,0,2.94,3.4A1.46,1.46,0,0,0,219.68,162.07Z" style="fill:#fff;opacity:0.8"></path><path d="M219.39,161.87c-.31.18-.76,0-1-.5s-.22-1,.08-1.13.77,0,1,.5S219.69,161.7,219.39,161.87Z" style="fill:#fff;opacity:0.8"></path><path d="M218,160.31a.37.37,0,1,1-.65-.37.37.37,0,0,1,.65.37Z" style="fill:#fff;opacity:0.8"></path></g><g id="freepik--trash-cans--inject-46"><path d="M242.31,364.89l-15.46,9a11,11,0,0,1-10,0l-31.25-18a3.55,3.55,0,0,1-2.08-2.86v47h0a3.49,3.49,0,0,0,2.08,3l31.25,18a11,11,0,0,0,10,0l15.46-9a3.51,3.51,0,0,0,2.05-2.82h0v-.06h0V362A3.45,3.45,0,0,1,242.31,364.89Z" style="fill:#455a64"></path><path d="M242.31,364.89l-15.46,9a11,11,0,0,1-10,0l-31.25-18a3.55,3.55,0,0,1-2.08-2.86v47h0a3.49,3.49,0,0,0,2.08,3l31.25,18a11,11,0,0,0,10,0l15.46-9a3.51,3.51,0,0,0,2.05-2.82h0v-.06h0V362A3.45,3.45,0,0,1,242.31,364.89Z" style="opacity:0.1"></path><path d="M182.14,348.47v.2a1.5,1.5,0,0,1,0-.2Z" style="fill:#455a64"></path><path d="M243.62,361.21l-16.18,9.4a11.48,11.48,0,0,1-10.43,0l-32.69-18.87a3.74,3.74,0,0,1-2.18-3v7.13h0a3.62,3.62,0,0,0,2.17,3.1L217,377.86a11.48,11.48,0,0,0,10.43,0l16.18-9.4a3.68,3.68,0,0,0,2.14-3h0v-.06h0v-7.25A3.66,3.66,0,0,1,243.62,361.21Z" style="fill:#455a64"></path><path d="M243.62,361.21l-16.18,9.4a11.48,11.48,0,0,1-10.43,0l-32.69-18.87a3.74,3.74,0,0,1-2.18-3v7.13h0a3.62,3.62,0,0,0,2.17,3.1L217,377.86a11.48,11.48,0,0,0,10.43,0l16.18-9.4a3.68,3.68,0,0,0,2.14-3h0v-.06h0v-7.25A3.66,3.66,0,0,1,243.62,361.21Z" style="fill:#fff;opacity:0.5"></path><polygon points="245.77 358.18 245.77 358.18 245.77 358.19 245.77 358.18" style="fill:#455a64"></polygon><path d="M184.32,351.74,217,370.61a11.48,11.48,0,0,0,10.43,0l16.18-9.4a3.66,3.66,0,0,0,2.15-3h0a3.71,3.71,0,0,0-2.18-3l-32.7-18.88a11.48,11.48,0,0,0-10.43,0l-16.18,9.4a3.81,3.81,0,0,0-2.12,2.78,1.5,1.5,0,0,0,0,.2v.08A3.74,3.74,0,0,0,184.32,351.74Z" style="fill:#455a64"></path><path d="M184.32,351.74,217,370.61a11.48,11.48,0,0,0,10.43,0l16.18-9.4a3.66,3.66,0,0,0,2.15-3h0a3.71,3.71,0,0,0-2.18-3l-32.7-18.88a11.48,11.48,0,0,0-10.43,0l-16.18,9.4a3.81,3.81,0,0,0-2.12,2.78,1.5,1.5,0,0,0,0,.2v.08A3.74,3.74,0,0,0,184.32,351.74Z" style="fill:#fff;opacity:0.7000000000000001"></path><path d="M240,357.28a1,1,0,0,1,0,1.82l-16.17,9.4a3.47,3.47,0,0,1-3.14,0L188,349.62a1,1,0,0,1,0-1.81l16.18-9.4a3.43,3.43,0,0,1,3.12,0Z" style="fill:#455a64"></path><g style="opacity:0.1"><path d="M240,357.28a1,1,0,0,1,0,1.82l-16.17,9.4a3.47,3.47,0,0,1-3.14,0L188,349.62a1,1,0,0,1,0-1.81l16.18-9.4a3.43,3.43,0,0,1,3.12,0Z" style="fill:#fff"></path></g><g style="opacity:0.5"><path d="M201.82,393c0,.54,0,1.07,0,1.61l.11.06,3.36,1.94.94.55.39.22.25.14a3.52,3.52,0,0,0,1.44.45,1.21,1.21,0,0,0,.85-.22l0,.06c-.74,1.17-1.5,2.33-2.24,3.49a.61.61,0,0,1-.33.25,1.77,1.77,0,0,1-.89,0,5.11,5.11,0,0,1-1.12-.38c-.41-.19-.81-.42-1.22-.63l-1.45-.78-.08,0v1.1c-.06-.09-2.43-5.07-2.58-5.41Z" style="fill:#fff"></path><path d="M207.93,391.22l.12.29c.36.94.73,1.88,1.1,2.82a5.94,5.94,0,0,1,.23.76,4.4,4.4,0,0,1,.11,1.11,1.79,1.79,0,0,1-.12.68.86.86,0,0,1-.6.57l-.34.07a1.47,1.47,0,0,1-.64-.08,4.55,4.55,0,0,1-.89-.39l-.22-.12-.62-.38a.35.35,0,0,1-.11-.15l-1.65-4.28c-.07-.18-.14-.37-.22-.56Z" style="fill:#fff"></path><path d="M193.5,389.66l1.49.89,2.23,1.35.05,0-.09,5-.31-.17-.14-.09-1.92-1.14a4.36,4.36,0,0,1-.88-.7,5.88,5.88,0,0,1-.83-1,3.64,3.64,0,0,1-.64-1.95,2.64,2.64,0,0,1,0-.28,2.36,2.36,0,0,1,.07-.55,2.75,2.75,0,0,1,.46-.94c.13-.18.28-.33.42-.5S193.45,389.63,193.5,389.66Z" style="fill:#fff"></path><path d="M194.82,382.3q.8,2.74,1.57,5.47l-1.2-1.5-.07.09-2.25,2.93a5.6,5.6,0,0,0-.42.62,3.2,3.2,0,0,0-.34,1,3.49,3.49,0,0,0,.08,1.38l0,0,0-.06-1.17-3c-.41-1-.81-2-1.21-3.07a2.64,2.64,0,0,1-.17-.7,3.4,3.4,0,0,1,.15-1.31,4.33,4.33,0,0,1,.59-1.2l1-1.5a.16.16,0,0,1,0-.07l-.81-1c.06,0,1.56.69,2.12,1Z" style="fill:#fff"></path><path d="M196.73,376.06a3.1,3.1,0,0,1,.89.8l.18.2a4.17,4.17,0,0,1,.4.6,7.69,7.69,0,0,1,.58,1.19,12.4,12.4,0,0,1,.49,1.38l-2,2.59L193.47,378l0-.05,1.32-1.72,0-.05a1.59,1.59,0,0,1,1.2-.33A1.75,1.75,0,0,1,196.73,376.06Z" style="fill:#fff"></path><path d="M202.18,378.92a1.7,1.7,0,0,1,.42.35,5.42,5.42,0,0,1,.68.88,12.37,12.37,0,0,1,.95,1.8c.21.51.41,1,.61,1.53s.47,1.18.7,1.78l.05.11.83,0c-.58,1.16-1.17,2.31-1.77,3.46l-4.22-3.18c.4,0,.81-.06,1.22-.08l-.05-.12-2-5.58c-.13-.36-.26-.71-.41-1.07a9.76,9.76,0,0,0-.85-1.55,5.12,5.12,0,0,0-1-1.08l0,0,.09,0Z" style="fill:#fff"></path></g><path d="M294.65,382.42,275,393.82a14,14,0,0,1-12.65,0l-39.66-22.9c-1.73-1-2.61-2.31-2.64-3.62V427h0c0,1.36.83,2.72,2.63,3.76l39.66,22.9a14,14,0,0,0,12.65,0l19.62-11.4c1.71-1,2.57-2.29,2.6-3.59h0v-.08h0V378.75C297.26,380.08,296.39,381.4,294.65,382.42Z" style="fill:#455a64"></path><path d="M294.65,382.42,275,393.82a14,14,0,0,1-12.65,0l-39.66-22.9c-1.73-1-2.61-2.31-2.64-3.62V427h0c0,1.36.83,2.72,2.63,3.76l39.66,22.9a14,14,0,0,0,12.65,0l19.62-11.4c1.71-1,2.57-2.29,2.6-3.59h0v-.08h0V378.75C297.26,380.08,296.39,381.4,294.65,382.42Z" style="opacity:0.1"></path><path d="M294.65,382.42,275,393.82a14,14,0,0,1-12.65,0l-39.66-22.9c-1.73-1-2.61-2.31-2.64-3.62V427h0c0,1.36.83,2.72,2.63,3.76l39.66,22.9a14,14,0,0,0,12.65,0l19.62-11.4c1.71-1,2.57-2.29,2.6-3.59h0v-.08h0V378.75C297.26,380.08,296.39,381.4,294.65,382.42Z" style="fill:#fff;opacity:0.30000000000000004"></path><path d="M218.3,361.57v.26a2.11,2.11,0,0,1,0-.25Z" style="fill:#455a64"></path><path d="M296.31,377.74l-20.53,11.93a14.56,14.56,0,0,1-13.23,0l-41.49-23.95c-1.81-1.05-2.73-2.42-2.76-3.79v9h0c0,1.42.87,2.85,2.75,3.94l41.49,23.95a14.56,14.56,0,0,0,13.23,0l20.53-11.93c1.79-1,2.69-2.39,2.72-3.75h0v-.08h0v-9.19C299,375.3,298.13,376.68,296.31,377.74Z" style="fill:#455a64"></path><path d="M296.31,377.74l-20.53,11.93a14.56,14.56,0,0,1-13.23,0l-41.49-23.95c-1.81-1.05-2.73-2.42-2.76-3.79v9h0c0,1.42.87,2.85,2.75,3.94l41.49,23.95a14.56,14.56,0,0,0,13.23,0l20.53-11.93c1.79-1,2.69-2.39,2.72-3.75h0v-.08h0v-9.19C299,375.3,298.13,376.68,296.31,377.74Z" style="fill:#fff;opacity:0.5"></path><polygon points="299.04 373.9 299.03 373.9 299.04 373.91 299.04 373.9" style="fill:#455a64"></polygon><path d="M221.06,365.72l41.49,23.95a14.56,14.56,0,0,0,13.23,0l20.53-11.93c1.82-1.06,2.73-2.44,2.72-3.83h0c0-1.38-.93-2.77-2.76-3.82l-41.49-24a14.56,14.56,0,0,0-13.23,0L221,358.05a4.81,4.81,0,0,0-2.7,3.53,2.11,2.11,0,0,0,0,.25v.1C218.33,363.3,219.25,364.67,221.06,365.72Z" style="fill:#455a64"></path><path d="M221.06,365.72l41.49,23.95a14.56,14.56,0,0,0,13.23,0l20.53-11.93c1.82-1.06,2.73-2.44,2.72-3.83h0c0-1.38-.93-2.77-2.76-3.82l-41.49-24a14.56,14.56,0,0,0-13.23,0L221,358.05a4.81,4.81,0,0,0-2.7,3.53,2.11,2.11,0,0,0,0,.25v.1C218.33,363.3,219.25,364.67,221.06,365.72Z" style="fill:#fff;opacity:0.7000000000000001"></path><path d="M291.65,372.76a1.22,1.22,0,0,1,0,2.3L271.14,387a4.41,4.41,0,0,1-4,0l-41.49-24a1.21,1.21,0,0,1,0-2.29l20.53-11.93a4.34,4.34,0,0,1,4,0Z" style="fill:#455a64"></path><g style="opacity:0.1"><path d="M291.65,372.76a1.22,1.22,0,0,1,0,2.3L271.14,387a4.41,4.41,0,0,1-4,0l-41.49-24a1.21,1.21,0,0,1,0-2.29l20.53-11.93a4.34,4.34,0,0,1,4,0Z" style="fill:#fff"></path></g><g style="opacity:0.5"><path d="M243.27,418.12c0,.69,0,1.36,0,2l.14.08,4.25,2.46,1.2.69.49.29.32.17a4.57,4.57,0,0,0,1.83.58,1.46,1.46,0,0,0,1.07-.29v.09c-1,1.48-1.91,2.95-2.86,4.42a.72.72,0,0,1-.41.32,2.26,2.26,0,0,1-1.13,0,6.43,6.43,0,0,1-1.42-.48c-.52-.23-1-.53-1.55-.8l-1.84-1-.1,0v1.39c-.08-.12-3.09-6.43-3.27-6.87Z" style="fill:#fff"></path><path d="M251,415.82c.06.13.1.26.15.37.47,1.2.93,2.39,1.4,3.58a5.85,5.85,0,0,1,.29,1,6.6,6.6,0,0,1,.15,1.42,2.58,2.58,0,0,1-.16.86,1.1,1.1,0,0,1-.76.72,3.29,3.29,0,0,1-.43.09,2.12,2.12,0,0,1-.81-.1,6.28,6.28,0,0,1-1.14-.5l-.27-.15c-.26-.15-.52-.31-.79-.49a.47.47,0,0,1-.14-.19c-.7-1.81-1.39-3.61-2.1-5.42-.08-.24-.18-.47-.27-.71Z" style="fill:#fff"></path><path d="M232.72,413.84,234.6,415l2.83,1.7.07.05-.12,6.4-.39-.22-.18-.11-2.43-1.45a5.59,5.59,0,0,1-1.13-.88,7.66,7.66,0,0,1-1-1.27,4.57,4.57,0,0,1-.82-2.48c0-.12,0-.24,0-.36a3,3,0,0,1,.09-.69,3.39,3.39,0,0,1,.58-1.19c.17-.23.36-.42.53-.64C232.61,413.8,232.65,413.8,232.72,413.84Z" style="fill:#fff"></path><path d="M234.39,404.5c.67,2.32,1.33,4.63,2,6.95-.51-.63-1-1.27-1.52-1.91l-.1.12-2.84,3.72a4.9,4.9,0,0,0-.54.78,4,4,0,0,0-.43,1.31,4.2,4.2,0,0,0,.1,1.74l0,0,0-.06-1.48-3.79L228,409.43a2.74,2.74,0,0,1-.21-.89,4.18,4.18,0,0,1,.18-1.66,5.08,5.08,0,0,1,.75-1.53c.43-.63.85-1.27,1.28-1.91a.56.56,0,0,0,.05-.08c-.34-.45-.68-.88-1-1.32.08,0,2,.88,2.7,1.22Z" style="fill:#fff"></path><path d="M236.81,396.58a3.92,3.92,0,0,1,1.13,1l.23.26a5.8,5.8,0,0,1,.51.75,11.1,11.1,0,0,1,.74,1.51,17.82,17.82,0,0,1,.61,1.75l-2.57,3.29L232.67,399l0-.07,1.68-2.18.05-.06a2,2,0,0,1,1.52-.42A2.28,2.28,0,0,1,236.81,396.58Z" style="fill:#fff"></path><path d="M243.73,400.21a2.74,2.74,0,0,1,.54.45,7.93,7.93,0,0,1,.85,1.11,13.89,13.89,0,0,1,1.2,2.29c.27.65.52,1.29.78,1.94l.89,2.25a1.56,1.56,0,0,0,.06.15l1.06,0c-.73,1.48-1.49,2.93-2.25,4.39l-5.35-4c.51,0,1-.07,1.54-.09a.75.75,0,0,0-.05-.16q-1.31-3.54-2.6-7.08c-.17-.45-.33-.9-.52-1.35a12.57,12.57,0,0,0-1.08-2,6.38,6.38,0,0,0-1.24-1.38l0,0,.1.05Z" style="fill:#fff"></path></g></g></svg>